<ttFont>
          <CharString index="0">
            rmoveto
            1 -163 127 -142 123 -135 rrcurveto
            133 -145 132 -152 -133 vvcurveto
            -37 -11 -32 -21 -30 vhcurveto
            317 15 179 196 192 vvcurveto
            159 -170 173 -158 152 vhcurveto
            -98 94 -90 132 145 vvcurveto
            55 26 57 53 45 vhcurveto
            -300 -2 -243 -194 -250 vvcurveto
            876 -158 rmoveto
            30 66 19 21 8 hvcurveto
            26 86 22 171 121 vvcurveto
            34 -1 31 -4 24 vhcurveto
            25 -53 -161 60 -111 hhcurveto
            -29 -55 -45 -23 -3 hvcurveto
            230 -178 35 -248 -98 vvcurveto
            -839 -221 rmoveto
            -35 -48 -47 -18 -5 hvcurveto
            -30 -114 -16 -125 -131 vvcurveto
            -19 0 -22 1 -22 vhcurveto
            -61 94 240 -35 122 hhcurveto
            17 16 16 50 4 25 -137 37 -176 240 -47 226 rrcurveto
            return
          </CharString>
          <CharString index="1">
            1163 -34 callsubr
            -92 352 -102 564 -52 379 -16 callgsubr
            -32 -48 -49 -16 -7 hvcurveto
            -23 -55 -47 -102 -29 -59 94 -360 68 -439 35 -281 24 callgsubr
            hmoveto
            -14 callgsubr
            35 -3 40 36 vvcurveto
            32 vlineto
            74 13 75 9 56 26 callgsubr
            23 4 42 24 vvcurveto
            -37 15 -89 21 -83 13 rrcurveto
            27 200 52 221 121 vvcurveto
            27 -3 22 -6 17 vhcurveto
            -89 -191 -279 -583 -122 -208 rrcurveto
            return
          </CharString>
          <CharString index="2">
            rmoveto
            33 72 47 20 5 hvcurveto
            31 133 36 -27 callsubr
            -119 13 rrcurveto
            -30 -55 -43 -23 -3 hvcurveto
            133 -151 53 -162 46 -227 rrcurveto
            93 -250 rmoveto
            -32 -67 -26 -31 -31 hvcurveto
            -107 -185 -95 -134 -208 -149 rrcurveto
            224 180 46 65 73 hvcurveto
            26 121 26 170 11 5 callgsubr
            -385 881 rmoveto
            1 -14 -11 0 -13 hhcurveto
            -535 -255 -404 -392 -339 246 -222 277 -50 hvcurveto
            25 callsubr
            18 hvcurveto
            -65 130 -29 184 163 vvcurveto
            335 111 353 200 173 vhcurveto
            return
          </CharString>
          <CharString index="3">
            832 523 rmoveto
            99 126 -81 -103 -83 -136 -220 -105 -56 hvcurveto
            168 177 34 17 58 hvcurveto
            19 9 68 51 17 23 29 120 35 224 16 167 rrcurveto
            -161 -237 -5 -6 -120 hvcurveto
            -28 -1 -22 -66 -3 -24 rrcurveto
            431 232 rmoveto
            34 71 47 20 5 hvcurveto
            31 133 37 -27 callsubr
            -120 13 rrcurveto
            -30 -55 -43 -23 -3 hvcurveto
            133 -151 53 -162 46 -227 rrcurveto
            -292 631 rmoveto
            1 -14 -11 0 -12 hhcurveto
            -536 -255 -404 -392 -339 246 -222 277 -50 hvcurveto
            35 53 50 18 hvcurveto
            -64 130 -29 184 163 vvcurveto
            335 110 353 200 173 vhcurveto
            return
          </CharString>
          <CharString index="4">
            rmoveto
            -35 -2 -74 -51 1 -17 rrcurveto
            2 -49 3 -50 -48 vvcurveto
            -153 -27 -143 -148 -92 vhcurveto
            -15 55 35 -5 44 hhcurveto
            271 150 147 166 122 -88 125 -189 65 hvcurveto
            -162 16 rmoveto
            7 -33 -30 2 -31 hhcurveto
            -333 -311 -194 -361 -329 271 -153 315 237 191 78 95 60 hvcurveto
            -7 -46 -48 -4 -41 hhcurveto
            -313 -157 144 224 182 100 202 169 114 hvcurveto
            return
          </CharString>
          <CharString index="5">
            rmoveto
            36 16 46 57 17 vvcurveto
            -53 53 -19 75 98 vvcurveto
            196 80 238 22 158 vhcurveto
            29 callsubr
            -188 9 -57 hhcurveto
            -32 -56 -50 -15 hvcurveto
            -1 -195 -90 -446 -150 vvcurveto
            -60 26 -57 25 -34 -4 callsubr
            145 14 28 130 hvcurveto
            -463 979 rmoveto
            -451 -264 -268 -322 -269 205 -160 301 33 54 50 18 hvcurveto
            -79 55 -41 191 139 vvcurveto
            225 77 219 165 122 vhcurveto
            return
          </CharString>
          <CharString index="6">
            rmoveto
            -87 154 9 -63 vvcurveto
            -25 -7 -28 -21 -51 vhcurveto
            hintmask 01001000
            -2 26 32 -1 30 hhcurveto
            39 36 1 6 15 hvcurveto
            23 9 145 115 137 vvcurveto
            80 -69 58 -146 vhcurveto
            hintmask 10001000
            -118 -139 -64 -94 hvcurveto
            endchar
          </CharString>
          <CharString index="7">
            rmoveto
            258 18 168 22 156 33 -7 83 -53 139 -46 77 -156 -73 -126 -68 -225 -141 -33 callsubr
            9 -38 6 -19 16 -33 rrcurveto
            endchar
          </CharString>
          <CharString index="8">
            1561 934 rmoveto
            2 -26 1 -26 -26 vvcurveto
            -114 -17 -121 -32 -107 vhcurveto
            34 50 26 16 9 hvcurveto
            67 121 141 175 100 148 rrcurveto
            -263 hlineto
            -34 -58 -50 -16 hvcurveto
            -1379 68 rmoveto
            -35 -58 -2 callsubr
            74 -224 161 -459 46 -253 rrcurveto
            263 hlineto
            34 47 50 16 7 hvcurveto
            27 62 106 253 32 58 rrcurveto
            -3 -15 -16 -1 -10 hhcurveto
            -120 -73 381 186 -22 hvcurveto
            260 hmoveto
            -35 -58 -2 callsubr
            75 -224 101 -459 47 -253 rrcurveto
            262 hlineto
            33 47 50 16 7 hvcurveto
            27 62 106 253 33 58 rrcurveto
            -3 -16 -16 -1 -10 hhcurveto
            -120 -13 381 186 -22 hvcurveto
            return
          </CharString>
          <CharString index="9">
            rmoveto
            25 301 86 694 78 -7 callsubr
            -421 -29 callsubr
            -50 -16 hvcurveto
            -23 -263 -92 -775 -66 -280 rrcurveto
            412 hlineto
            35 53 52 16 hvcurveto
            return
          </CharString>
          <CharString index="10">
            771 hmoveto
            34 -36 callgsubr
            13 128 12 88 24 111 -101 297 -66 292 -37 379 12 callgsubr
            -34 -53 -58 callgsubr
            104 -355 62 -246 65 -344 -16 -144 -12 -69 -27 -138 rrcurveto
            681 608 rmoveto
            121 241 169 324 120 188 rrcurveto
            -31 callsubr
            2 -27 0 -27 -27 vvcurveto
            -235 -33 -220 -59 -219 vhcurveto
            33 46 51 16 8 hvcurveto
            return
          </CharString>
          <CharString index="11">
            rmoveto
            -402 -300 -219 -347 -267 205 -159 215 -30 hvcurveto
            31 54 49 18 1 hvcurveto
            -28 107 -16 114 113 vvcurveto
            228 67 227 173 166 vhcurveto
            -135 -1036 rmoveto
            402 300 219 347 267 -205 159 -215 30 hvcurveto
            -31 -54 -49 -18 -1 hvcurveto
            28 -107 16 -114 -113 vvcurveto
            -228 -67 -227 -173 -166 vhcurveto
            return
          </CharString>
          <CharString index="12">
            33 54 51 -6 callsubr
            64 467 99 422 12 callgsubr
            -32 -56 -58 callgsubr
            -33 -405 -64 -467 -98 -424 rrcurveto
            return
          </CharString>
          <CharString index="13">
            rmoveto
            -73 22 -37 36 -35 -4 callsubr
            155 0 19 128 hvcurveto
            33 14 49 58 17 vvcurveto
            -43 43 -34 18 104 124 64 237 144 vvcurveto
            180 -92 74 -174 -93 -123 -24 -24 -48 vhcurveto
            -18 -22 -11 -36 -5 -32 rrcurveto
            55 44 -30 -72 hvcurveto
            -135 -89 -346 -166 vvcurveto
            return
          </CharString>
          <CharString index="14">
            934 735 rmoveto
            35 79 46 20 5 hvcurveto
            34 167 32 216 19 177 rrcurveto
            -311 hlineto
            -14 -20 -12 -30 -4 -30 rrcurveto
            63 -95 74 -261 -190 vvcurveto
            -1218 1 rmoveto
            32 88 40 14 8 hvcurveto
            110 201 85 200 144 170 rrcurveto
            -304 hlineto
            -26 -45 -47 -24 -9 hvcurveto
            -17 -63 -54 -321 -12 -170 rrcurveto
            return
          </CharString>
          <CharString index="15">
            rmoveto
            16 37 53 35 5 hvcurveto
            30 219 rlineto
            -14 -190 -213 -1 -189 24 callsubr
            -37 -52 -5 -35 -30 -219 rcurveline
            13 205 194 2 193 hhcurveto
            endchar
          </CharString>
          <CharString index="16">
            34 53 52 -6 callsubr
            66 466 99 422 -92 callgsubr
            1001 501 rmoveto
            -92 -183 -144 -194 -166 -124 rrcurveto
            385 hlineto
            25 44 49 24 11 hvcurveto
            27 91 30 289 14 5 callgsubr
            -46 -68 -35 -40 -20 hvcurveto
            return
          </CharString>
          <CharString index="17">
            -84 callsubr
            hintmask 01010000
            -55 callsubr
          </CharString>
          <CharString index="18">
            rmoveto
            -87 71 -69 120 127 107 85 108 87 -70 70 -121 -100 -134 -66 -128 vhcurveto
            556 hmoveto
            -87 71 -69 120 127 107 85 108 87 -68 70 -123 -98 -136 -66 -128 vhcurveto
            endchar
          </CharString>
          <CharString index="19">
            rmoveto
            16 33 6 19 9 38 -225 141 -126 68 -156 73 -46 -77 -53 -139 -7 -83 -33 callsubr
            156 -33 168 -22 258 -18 rrcurveto
            endchar
          </CharString>
          <CharString index="20">
            -86 callgsubr
            endchar
          </CharString>
          <CharString index="21">
            rmoveto
            149 58 75 31 111 49 94 -50 52 -25 135 -63 34 31 30 38 16 36 -131 194 -32 38 -120 5 callgsubr
            -102 hlineto
            -131 -104 -97 -89 -141 -162 return
          </CharString>
          <CharString index="22">
            1039 989 rmoveto
            -36 -67 -35 -30 -4 hvcurveto
            10 -62 3 -56 -56 vvcurveto
            -51 -3 -51 -4 -54 vhcurveto
            -13 34 41 -14 45 hhcurveto
            110 125 44 107 109 -93 129 -161 33 hvcurveto
            -169 27 rmoveto
            8 -46 -42 6 -46 hhcurveto
            -330 -273 -232 -338 -314 253 -164 318 239 156 35 138 116 hvcurveto
            -15 -65 -63 -8 -60 hhcurveto
            -225 -173 111 270 205 107 195 134 103 hvcurveto
            return
          </CharString>
          <CharString index="23">
            rmoveto
            -75 -102 -147 -48 -136 hhcurveto
            -131 -122 43 105 -68 hvcurveto
            -25 -28 -23 -29 -15 -28 rrcurveto
            -230 180 -114 191 185 196 106 214 57 vhcurveto
            return
          </CharString>
          <CharString index="24">
            -98 callsubr
            endchar
          </CharString>
          <CharString index="25">
            535 hmoveto
            -46 callgsubr
            25 303 41 329 63 -7 callsubr
            -108 -235 -19 -10 -59 hvcurveto
            -31 -6 -56 -44 -15 vvcurveto
            -25 -302 -46 -302 -76 -321 rrcurveto
            1256 765 rmoveto
            169 -78 85 -176 -93 -88 -25 -23 -49 vhcurveto
            -18 -22 -17 -34 -9 -35 rrcurveto
            56 9 -69 -58 -102 -55 -370 -49 -281 hvcurveto
            396 hlineto
            34 -40 callgsubr
            17 261 66 301 137 vvcurveto
            125 -622 rmoveto
            -73 22 -36 37 -36 -4 callsubr
            126 0 19 129 hvcurveto
            33 15 50 58 16 vvcurveto
            -44 43 -34 18 104 124 71 226 144 vvcurveto
            179 -92 75 -175 -93 -133 -25 -23 -48 vhcurveto
            -17 -23 -11 -35 -5 -33 rrcurveto
            54 62 -30 -72 hvcurveto
            -135 -76 -384 -116 vvcurveto
            return
          </CharString>
          <CharString index="26">
            rmoveto
            245 28 178 39 143 49 -16 82 -84 191 -54 71 -146 -95 -124 -91 -191 -169 9 -37 18 -40 22 -28 rrcurveto
            endchar
          </CharString>
          <CharString index="27">
            1494 hmoveto
            35 53 -59 callsubr
            -42 312 -25 353 337 vvcurveto
            100 2 99 5 94 vhcurveto
            -306 hlineto
            -33 -47 -49 -16 -7 hvcurveto
            -27 -64 -38 -89 -30 -63 rrcurveto
            18 -233 7 -237 -233 vvcurveto
            -123 -3 -131 -3 -123 vhcurveto
            -245 52 rmoveto
            63 237 32 100 69 207 -106 235 -49 278 -43 252 rrcurveto
            -291 hlineto
            -32 -52 -49 -16 -3 hvcurveto
            -15 -105 -25 -112 -18 -102 92 -248 97 -414 53 -315 rrcurveto
            159 hlineto
            20 40 33 19 9 hvcurveto
            -492 671 rmoveto
            -33 -54 -50 -15 hvcurveto
            -49 -189 -84 -205 -111 -264 rrcurveto
            319 hlineto
            34 -36 callgsubr
            -65 207 -6 159 -6 291 rrcurveto
            return
          </CharString>
          <CharString index="28">
            -70 callgsubr
            -124 -62 callgsubr
            return
          </CharString>
          <CharString index="29">
            224 rmoveto
            -148 hlineto
            29 175 41 176 57 173 rrcurveto
            -349 hlineto
            -24 -43 -27 -9 hvcurveto
            -25 -223 -49 -255 -76 -234 rrcurveto
            349 hlineto
            26 41 28 8 hvcurveto
            3 29 3 28 5 30 rrcurveto
            131 hlineto
            8 14 20 69 1 18 rrcurveto
            -623 -101 rmoveto
            8 20 13 54 4 27 rrcurveto
            -152 hlineto
            80 114 84 140 86 189 -96 -118 -265 -265 -95 -72 6 -23 16 -45 13 -21 rrcurveto
            hintmask 10001000
            -432 -118 -72 callgsubr
            hintmask 00110000
            return
          </CharString>
          <CharString index="30">
            hintmask 10100000
            -99 callsubr
            return
          </CharString>
          <CharString index="31">
            rmoveto
            -7 45 36 -2 49 hhcurveto
            207 200 63 146 186 -247 11 -156 hvcurveto
            175 9 241 37 145 vvcurveto
            125 -181 56 -136 -24 -42 -28 -11 vhcurveto
            41 -27 15 -36 -39 vvcurveto
            -100 -100 -102 -153 vhcurveto
            -6 -11 -6 -18 -12 -5 1 -5 -3 vvcurveto
            175 -5 38 -89 -56 vvcurveto
            -110 -82 -71 -90 -41 vhcurveto
            -184 294 rmoveto
            -20 -4 -42 -12 -15 -10 -16 -73 -14 -93 -7 -53 29 -12 102 -26 72 -6 rrcurveto
            23 40 34 11 2 hvcurveto
            -82 48 -41 93 -31 103 rrcurveto
            -40 185 rmoveto
            25 42 30 8 6 hvcurveto
            99 119 75 76 113 63 -76 -1 -81 -9 -85 -16 -79 -15 -24 -154 -15 -101 rrcurveto
            endchar
          </CharString>
          <CharString index="32">
            184 85 94 55 117 82 -103 128 -29 32 -120 89 -94 -123 -46 -79 -97 -186 24 -32 37 -31 33 -20 rrcurveto
            return
          </CharString>
          <CharString index="33">
            -132 rmoveto
            5 -23 14 -35 14 -18 rrcurveto
            1 15 20 2 21 hhcurveto
            hintmask 10100010
            56 65 -11 -58 -49 -46 -22 -64 -55 -68 16 30 -62 hvcurveto
            hintmask 01100100
            -1 -12 0 -13 -12 vvcurveto
            -24 1 -22 3 -18 vhcurveto
            hintmask 10100010
            -21 42 103 -46 149 hhcurveto
            193 83 81 127 124 -113 55 -119 hvcurveto
            hintmask 10100100
            return
          </CharString>
          <CharString index="34">
            rmoveto
            34 53 50 16 hvcurveto
            4 30 15 93 8 29 rrcurveto
            -420 hlineto
            -32 -55 -50 -17 hvcurveto
            -3 -39 -11 -68 -11 -44 rrcurveto
            return
          </CharString>
          <CharString index="35">
            -50 callsubr
            32 406 56 467 100 -25 callgsubr
            -446 hlineto
            -32 -55 -58 callgsubr
            -33 -405 -65 -489 -111 -402 rrcurveto
            return
          </CharString>
          <CharString index="36">
            rmoveto
            -12 -20 -6 -26 -6 -29 rrcurveto
            162 hlineto
            13 26 17 66 3 27 -77 -24 -21 -6 -73 -14 rrcurveto
            529 -606 rmoveto
            18 220 39 262 61 229 rrcurveto
            -298 hlineto
            -29 -51 -27 -9 hvcurveto
            -45 -229 -57 -252 -93 -230 rrcurveto
            375 hlineto
            30 50 28 8 hvcurveto
            return
          </CharString>
          <CharString index="37">
            566 hmoveto
            35 54 51 16 hvcurveto
            32 406 65 466 -32 callgsubr
            -455 hlineto
            -31 -56 -2 callsubr
            -33 -404 -64 -493 -99 -398 rrcurveto
            1102 1361 rmoveto
            -35 -44 -48 -18 -9 hvcurveto
            -105 -202 -176 -354 -30 -101 rrcurveto
            53 -6 36 -39 -90 -100 -45 -137 -123 vvcurveto
            -134 111 -34 125 116 134 23 19 82 vhcurveto
            16 28 11 38 6 37 rrcurveto
            -77 12 -17 52 64 81 14 77 87 vvcurveto
            148 -79 79 -209 -25 -28 -1 -2 -29 vhcurveto
            187 161 205 230 178 253 rrcurveto
            return
          </CharString>
          <CharString index="38">
            rmoveto
            -258 -172 -161 -104 -234 -149 -12 -46 -7 -49 -5 -57 189 -149 132 -106 190 -162 rrcurveto
            15 7 51 104 27 vvcurveto
            -132 139 -54 60 -127 142 167 151 62 53 118 96 rrcurveto
            13 10 53 45 33 vvcurveto
            return
          </CharString>
          <CharString index="39">
            515 hmoveto
            -46 callgsubr
            25 303 38 329 62 -7 callsubr
            -107 -235 -19 -10 -59 hvcurveto
            -32 -6 -55 -44 -15 vvcurveto
            -25 -302 -43 -302 -76 -321 rrcurveto
            return
          </CharString>
          <CharString index="40">
            -48 callsubr
            80 120 84 94 hvcurveto
            -160 -23 rlineto
            -132 -118 -135 -52 callsubr
            return
          </CharString>
          <CharString index="41">
            28 callsubr
            130 13 138 17 137 115 29 154 21 99 6 rrcurveto
            17 20 4 38 24 vvcurveto
            -62 19 -202 31 -97 9 33 233 43 236 53 224 -92 callgsubr
            1055 755 rmoveto
            33 49 47 20 5 hvcurveto
            38 166 33 260 8 113 rrcurveto
            -363 hlineto
            -15 -20 -11 -30 -3 -30 86 -95 106 -221 34 -210 rrcurveto
            return
          </CharString>
          <CharString index="42">
            rmoveto
            -33 -54 -50 -16 hvcurveto
            -26 -304 -98 -778 -79 -266 rrcurveto
            352 161 119 303 34 hvcurveto
            24 206 86 560 52 226 rrcurveto
            return
          </CharString>
          <CharString index="43">
            805 459 rmoveto
            -6 30 31 -1 31 hhcurveto
            302 300 198 304 234 -172 168 -299 20 hvcurveto
            -33 -55 -51 -17 hvcurveto
            57 -104 25 -108 -107 vvcurveto
            -195 -84 -191 -133 -144 vhcurveto
            -130 -392 rmoveto
            32 405 67 478 99 424 rrcurveto
            -139 -199 -15 -9 -37 callgsubr
            -16 vvcurveto
            -32 -406 -64 -481 -99 -398 rrcurveto
            454 hlineto
            34 54 51 16 hvcurveto
            return
          </CharString>
          <CharString index="44">
            -96 callgsubr
            endchar
          </CharString>
          <CharString index="45">
            -106 callgsubr
            endchar
          </CharString>
          <CharString index="46">
            rmoveto
            -150 -59 -75 -31 -111 -48 -93 49 -52 26 -135 63 -34 -31 -30 -38 -16 -36 131 -194 32 -38 120 -123 rrcurveto
            102 hlineto
            131 104 97 89 141 162 return
          </CharString>
          <CharString index="47">
            1092 563 rmoveto
            62 62 47 132 119 vvcurveto
            76 -29 67 -85 -120 -105 -108 -121 -85 vhcurveto
            -14 -37 -12 -41 -6 -39 117 -4 142 -44 88 -62 rrcurveto
            -604 -563 rmoveto
            -46 callgsubr
            26 303 48 329 64 -7 callsubr
            -108 -246 -19 -10 -59 hvcurveto
            -31 -6 -56 -45 -14 vvcurveto
            -26 -302 -43 -302 -75 -321 rrcurveto
            return
          </CharString>
          <CharString index="48">
            51 15 hvcurveto
            return
          </CharString>
          <CharString index="49">
            81 vstem
            150 680 rmoveto
            -390 315 -315 390 390 316 315 390 390 -316 316 -390 -390 -315 -316 -390 vhcurveto
            80 hmoveto
            346 279 279 346 346 279 -279 -346 -346 -279 -279 -346 -346 -279 279 346 vhcurveto
            return
          </CharString>
          <CharString index="50">
            -767 -43 callsubr
            hstemhm
            190 472 hintmask 00000000
            hintmask 01100000
            190 -2 callgsubr
            hintmask 10100000
            -2 26 32 -1 30 hhcurveto
            39 36 1 6 15 hvcurveto
            23 9 145 115 137 vvcurveto
            80 -69 58 -146 vhcurveto
            hintmask 01100000
            -118 -139 -64 -94 hvcurveto
            endchar
          </CharString>
          <CharString index="51">
            -31 callgsubr
            hintmask 10100000
            400 hmoveto
            -35 callgsubr
          </CharString>
          <CharString index="52">
            -8 32 -13 26 -19 26 rrcurveto
            endchar
          </CharString>
          <CharString index="53">
            rmoveto
            389 189 164 71 350 140 rrcurveto
            9 42 5 71 49 vvcurveto
            -286 134 -163 82 -312 176 rrcurveto
            -15 -7 -51 -48 -33 vvcurveto
            -55 vlineto
            267 -119 155 -79 229 -132 -234 -105 -155 -66 -286 -115 rrcurveto
            -15 -6 -51 -49 -33 vvcurveto
            return
          </CharString>
          <CharString index="54">
            -55 callgsubr
            72 vlineto
            -180 -16 -116 -10 -110 -3 17 114 20 131 34 212 rrcurveto
            -72 -47 callgsubr
            -20 -178 -12 -114 -14 -107 -94 2 -106 4 -151 8 rrcurveto
            -16 -1 -42 -52 -35 vvcurveto
            -72 vlineto
            173 16 114 9 106 3 return
          </CharString>
          <CharString index="55">
            -138 -65 callgsubr
            return
          </CharString>
          <CharString index="56">
            -209 -17 -33 -416 -92 hvcurveto
            267 hlineto
            32 55 30 callgsubr
            2 17 7 54 11 64 -95 29 rcurveline
            13 76 15 86 11 56 rrcurveto
            return
          </CharString>
          <CharString index="57">
            34 -49 callgsubr
            return
          </CharString>
          <CharString index="58">
            16 40 54 33 hvcurveto
            41 vlineto
            return
          </CharString>
          <CharString index="59">
            -60 callgsubr
            -78 -69 36 91 70 return
          </CharString>
          <CharString index="60">
            rmoveto
            -87 154 9 -63 vvcurveto
            -25 -7 -28 -21 -51 vhcurveto
            hintmask 01010000
            -2 26 32 -1 30 hhcurveto
            39 36 1 6 15 hvcurveto
            23 9 145 115 137 vvcurveto
            80 -69 58 -146 vhcurveto
            hintmask 10010000
            -118 -139 -64 -94 hvcurveto
            endchar
          </CharString>
          <CharString index="61">
            329 281 -219 173 -264 -33 -52 -49 -18 hvcurveto
            80 -118 28 -121 -128 vvcurveto
            -218 -74 return
          </CharString>
          <CharString index="62">
            rmoveto
            229 -22 78 371 81 hvcurveto
            -137 hlineto
            -32 -55 -50 -17 hvcurveto
            -3 -39 -38 -230 -23 -113 rrcurveto
            return
          </CharString>
          <CharString index="63">
            rmoveto
            -35 -2 -73 -51 -17 vvcurveto
            12 -46 7 -52 -52 vvcurveto
            -143 -51 -154 -138 -88 vhcurveto
            -15 55 35 -5 44 hhcurveto
            252 190 105 194 143 -98 147 -200 36 hvcurveto
            endchar
          </CharString>
          <CharString index="64">
            -449 -21 24 -21 return
          </CharString>
          <CharString index="65">
            -49 callsubr
            -68 -17 return
          </CharString>
          <CharString index="66">
            317 993 -65 callsubr
            return
          </CharString>
          <CharString index="67">
            108 427 81 299 160 504 rrcurveto
            -75 -47 callgsubr
            -108 -427 -81 -299 -160 25 callgsubr
            75 -52 callgsubr
            return
          </CharString>
          <CharString index="68">
            hstemhm
            213 1260 return
          </CharString>
          <CharString index="69">
            34 53 -59 callsubr
            return
          </CharString>
          <CharString index="70">
            rmoveto
            -36 callsubr
          </CharString>
          <CharString index="71">
            -95 callsubr
            endchar
          </CharString>
          <CharString index="72">
            rmoveto
            -60 47 -46 80 84 71 57 74 58 -47 48 -80 -66 -89 -45 -86 vhcurveto
            return
          </CharString>
          <CharString index="73">
            hmoveto
            -50 callsubr
            return
          </CharString>
          <CharString index="74">
            rrcurveto
            hintmask 01010000
            return
          </CharString>
          <CharString index="75">
            -54 -58 callgsubr
            return
          </CharString>
          <CharString index="76">
            -27 callgsubr
            -34 -55 -58 callgsubr
            return
          </CharString>
          <CharString index="77">
            -109 -5 -80 rrcurveto
            return
          </CharString>
          <CharString index="78">
            hlineto
            -33 -54 return
          </CharString>
          <CharString index="79">
            hlineto
            -26 callgsubr
            return
          </CharString>
          <CharString index="80">
            264 3 70 -99 35 -106 24 return
          </CharString>
          <CharString index="81">
            -87 -30 callgsubr
            return
          </CharString>
          <CharString index="82">
            rrcurveto
            -138 -21 callgsubr
            return
          </CharString>
          <CharString index="83">
            hlineto
            -50 callsubr
            return
          </CharString>
          <CharString index="84">
            154 162 154 return
          </CharString>
          <CharString index="85">
            0 1384 return
          </CharString>
          <CharString index="86">
            143 -49 178 -39 245 -28 rrcurveto
            endchar
          </CharString>
          <CharString index="87">
            -42 -231 -47 -281 -172 -159 rrcurveto
            return
          </CharString>
          <CharString index="88">
            rrcurveto
            -49 callsubr
            return
          </CharString>
          <CharString index="89">
            hintmask 00000000
            hintmask 10100000
            return
          </CharString>
          <CharString index="90">
            156 1267 return
          </CharString>
          <CharString index="91">
            84 -20 162 return
          </CharString>
          <CharString index="92">
            20 188 13 117 15 112 100 -1 105 -4 159 -8 rrcurveto
            endchar
          </CharString>
          <CharString index="93">
            rmoveto
            -58 56 -44 94 99 84 55 70 57 -55 46 -94 -78 -106 -44 -82 vhcurveto
            return
          </CharString>
          <CharString index="94">
            17 68 rrcurveto
            -41 -29 callsubr
            -40 -16 hvcurveto
            return
          </CharString>
          <CharString index="95">
            hstemhm
            143 1300 return
          </CharString>
          <CharString index="96">
            hstemhm
            -17 callsubr
            return
          </CharString>
          <CharString index="97">
            574 -278 278 return
          </CharString>
          <CharString index="98">
            hstemhm
            123 1290 return
          </CharString>
          <CharString index="99">
            -40 1291 return
          </CharString>
          <CharString index="100">
            321 rrcurveto
            return
          </CharString>
          <CharString index="101">
            15 hvcurveto
            33 406 return
          </CharString>
          <CharString index="102">
            -63 callgsubr
            14 callsubr
            return
          </CharString>
          <CharString index="103">
            vhcurveto
            144 return
          </CharString>
          <CharString index="104">
            vvcurveto
            -39 -13 -38 -13 -29 vhcurveto
            309 172 114 173 return
          </CharString>
          <CharString index="105">
            -49 -17 hvcurveto
            return
          </CharString>
          <CharString index="106">
            -10 callsubr
            hintmask 00000000
            return
          </CharString>
          <CharString index="107">
            85 -446 -21 29 -21 45 -21 return
          </CharString>
          <CharString index="108">
            hstem
            207 950 vstem
            return
          </CharString>
          <CharString index="109">
            153 1267 return
          </CharString>
          <CharString index="110">
            133 1135 return
          </CharString>
          <CharString index="111">
            140 1125 return
          </CharString>
          <CharString index="112">
            -21 callgsubr
            -37 callgsubr
            -15 vvcurveto
            return
          </CharString>
          <CharString index="113">
            -767 1462 360 hstem
            -125 934 vstem
            return
          </CharString>
          <CharString index="114">
            460 hstemhm
            return
          </CharString>
          <CharString index="115">
            256 -25 80 1250 81 hstem
            150 80 return
          </CharString>
          <CharString index="116">
            374 26 374 hintmask 11000000
            return
          </CharString>
          <CharString index="117">
            -598 932 449 hstemhm
            return
          </CharString>
          <CharString index="118">
            81 -9 1009 return
          </CharString>
          <CharString index="119">
            1460 372 hstem
            463 613 vstem
            return
          </CharString>
          <CharString index="120">
            -669 -398 -21 hstem
            182 409 vstem
            return
          </CharString>
          <CharString index="121">
            118 -20 callgsubr
            return
          </CharString>
          <CharString index="122">
            133 1160 return
          </CharString>
          <CharString index="123">
            123 1359 return
          </CharString>
          <CharString index="124">
            -467 -99 -424 rrcurveto
            return
          </CharString>
          <CharString index="125">
            -426 -5 1326 return
          </CharString>
          <CharString index="126">
            164 hstemhm
            95 1037 return
          </CharString>
          <CharString index="127">
            hstemhm
            3 callsubr
            return
          </CharString>
          <CharString index="128">
            hmoveto
            -38 callsubr
            return
          </CharString>
          <CharString index="129">
            hstemhm
            123 1288 return
          </CharString>
          <CharString index="130">
            86 -2 1021 return
          </CharString>
          <CharString index="131">
            hhcurveto
            -16 -1 return
          </CharString>
          <CharString index="132">
            34 54 50 return
          </CharString>
          <CharString index="133">
            194 endchar
          </CharString>
          <CharString index="134">
            86 954 hstem
            224 917 vstem
            return
          </CharString>
          <CharString index="135">
            559 21 callsubr
            11 return
          </CharString>
          <CharString index="136">
            48 -158 return
          </CharString>
        <CharString name=".notdef">
          -940 endchar
        </CharString>
        <CharString name="A">
          -63 callgsubr
          hstem
          -8 callsubr
          vstem
          -106 callsubr
          endchar
        </CharString>
        <CharString name="AE">
          436 -30 callgsubr
          hstem
          1154 46 vstem
          -90 callgsubr
          endchar
        </CharString>
        <CharString name="AEacute">
          436 -30 callgsubr
          99 -7 callgsubr
          923 613 -382 46 hintmask 10010000
          -90 callgsubr
          -661 1049 rmoveto
          258 18 168 22 156 33 -7 83 -53 139 -46 77 -156 -73 -126 -68 -225 -141 rrcurveto
          hintmask 01100000
          9 -38 6 -19 16 -33 rrcurveto
          endchar
        </CharString>
        <CharString name="Aacute">
          -50 callgsubr
          -8 callsubr
          -700 613 hintmask 10100000
          -106 callsubr
          622 1460 -100 callsubr
        </CharString>
        <CharString name="Abreve">
          -63 callgsubr
          89 429 hstemhm
          -8 callsubr
          -784 809 hintmask 10100000
          -106 callsubr
          1276 1854 -90 callsubr
        </CharString>
        <CharString name="Acircumflex">
          -39 callgsubr
          -8 callsubr
          -861 934 hintmask 10100000
          -106 callsubr
          478 1462 -104 callgsubr
        </CharString>
        <CharString name="Adieresis">
          -18 callgsubr
          -8 callsubr
          -887 981 hintmask 10100000
          -106 callsubr
          hintmask 01010000
          404 1585 -95 callgsubr
        </CharString>
        <CharString name="Agrave">
          -50 callgsubr
          -8 callsubr
          -708 613 hintmask 10100000
          -106 callsubr
          1165 1460 -88 callsubr
        </CharString>
        <CharString name="Amacron">
          -63 callgsubr
          150 292 hstemhm
          -8 callsubr
          -731 680 hintmask 10100000
          -106 callsubr
          hintmask 01010000
          1152 1511 -92 callsubr
        </CharString>
        <CharString name="Aogonek">
          193 0 65 206 endchar
        </CharString>
        <CharString name="Aring">
          -63 callgsubr
          -88 -23 callsubr
          hstemhm
          -8 callsubr
          -670 -23 callgsubr
          hintmask 10010000
          -106 callsubr
          hintmask 01101100
          794 1500 -89 callgsubr
        </CharString>
        <CharString name="Atilde">
          -63 callgsubr
          77 313 hstemhm
          -8 callsubr
          -800 812 hintmask 10100000
          -106 callsubr
          hintmask 01010000
          1037 1438 -93 callgsubr
        </CharString>
        <CharString name="B">
          84 -20 1396 hstem
          103 1349 vstem
          -76 callgsubr
          endchar
        </CharString>
        <CharString name="C">
          -41 callgsubr
          hstem
          143 1300 vstem
          1263 755 -105 callsubr
          endchar
        </CharString>
        <CharString name="CR">
          -940 endchar
        </CharString>
        <CharString name="Cacute">
          -41 callgsubr
          73 372 -12 callsubr
          -791 613 hintmask 10100000
          1263 755 -105 callsubr
          -288 74 -100 callsubr
        </CharString>
        <CharString name="Ccaron">
          -41 callgsubr
          75 360 -12 callsubr
          -959 934 hintmask 10100000
          1263 755 -105 callsubr
          399 436 -98 callgsubr
        </CharString>
        <CharString name="Ccedilla">
          84 -34 callgsubr
          60 1407 -12 callsubr
          -971 -13 callgsubr
          558 -74 callsubr
          -125 -50 -12 -40 -81 hvcurveto
          hintmask 00011000
          705 887 -105 callsubr
          endchar
        </CharString>
        <CharString name="Ccircumflex">
          -41 callgsubr
          75 360 -12 callsubr
          -952 934 hintmask 10100000
          1263 755 -105 callsubr
          -432 76 -104 callgsubr
        </CharString>
        <CharString name="Cdotaccent">
          -41 callgsubr
          92 350 -12 callsubr
          -703 2 callgsubr
          1263 755 -105 callsubr
          hintmask 01010000
          -231 249 -101 callgsubr
        </CharString>
        <CharString name="D">
          -11 callgsubr
          hstem
          143 1439 vstem
          746 -20 -63 callsubr
        </CharString>
        <CharString name="Dcaron">
          -11 callgsubr
          86 -5 callgsubr
          143 1439 -1139 934 hintmask 10100000
          746 -20 -96 callgsubr
          732 1830 -98 callgsubr
        </CharString>
        <CharString name="Dcroat">
          -82 callgsubr
        </CharString>
        <CharString name="Delta">
          2 122 hstem
          34 1157 vstem
          208 103 rmoveto
          9 21 rlineto
          -125 hlineto
          -16 -1 -42 -52 -35 vvcurveto
          -49 -28 callgsubr
          301 2 393 hhcurveto
          -57 callgsubr
          49 vlineto
          -129 459 -59 245 -139 559 rrcurveto
          -93 hlineto
          -35 -43 -36 -23 -11 hvcurveto
          -221 -464 -139 -280 -276 -524 83 -30 rcurveline
          35 44 42 16 hvcurveto
          9 21 rmoveto
          177 381 143 290 227 449 125 -445 59 -224 107 -441 rrcurveto
          -8 -289 -260 -2 -289 hhcurveto
          endchar
        </CharString>
        <CharString name="E">
          -26 callsubr
          hstem
          93 1221 vstem
          559 hmoveto
          -107 callgsubr
          endchar
        </CharString>
        <CharString name="Eacute">
          -26 callsubr
          99 372 -29 callgsubr
          -750 613 hintmask 10100000
          559 hmoveto
          -107 callgsubr
          -507 1049 -100 callsubr
        </CharString>
        <CharString name="Ebreve">
          -26 callsubr
          89 429 -29 callgsubr
          -834 809 hintmask 10100000
          559 hmoveto
          -107 callgsubr
          147 1443 -90 callsubr
        </CharString>
        <CharString name="Ecaron">
          -26 callsubr
          101 360 -29 callgsubr
          -918 934 hintmask 10100000
          559 hmoveto
          -107 callgsubr
          180 1411 -98 callgsubr
        </CharString>
        <CharString name="Ecircumflex">
          -26 callsubr
          101 360 -29 callgsubr
          -911 934 hintmask 10100000
          559 hmoveto
          -107 callgsubr
          -651 1051 -104 callgsubr
        </CharString>
        <CharString name="Edieresis">
          -26 callsubr
          78 330 -29 callgsubr
          -937 981 hintmask 10100000
          559 hmoveto
          -107 callgsubr
          hintmask 01010000
          -725 1174 -95 callgsubr
        </CharString>
        <CharString name="Edotaccent">
          -26 callsubr
          118 350 -29 callgsubr
          -662 2 callgsubr
          559 hmoveto
          -107 callgsubr
          hintmask 01010000
          -450 1224 -101 callgsubr
        </CharString>
        <CharString name="Egrave">
          -26 callsubr
          99 372 -29 callgsubr
          -758 613 hintmask 10100000
          559 hmoveto
          -107 callgsubr
          36 1049 -88 callsubr
        </CharString>
        <CharString name="Emacron">
          -26 callsubr
          150 292 -29 callgsubr
          -781 680 hintmask 10100000
          559 hmoveto
          -107 callgsubr
          hintmask 01010000
          23 1100 -92 callsubr
        </CharString>
        <CharString name="Eng">
          84 -446 -21 467 1361 18 callgsubr
          -674 478 hintmask 10010000
          785 -467 rmoveto
          289 29 164 120 25 383 -294 783 rcurveline
          -78 -494 71 -450 -177 -371 rrcurveto
          hintmask 01100000
          478 533 rmoveto
          7 108 18 186 11 102 -232 283 -213 276 -193 340 rrcurveto
          -261 hlineto
          -31 -52 -49 -16 -4 hvcurveto
          -10 -104 -19 -194 -11 -92 198 -225 290 -397 157 -284 rrcurveto
          258 hlineto
          33 -49 callgsubr
          -17 571 rmoveto
          34 54 30 callgsubr
          38 241 36 196 51 220 -16 callgsubr
          -35 -32 callsubr
          97 -186 41 -183 56 -290 rrcurveto
          -919 74 rmoveto
          -33 -55 -50 -16 hvcurveto
          -37 -240 -34 -185 -51 -220 rrcurveto
          318 -24 callsubr
          -97 186 -62 161 -37 298 rrcurveto
          endchar
        </CharString>
        <CharString name="Eogonek">
          -87 4 callgsubr
          1603 80 -29 callgsubr
          -820 0 callgsubr
          1077 -48 callsubr
          90 120 104 94 hvcurveto
          -158 -23 rlineto
          -132 -78 -167 -178 -15 callgsubr
          -518 454 rmoveto
          -107 callgsubr
          endchar
        </CharString>
        <CharString name="Eth">
          -82 callgsubr
        </CharString>
        <CharString name="Euro">
          447 103 hstem
          193 208 239 20 vstem
          971 1386 rmoveto
          1 -14 -11 0 -13 hhcurveto
          -463 -223 -317 -345 -45 hvcurveto
          -112 -10 rlineto
          -48 callgsubr
          46 11 51 12 65 13 rrcurveto
          -1 -13 0 -14 -13 vvcurveto
          -22 1 -21 1 -21 vhcurveto
          -46 -6 -40 -3 -39 -3 rrcurveto
          -48 callgsubr
          54 13 60 14 81 16 50 -253 176 -163 233 -42 rrcurveto
          25 callsubr
          18 hvcurveto
          -56 112 -30 153 -7 145 96 9 98 7 45 2 -19 callsubr
          -59 -15 -132 -22 -105 -14 rrcurveto
          35 3 36 3 35 vhcurveto
          111 12 106 10 57 4 rrcurveto
          -42 callsubr
          -142 -24 -109 -17 38 257 101 240 155 134 rrcurveto
          242 -631 rmoveto
          33 72 47 20 5 hvcurveto
          31 133 36 264 3 70 -99 35 -56 24 -119 13 rrcurveto
          -30 -55 -43 -23 -3 hvcurveto
          106 -140 39 -154 37 -246 rrcurveto
          93 -250 rmoveto
          -32 -67 -26 -31 -31 hvcurveto
          -107 -185 -80 -137 -173 -146 rrcurveto
          224 130 46 65 73 hvcurveto
          26 121 26 170 11 5 callgsubr
          endchar
        </CharString>
        <CharString name="F">
          -30 callgsubr
          hstem
          93 1221 vstem
          -66 callsubr
          endchar
        </CharString>
        <CharString name="G">
          84 523 91 -12 callgsubr
          hintmask 00000000
          hintmask 11000000
          -104 callsubr
          endchar
        </CharString>
        <CharString name="Gbreve">
          84 523 91 836 429 -12 callgsubr
          -875 809 -18 callsubr
          -104 callsubr
          367 468 -90 callsubr
        </CharString>
        <CharString name="Gcircumflex">
          84 523 91 848 360 -12 callgsubr
          -952 934 -18 callsubr
          -104 callsubr
          -431 76 -104 callgsubr
        </CharString>
        <CharString name="Gcommaaccent">
          84 -43 callsubr
          990 91 -12 callgsubr
          -923 472 hintmask 00000000
          hintmask 00110000
          -104 callsubr
          hintmask 00000000
          -450 -1608 -101 callsubr
        </CharString>
        <CharString name="Gdotaccent">
          84 523 91 865 350 -12 callgsubr
          -703 447 -18 callsubr
          -104 callsubr
          hintmask 01010000
          -230 249 -101 callgsubr
        </CharString>
        <CharString name="H">
          256 -63 callgsubr
          hstem
          133 1481 vstem
          588 hmoveto
          33 -49 callgsubr
          12 152 17 164 21 163 65 13 62 6 49 4 rrcurveto
          18 23 5 41 27 vvcurveto
          -31 12 -74 16 -72 14 32 221 41 224 51 215 rrcurveto
          -454 hlineto
          -32 -56 -58 callgsubr
          -32 -405 -65 17 callsubr
          1198 hmoveto
          32 55 51 -6 callsubr
          64 467 -32 callgsubr
          -454 hlineto
          -33 -32 callsubr
          -33 -405 -64 17 callsubr
          endchar
        </CharString>
        <CharString name="Hbar">
          256 -63 callgsubr
          -481 90 hstemhm
          101 1609 -1577 1481 hintmask 01100000
          1374 871 -70 callgsubr
          -891 -62 callgsubr
          hintmask 10010000
          67 -882 rmoveto
          33 -49 callgsubr
          12 152 17 164 21 163 65 13 62 6 49 4 rrcurveto
          18 23 5 41 27 vvcurveto
          -31 12 -74 16 -72 14 32 221 41 224 51 215 rrcurveto
          -454 hlineto
          -32 -56 -58 callgsubr
          -32 -405 -65 17 callsubr
          1198 hmoveto
          32 55 51 -6 callsubr
          64 467 -32 callgsubr
          -454 hlineto
          -33 -32 callsubr
          -33 -405 -64 17 callsubr
          endchar
        </CharString>
        <CharString name="Hcircumflex">
          256 -39 callgsubr
          133 1481 -1068 934 hintmask 10100000
          588 hmoveto
          33 -49 callgsubr
          12 152 17 164 21 163 65 13 62 6 49 4 rrcurveto
          18 23 5 41 27 vvcurveto
          -31 12 -74 16 -72 14 32 221 41 224 51 215 rrcurveto
          -454 hlineto
          -32 -56 -58 callgsubr
          -32 -405 -65 17 callsubr
          1198 hmoveto
          32 55 51 -6 callsubr
          64 467 -32 callgsubr
          -454 hlineto
          -33 -32 callsubr
          -33 -405 -64 17 callsubr
          -283 1462 -104 callgsubr
        </CharString>
        <CharString name="I">
          20 callgsubr
          hstem
          17 callgsubr
          vstem
          537 hmoveto
          -36 callsubr
        </CharString>
        <CharString name="IJ">
          596 -20 1381 -1361 1361 hstemhm
          17 callgsubr
          65 1084 hintmask 01100000
          537 hmoveto
          -95 callsubr
          hintmask 10010000
          1260 -75 callgsubr
          endchar
        </CharString>
        <CharString name="Iacute">
          -599 -50 callgsubr
          17 callgsubr
          -559 613 hintmask 10100000
          537 hmoveto
          -95 callsubr
          220 1460 -100 callsubr
        </CharString>
        <CharString name="Ibreve">
          20 callgsubr
          89 429 hstemhm
          17 callgsubr
          -643 809 hintmask 10100000
          537 hmoveto
          -95 callsubr
          874 1854 -90 callsubr
        </CharString>
        <CharString name="Icircumflex">
          -599 -39 callgsubr
          17 callgsubr
          -720 934 hintmask 10100000
          537 hmoveto
          -95 callsubr
          76 1462 -104 callgsubr
        </CharString>
        <CharString name="Idieresis">
          -599 -18 callgsubr
          17 callgsubr
          -746 981 hintmask 10100000
          537 hmoveto
          -95 callsubr
          hintmask 01010000
          2 1585 -95 callgsubr
        </CharString>
        <CharString name="Idotaccent">
          -599 -5 callsubr
          17 callgsubr
          -471 2 callgsubr
          537 hmoveto
          -95 callsubr
          hintmask 01010000
          277 1635 -101 callgsubr
        </CharString>
        <CharString name="Igrave">
          -599 -50 callgsubr
          17 callgsubr
          -567 613 hintmask 10100000
          537 hmoveto
          -95 callsubr
          763 1460 -88 callsubr
        </CharString>
        <CharString name="Imacron">
          20 callgsubr
          150 292 hstemhm
          17 callgsubr
          -590 680 hintmask 10100000
          537 hmoveto
          -95 callsubr
          hintmask 01010000
          750 1511 -92 callsubr
        </CharString>
        <CharString name="Iogonek">
          -599 4 callgsubr
          322 1361 hstemhm
          -14 607 -521 748 -18 callsubr
          569 -67 callsubr
          hintmask 01010000
          -32 454 -37 callsubr
        </CharString>
        <CharString name="Itilde">
          20 callgsubr
          77 313 hstemhm
          17 callgsubr
          -659 812 hintmask 10100000
          537 hmoveto
          -95 callsubr
          hintmask 01010000
          635 1438 -93 callgsubr
        </CharString>
        <CharString name="J">
          -256 -20 1381 hstem
          33 1084 vstem
          480 -75 callgsubr
          endchar
        </CharString>
        <CharString name="Jcircumflex">
          -256 -20 1381 -22 callgsubr
          33 1084 -724 934 hintmask 10100000
          480 -75 callgsubr
          367 1111 -104 callgsubr
        </CharString>
        <CharString name="K">
          84 -25 1386 hstem
          113 1468 vstem
          -70 callsubr
          endchar
        </CharString>
        <CharString name="Kcommaaccent">
          84 -43 callsubr
          442 1386 hstemhm
          113 1468 -1094 -8 callgsubr
          -70 callsubr
          hintmask 00000000
          -1094 -1583 -101 callsubr
        </CharString>
        <CharString name="L">
          -63 callgsubr
          hstem
          3 callsubr
          vstem
          -91 callgsubr
          endchar
        </CharString>
        <CharString name="Lacute">
          -50 callgsubr
          133 1135 -930 613 hintmask 10100000
          -91 callgsubr
          -765 959 -100 callsubr
        </CharString>
        <CharString name="Lcaron">
          -39 callgsubr
          133 1135 -1082 934 hintmask 10100000
          -91 callgsubr
          -62 1321 -98 callgsubr
        </CharString>
        <CharString name="Lcommaaccent">
          10 callgsubr
          1361 20 callsubr
          -853 -8 callgsubr
          -91 callgsubr
          hintmask 00000000
          -719 -723 -101 callsubr
        </CharString>
        <CharString name="Ldot">
          -63 callgsubr
          -652 350 20 callsubr
          -309 2 callgsubr
          -91 callgsubr
          hintmask 01010000
          -175 364 -101 callgsubr
        </CharString>
        <CharString name="Lslash">
          -63 callgsubr
          -875 398 hstemhm
          45 1025 -937 1135 hintmask 01100000
          625 633 rmoveto
          139 40 174 44 76 19 rrcurveto
          16 4 40 70 33 vvcurveto
          41 vlineto
          -68 -29 -239 -84 -102 -23 rrcurveto
          -198 -42 rmoveto
          -149 -39 -122 -26 -89 -15 rrcurveto
          -16 -3 -42 -70 -35 vvcurveto
          -32 vlineto
          110 38 137 40 173 46 rrcurveto
          hintmask 10010000
          134 -610 rmoveto
          -91 callsubr
          endchar
        </CharString>
        <CharString name="M">
          254 -63 callgsubr
          hstem
          229 87 vstem
          -80 callsubr
          endchar
        </CharString>
        <CharString name="N">
          84 -63 callgsubr
          hstem
          -6 callgsubr
          vstem
          1263 66 rmoveto
          7 108 18 186 11 102 -232 283 -213 276 -193 340 rrcurveto
          -261 hlineto
          -31 -52 -49 -16 -4 hvcurveto
          -10 -104 -19 -194 -11 -92 198 -225 290 -397 157 -284 rrcurveto
          258 hlineto
          33 -49 callgsubr
          -17 571 rmoveto
          34 54 30 callgsubr
          38 241 36 196 51 220 -16 callgsubr
          -35 -32 callsubr
          97 -186 41 -183 56 -290 rrcurveto
          -919 74 rmoveto
          -33 -55 -50 -16 hvcurveto
          -37 -240 -34 -185 -51 -220 rrcurveto
          318 -24 callsubr
          -97 186 -62 161 -37 298 rrcurveto
          endchar
        </CharString>
        <CharString name="NULL">
          -1451 endchar
        </CharString>
        <CharString name="Nacute">
          84 -50 callgsubr
          117 1342 -842 613 hintmask 10100000
          1263 66 rmoveto
          7 108 18 186 11 102 -232 283 -213 276 -193 340 rrcurveto
          -261 hlineto
          -31 -52 -49 -16 -4 hvcurveto
          -10 -104 -19 -194 -11 -92 198 -225 290 -397 157 -284 rrcurveto
          258 hlineto
          33 -49 callgsubr
          -17 571 rmoveto
          34 54 30 callgsubr
          38 241 36 196 51 220 -16 callgsubr
          -35 -32 callsubr
          97 -186 41 -183 56 -290 rrcurveto
          -919 74 rmoveto
          -33 -55 -50 -16 hvcurveto
          -37 -240 -34 -185 -51 -220 rrcurveto
          318 -24 callsubr
          -97 186 -62 161 -37 298 rrcurveto
          321 749 -100 callsubr
        </CharString>
        <CharString name="Ncaron">
          84 -39 callgsubr
          117 1342 -1010 934 hintmask 10100000
          1263 66 rmoveto
          7 108 18 186 11 102 -232 283 -213 276 -193 340 rrcurveto
          -261 hlineto
          -31 -52 -49 -16 -4 hvcurveto
          -10 -104 -19 -194 -11 -92 198 -225 290 -397 157 -284 rrcurveto
          258 hlineto
          33 -49 callgsubr
          -17 571 rmoveto
          34 54 30 callgsubr
          38 241 36 196 51 220 -16 callgsubr
          -35 -32 callsubr
          97 -186 41 -183 56 -290 rrcurveto
          -919 74 rmoveto
          -33 -55 -50 -16 hvcurveto
          -37 -240 -34 -185 -51 -220 rrcurveto
          318 -24 callsubr
          -97 186 -62 161 -37 298 rrcurveto
          1008 1111 -98 callgsubr
        </CharString>
        <CharString name="Ncommaaccent">
          84 10 callgsubr
          1361 18 callgsubr
          -1004 -8 callgsubr
          1263 66 rmoveto
          7 108 18 186 11 102 -232 283 -213 276 -193 340 rrcurveto
          -261 hlineto
          -31 -52 -49 -16 -4 hvcurveto
          -10 -104 -19 -194 -11 -92 198 -225 290 -397 157 -284 rrcurveto
          258 hlineto
          33 -49 callgsubr
          -17 571 rmoveto
          34 54 30 callgsubr
          38 241 36 196 51 220 -16 callgsubr
          -35 -32 callsubr
          97 -186 41 -183 56 -290 rrcurveto
          -919 74 rmoveto
          -33 -55 -50 -16 hvcurveto
          -37 -240 -34 -185 -51 -220 rrcurveto
          318 -24 callsubr
          -97 186 -62 161 -37 298 rrcurveto
          hintmask 00000000
          128 -933 -101 callsubr
        </CharString>
        <CharString name="Ntilde">
          84 -63 callgsubr
          77 313 18 callgsubr
          -942 812 hintmask 10100000
          1263 66 rmoveto
          7 108 18 186 11 102 -232 283 -213 276 -193 340 rrcurveto
          -261 hlineto
          -31 -52 -49 -16 -4 hvcurveto
          -10 -104 -19 -194 -11 -92 198 -225 290 -397 157 -284 rrcurveto
          258 hlineto
          33 -49 callgsubr
          -17 571 rmoveto
          34 54 30 callgsubr
          38 241 36 196 51 220 -16 callgsubr
          -35 -32 callsubr
          97 -186 41 -183 56 -290 rrcurveto
          -919 74 rmoveto
          -33 -55 -50 -16 hvcurveto
          -37 -240 -34 -185 -51 -220 rrcurveto
          318 -24 callsubr
          -97 186 -62 161 -37 298 -33 callsubr
          736 727 -93 callgsubr
        </CharString>
        <CharString name="O">
          -41 callgsubr
          hstem
          122 1332 vstem
          689 -20 -62 callsubr
        </CharString>
        <CharString name="OE">
          575 -30 callgsubr
          hstem
          122 1854 vstem
          689 -20 rmoveto
          24 23 1 2 23 hvcurveto
          462 17 rlineto
          34 1 53 50 15 vvcurveto
          11 138 15 149 19 147 113 25 144 21 95 6 rrcurveto
          18 20 5 37 24 vvcurveto
          -61 19 -185 29 -102 11 33 224 43 228 50 217 -493 2 rcurveline
          -33 -55 -50 -17 hvcurveto
          33 -130 20 -159 -164 vvcurveto
          -335 -82 -355 -207 -173 vhcurveto
          199 1407 rmoveto
          -522 -244 -399 -373 -287 142 -265 299 -59 hvcurveto
          34 55 51 17 hvcurveto
          -35 131 -20 160 164 vvcurveto
          334 83 352 208 174 vhcurveto
          922 -632 rmoveto
          33 49 47 20 5 hvcurveto
          38 166 33 260 8 113 rrcurveto
          -363 hlineto
          -15 -20 -11 -30 -3 -30 86 -95 106 -221 34 -210 rrcurveto
          -46 -344 rmoveto
          -98 -157 -130 -139 -172 -115 rrcurveto
          367 hlineto
          25 44 48 24 11 hvcurveto
          25 91 25 193 14 121 rrcurveto
          -33 -68 -53 -13 -10 hvcurveto
          endchar
        </CharString>
        <CharString name="Oacute">
          -41 callgsubr
          73 372 -33 callgsubr
          -862 613 hintmask 10100000
          689 -20 -106 callgsubr
          -265 73 -100 callsubr
        </CharString>
        <CharString name="Obreve">
          -41 callgsubr
          63 429 -33 callgsubr
          -946 809 hintmask 10100000
          689 -20 -106 callgsubr
          389 467 -90 callsubr
        </CharString>
        <CharString name="Ocircumflex">
          -41 callgsubr
          75 360 -33 callgsubr
          -1023 934 hintmask 10100000
          689 -20 -106 callgsubr
          -409 75 -104 callgsubr
        </CharString>
        <CharString name="Odieresis">
          -41 callgsubr
          52 330 -33 callgsubr
          -1049 981 hintmask 10100000
          689 -20 -106 callgsubr
          hintmask 01010000
          -483 198 -95 callgsubr
        </CharString>
        <CharString name="Ograve">
          -41 callgsubr
          73 372 -33 callgsubr
          -870 613 hintmask 10100000
          689 -20 -106 callgsubr
          278 73 -88 callsubr
        </CharString>
        <CharString name="Ohungarumlaut">
          -41 callgsubr
          31 471 -33 callgsubr
          -1012 1033 hintmask 10100000
          689 -20 -106 callgsubr
          hintmask 01010000
          -352 31 rmoveto
          -75 callsubr
          544 hmoveto
          -75 callsubr
          endchar
        </CharString>
        <CharString name="Omacron">
          -41 callgsubr
          124 292 -33 callgsubr
          -893 680 hintmask 10100000
          689 -20 -106 callgsubr
          hintmask 01010000
          265 124 -92 callsubr
        </CharString>
        <CharString name="Omega">
          -2 136 -132 134 1130 145 hstemhm
          162 126 804 135 hintmask 01111000
          747 -1 rmoveto
          2 62 149 1 72 hhcurveto
          -57 callgsubr
          59 vlineto
          -64 -6 -57 -3 -55 -2 rrcurveto
          194 224 121 208 275 vvcurveto
          343 -167 223 -276 -335 -287 -312 -461 vhcurveto
          hintmask 10111000
          -197 83 -176 82 -131 vhcurveto
          -1 -53 -42 1 -97 hhcurveto
          -16 -42 -54 -34 hvcurveto
          -59 vlineto
          169 5 -9 4 147 2 rrcurveto
          16 42 43 35 hvcurveto
          59 vlineto
          -63 97 -91 160 223 vvcurveto
          347 196 304 287 232 89 -204 -204 -306 -135 -236 -186 -211 vhcurveto
          -13 -18 -11 -22 -17 vvcurveto
          endchar
        </CharString>
        <CharString name="Oslash">
          84 -21 1430 -1429 1407 hstemhm
          38 1496 -1412 1332 hintmask 10100000
          1511 1256 rmoveto
          15 11 8 15 8 callgsubr
          -86 -81 -113 -96 rlinecurve
          90 -82 112 98 32 27 100 75 rlinecurve
          -1450 -1124 rmoveto
          -15 -11 -8 -15 -15 vvcurveto
          -20 11 -21 13 -15 vhcurveto
          48 -56 86 94 86 81 113 96 rlinecurve
          -90 82 -112 -98 -32 -27 -100 -75 rlinecurve
          hintmask 01010000
          628 -152 -62 callsubr
        </CharString>
        <CharString name="Otilde">
          -41 callgsubr
          51 313 -33 callgsubr
          -962 812 hintmask 10100000
          689 -20 -106 callgsubr
          hintmask 01010000
          150 51 -93 callgsubr
        </CharString>
        <CharString name="P">
          84 0 1376 hstem
          133 1366 vstem
          -64 callsubr
          endchar
        </CharString>
        <CharString name="Q">
          84 -452 307 -307 314 -293 -21 203 -21 234 1407 -33 callgsubr
          -1183 1044 hintmask 00000000
          hintmask 00110010
          271 -270 rmoveto
          -23 281 221 -159 195 hhcurveto
          150 98 89 188 99 hvcurveto
          hintmask 10000010
          -3 27 -8 24 -9 20 rrcurveto
          -25 -121 -109 -16 -107 hhcurveto
          hintmask 01000010
          -111 -109 7 -119 hhcurveto
          -93 -110 -6 -40 -115 hvcurveto
          hintmask 00110010
          -16 -22 -11 -37 -3 -27 rrcurveto
          hintmask 00001100
          418 234 -62 callsubr
        </CharString>
        <CharString name="R">
          84 -25 1401 hstem
          103 1360 vstem
          -99 callgsubr
          endchar
        </CharString>
        <CharString name="Racute">
          84 -25 1401 84 -7 callgsubr
          103 1360 -876 613 hintmask 10100000
          -99 callgsubr
          -800 1443 -100 callsubr
        </CharString>
        <CharString name="Rcaron">
          84 -25 1401 86 -5 callgsubr
          103 1360 -1044 934 hintmask 10100000
          -99 callgsubr
          -113 1805 -98 callgsubr
        </CharString>
        <CharString name="Rcommaaccent">
          84 -43 callsubr
          442 1401 hstemhm
          103 1360 -986 -8 callgsubr
          -99 callgsubr
          hintmask 00000000
          -941 -239 -101 callsubr
        </CharString>
        <CharString name="S">
          -20 1419 hstem
          4 callsubr
          vstem
          237 953 -107 callsubr
          endchar
        </CharString>
        <CharString name="Sacute">
          -20 1419 61 -7 callgsubr
          4 callsubr
          -734 613 hintmask 10100000
          237 953 -107 callsubr
          288 886 -100 callsubr
        </CharString>
        <CharString name="Scaron">
          9 callgsubr
          -902 934 hintmask 10100000
          237 953 -107 callsubr
          975 1248 -98 callgsubr
        </CharString>
        <CharString name="Scedilla">
          -34 callgsubr
          60 1419 hstemhm
          4 callsubr
          -921 -13 callgsubr
          430 -74 callsubr
          -117 -57 -12 -40 -82 hvcurveto
          hintmask 00011000
          -193 1085 -107 callsubr
          endchar
        </CharString>
        <CharString name="Scircumflex">
          9 callgsubr
          -895 934 hintmask 10100000
          237 953 -107 callsubr
          144 888 -104 callgsubr
        </CharString>
        <CharString name="Scommaaccent">
          -43 callsubr
          447 1419 hstemhm
          4 callsubr
          -881 -8 callgsubr
          237 953 -107 callsubr
          hintmask 00000000
          110 -796 -101 callsubr
        </CharString>
        <CharString name="T">
          84 -30 callgsubr
          -10 callgsubr
          -204 119 hintmask 00000000
          hintmask 11000000
          866 hmoveto
          -72 callsubr
          hintmask 10100000
          -93 callsubr
          endchar
        </CharString>
        <CharString name="Tbar">
          84 491 90 700 80 -10 callgsubr
          -1272 980 hintmask 10010000
          910 482 -70 callgsubr
          -262 18 -74 callgsubr
          hintmask 00000000
          180 -513 rmoveto
          -72 callsubr
          hintmask 01100000
          -93 callsubr
          endchar
        </CharString>
        <CharString name="Tcaron">
          84 -30 callgsubr
          101 360 -10 callgsubr
          -1102 934 -36 119 -18 callsubr
          866 hmoveto
          -72 callsubr
          hintmask 10001000
          -93 callsubr
          1206 1086 -98 callgsubr
        </CharString>
        <CharString name="Tcommaaccent">
          84 -43 callsubr
          1748 80 -10 callgsubr
          -1134 472 458 119 hintmask 00000000
          hintmask 00110000
          866 hmoveto
          -72 callsubr
          hintmask 00100100
          -93 callsubr
          hintmask 00000000
          288 -958 -101 callsubr
        </CharString>
        <CharString name="Thorn">
          -13 -63 callgsubr
          hstem
          72 1330 vstem
          708 247 rmoveto
          -6 30 31 -1 31 hhcurveto
          302 300 198 304 234 -172 168 -299 20 hvcurveto
          -33 -55 -51 -17 hvcurveto
          57 -104 25 -108 -107 vvcurveto
          -195 -84 -191 -133 -144 vhcurveto
          -171 -247 -37 callsubr
        </CharString>
        <CharString name="U">
          -16 callsubr
          hstem
          213 1260 vstem
          1268 335 rmoveto
          -114 -69 -125 -79 -124 hhcurveto
          -125 -112 46 195 226 90 445 66 307 hvcurveto
          -477 -42 callgsubr
          -17 hvcurveto
          -295 -92 -299 -242 vvcurveto
          -264 109 -215 468 298 144 170 185 36 vhcurveto
          -68 55 rmoveto
          33 51 49 18 3 hvcurveto
          51 275 56 270 79 359 rrcurveto
          -338 -42 callgsubr
          -17 hvcurveto
          122 -256 30 -277 -372 vvcurveto
          endchar
        </CharString>
        <CharString name="Uacute">
          -16 callsubr
          1318 372 -39 callsubr
          -760 613 hintmask 10100000
          1268 335 rmoveto
          -114 -69 -125 -79 -124 hhcurveto
          -125 -112 46 195 226 90 445 66 307 hvcurveto
          -477 -42 callgsubr
          -17 hvcurveto
          -295 -92 -299 -242 vvcurveto
          -264 109 -215 468 298 144 170 185 36 vhcurveto
          -68 55 rmoveto
          33 51 49 18 3 hvcurveto
          51 275 56 270 79 359 rrcurveto
          -338 -42 callgsubr
          -17 hvcurveto
          122 -256 30 -277 -372 vvcurveto
          -456 1070 -100 callsubr
        </CharString>
        <CharString name="Ubreve">
          -16 callsubr
          1308 429 -39 callsubr
          -844 809 hintmask 10100000
          1268 335 rmoveto
          -114 -69 -125 -79 -124 hhcurveto
          -125 -112 46 195 226 90 445 66 307 hvcurveto
          -477 -42 callgsubr
          -17 hvcurveto
          -295 -92 -299 -242 vvcurveto
          -264 109 -215 468 298 144 170 185 36 vhcurveto
          -68 55 rmoveto
          33 51 49 18 3 hvcurveto
          51 275 56 270 79 359 rrcurveto
          -338 -42 callgsubr
          -17 hvcurveto
          122 -256 30 -277 -372 vvcurveto
          198 1464 -90 callsubr
        </CharString>
        <CharString name="Ucircumflex">
          -16 callsubr
          1320 360 -39 callsubr
          -921 934 hintmask 10100000
          1268 335 rmoveto
          -114 -69 -125 -79 -124 hhcurveto
          -125 -112 46 195 226 90 445 66 307 hvcurveto
          -477 -42 callgsubr
          -17 hvcurveto
          -295 -92 -299 -242 vvcurveto
          -264 109 -215 468 298 144 170 185 36 vhcurveto
          -68 55 rmoveto
          33 51 49 18 3 hvcurveto
          51 275 56 270 79 359 rrcurveto
          -338 -42 callgsubr
          -17 hvcurveto
          122 -256 30 -277 -372 vvcurveto
          -600 1072 -104 callgsubr
        </CharString>
        <CharString name="Udieresis">
          -16 callsubr
          1297 330 -39 callsubr
          -947 981 hintmask 10100000
          1268 335 rmoveto
          -114 -69 -125 -79 -124 hhcurveto
          -125 -112 46 195 226 90 445 66 307 hvcurveto
          -477 -42 callgsubr
          -17 hvcurveto
          -295 -92 -299 -242 vvcurveto
          -264 109 -215 468 298 144 170 185 36 vhcurveto
          -68 55 rmoveto
          33 51 49 18 3 hvcurveto
          51 275 56 270 79 359 rrcurveto
          -338 -42 callgsubr
          -17 hvcurveto
          122 -256 30 -277 -372 vvcurveto
          hintmask 01010000
          -674 1195 -95 callgsubr
        </CharString>
        <CharString name="Ugrave">
          -16 callsubr
          1318 372 -39 callsubr
          -768 613 hintmask 10100000
          1268 335 rmoveto
          -114 -69 -125 -79 -124 hhcurveto
          -125 -112 46 195 226 90 445 66 307 hvcurveto
          -477 -42 callgsubr
          -17 hvcurveto
          -295 -92 -299 -242 vvcurveto
          -264 109 -215 468 298 144 170 185 36 vhcurveto
          -68 55 rmoveto
          33 51 49 18 3 hvcurveto
          51 275 56 270 79 359 rrcurveto
          -338 -42 callgsubr
          -17 hvcurveto
          122 -256 30 -277 -372 vvcurveto
          87 1070 -88 callsubr
        </CharString>
        <CharString name="Uhungarumlaut">
          -16 callsubr
          1276 471 -39 callsubr
          -910 1033 hintmask 10100000
          1268 335 rmoveto
          -114 -69 -125 -79 -124 hhcurveto
          -125 -112 46 195 226 90 445 66 307 hvcurveto
          -477 -42 callgsubr
          -17 hvcurveto
          -295 -92 -299 -242 vvcurveto
          -264 109 -215 468 298 144 170 185 36 vhcurveto
          -68 55 rmoveto
          33 51 49 18 3 hvcurveto
          51 275 56 270 79 359 rrcurveto
          -338 -42 callgsubr
          -17 hvcurveto
          122 -256 30 -277 -372 vvcurveto
          hintmask 01010000
          -543 1028 rmoveto
          -75 callsubr
          544 hmoveto
          -75 callsubr
          endchar
        </CharString>
        <CharString name="Umacron">
          -16 callsubr
          1369 292 -39 callsubr
          -791 680 hintmask 10100000
          1268 335 rmoveto
          -114 -69 -125 -79 -124 hhcurveto
          -125 -112 46 195 226 90 445 66 307 hvcurveto
          -477 -42 callgsubr
          -17 hvcurveto
          -295 -92 -299 -242 vvcurveto
          -264 109 -215 468 298 144 170 185 36 vhcurveto
          -68 55 rmoveto
          33 51 49 18 3 hvcurveto
          51 275 56 270 79 359 rrcurveto
          -338 -42 callgsubr
          -17 hvcurveto
          122 -256 30 -277 -372 vvcurveto
          hintmask 01010000
          74 1121 -92 callsubr
        </CharString>
        <CharString name="Uogonek">
          84 -546 221 305 162 -39 callsubr
          -968 262 hintmask 00000000
          hintmask 10010000
          1088 -454 rmoveto
          12 55 6 44 5 72 rrcurveto
          -28 -73 -67 -14 -57 hhcurveto
          -78 -69 36 91 97 111 96 84 74 hvcurveto
          -160 -23 rlineto
          -132 -88 -165 -148 -15 callgsubr
          180 789 rmoveto
          -114 -69 -125 -79 -124 hhcurveto
          -125 -112 46 195 226 90 445 66 307 hvcurveto
          -477 -42 callgsubr
          -17 hvcurveto
          -295 -92 -299 -242 vvcurveto
          -264 109 -215 468 298 144 170 185 36 vhcurveto
          -68 55 rmoveto
          33 51 49 18 3 hvcurveto
          51 275 56 270 79 359 rrcurveto
          -338 -42 callgsubr
          -17 hvcurveto
          122 -256 30 -277 -372 vvcurveto
          endchar
        </CharString>
        <CharString name="Uring">
          -16 callsubr
          1286 -23 callsubr
          -39 callsubr
          -722 -23 callgsubr
          hintmask 10010000
          1268 335 rmoveto
          -114 -69 -125 -79 -124 hhcurveto
          -125 -112 46 195 226 90 445 66 307 hvcurveto
          -477 -42 callgsubr
          -17 hvcurveto
          -295 -92 -299 -242 vvcurveto
          -264 109 -215 468 298 144 170 185 36 vhcurveto
          -68 55 rmoveto
          33 51 49 18 3 hvcurveto
          51 275 56 270 79 359 rrcurveto
          -338 -42 callgsubr
          -17 hvcurveto
          122 -256 30 -277 -372 vvcurveto
          hintmask 01101100
          -276 1265 -89 callgsubr
        </CharString>
        <CharString name="Utilde">
          -16 callsubr
          1296 313 -39 callsubr
          -860 812 hintmask 10100000
          1268 335 rmoveto
          -114 -69 -125 -79 -124 hhcurveto
          -125 -112 46 195 226 90 445 66 307 hvcurveto
          -477 -42 callgsubr
          -17 hvcurveto
          -295 -92 -299 -242 vvcurveto
          -264 109 -215 468 298 144 170 185 36 vhcurveto
          -68 55 rmoveto
          33 51 49 18 3 hvcurveto
          51 275 56 270 79 359 rrcurveto
          -338 -42 callgsubr
          -17 hvcurveto
          122 -256 30 -277 -372 vvcurveto
          hintmask 01010000
          -41 1048 -93 callgsubr
        </CharString>
        <CharString name="V">
          -63 callgsubr
          hstem
          129 1315 vstem
          217 1361 rmoveto
          -34 -32 callsubr
          93 -365 113 -551 63 -380 rrcurveto
          317 -28 callsubr
          54 125 47 109 65 127 rrcurveto
          -7 -11 -12 -4 -11 hhcurveto
          -125 -91 713 232 -26 hvcurveto
          347 -793 rmoveto
          121 252 185 376 98 165 rrcurveto
          -320 hlineto
          -33 -55 -58 callgsubr
          -40 3 -36 -38 vvcurveto
          -231 -26 -228 -60 -220 vhcurveto
          33 47 49 16 7 hvcurveto
          endchar
        </CharString>
        <CharString name="W">
          594 -63 callgsubr
          hstem
          3 callgsubr
          vstem
          -103 callgsubr
          endchar
        </CharString>
        <CharString name="Wacute">
          594 -50 callgsubr
          3 callgsubr
          -1217 613 hintmask 10100000
          -103 callgsubr
          232 99 -100 callsubr
        </CharString>
        <CharString name="Wcircumflex">
          594 -39 callgsubr
          3 callgsubr
          -1378 934 hintmask 10100000
          -103 callgsubr
          88 101 -104 callgsubr
        </CharString>
        <CharString name="Wdieresis">
          594 -18 callgsubr
          3 callgsubr
          -1404 981 hintmask 10100000
          -103 callgsubr
          hintmask 01010000
          14 224 -95 callgsubr
        </CharString>
        <CharString name="Wgrave">
          594 -50 callgsubr
          3 callgsubr
          -1225 613 hintmask 10100000
          -103 callgsubr
          775 99 -88 callsubr
        </CharString>
        <CharString name="X">
          -84 -63 callgsubr
          hstem
          -27 1481 vstem
          1167 21 callsubr
          -217 461 -118 327 -148 507 rrcurveto
          -512 hlineto
          -32 -56 -58 callgsubr
          201 -429 139 -373 144 -494 rrcurveto
          389 721 rmoveto
          34 47 51 17 6 hvcurveto
          77 192 119 186 127 194 rrcurveto
          -319 hlineto
          -33 -55 -58 callgsubr
          34 -92 20 -59 -96 vvcurveto
          -126 -29 -109 -28 -93 vhcurveto
          -660 -77 rmoveto
          -35 -47 -50 -16 -6 hvcurveto
          -77 -192 -118 -190 -128 -196 rrcurveto
          320 hlineto
          -14 callgsubr
          -35 92 -19 62 97 vvcurveto
          125 28 109 29 93 vhcurveto
          endchar
        </CharString>
        <CharString name="Y">
          -63 callgsubr
          hstem
          2 callsubr
          vstem
          -97 callsubr
          endchar
        </CharString>
        <CharString name="Yacute">
          -50 callgsubr
          2 callsubr
          -840 613 hintmask 10100000
          -97 callsubr
          -399 852 -100 callsubr
        </CharString>
        <CharString name="Ycircumflex">
          -39 callgsubr
          2 callsubr
          -1001 934 hintmask 10100000
          -97 callsubr
          -543 854 -104 callgsubr
        </CharString>
        <CharString name="Ydieresis">
          -18 callgsubr
          2 callsubr
          -1027 981 hintmask 10100000
          -97 callsubr
          hintmask 01010000
          -617 977 -95 callgsubr
        </CharString>
        <CharString name="Ygrave">
          -50 callgsubr
          2 callsubr
          -848 613 hintmask 10100000
          -97 callsubr
          144 852 -88 callsubr
        </CharString>
        <CharString name="Z">
          -63 callgsubr
          hstem
          57 1310 vstem
          -97 callgsubr
          endchar
        </CharString>
        <CharString name="Zacute">
          -50 callgsubr
          57 1310 -811 613 hintmask 10100000
          -97 callgsubr
          530 1394 -100 callsubr
        </CharString>
        <CharString name="Zcaron">
          -39 callgsubr
          57 1310 -979 934 hintmask 10100000
          -97 callgsubr
          1217 1756 -98 callgsubr
        </CharString>
        <CharString name="Zdotaccent">
          -5 callsubr
          57 1310 -723 2 callgsubr
          -97 callgsubr
          hintmask 01010000
          587 1569 -101 callgsubr
        </CharString>
        <CharString name="a">
          23 callsubr
          hstem
          123 1290 vstem
          1301 40 -102 callsubr
          endchar
        </CharString>
        <CharString name="aacute">
          23 callsubr
          126 460 -9 callsubr
          -850 615 hintmask 10100000
          1301 40 -102 callsubr
          hintmask 01010000
          -226 126 -81 callsubr
        </CharString>
        <CharString name="abreve">
          23 callsubr
          105 481 -9 callsubr
          -903 769 hintmask 10100000
          1301 40 -102 callsubr
          401 561 -80 callgsubr
          hintmask 01010000
          -55 callsubr
        </CharString>
        <CharString name="acircumflex">
          86 270 -11 97 195 endchar
        </CharString>
        <CharString name="acute">
          -19 callgsubr
          330 615 vstem
          379 1145 -81 callsubr
        </CharString>
        <CharString name="acute.case">
          -767 12 callsubr
          494 1460 rmoveto
          258 18 168 22 156 33 -7 83 -53 139 -46 77 -156 -73 -126 -68 -225 -141 9 -38 6 -19 16 -33 rrcurveto
          endchar
        </CharString>
        <CharString name="adieresis">
          23 callsubr
          116 350 -9 callsubr
          -1020 981 hintmask 10100000
          1301 40 -102 callsubr
          hintmask 01010000
          -445 272 -89 callsubr
        </CharString>
        <CharString name="ae">
          652 -18 162 804 71 hstem
          123 1905 vstem
          1568 1010 rmoveto
          7 -33 -30 2 -31 hhcurveto
          -86 -82 -13 -26 -73 hvcurveto
          20 -101 -82 5 -40 hhcurveto
          -32 -56 -50 -15 hvcurveto
          -1 -195 -90 -446 -150 vvcurveto
          -60 26 -57 25 -34 vhcurveto
          110 82 8 16 91 hvcurveto
          -27 73 85 -13 93 hhcurveto
          237 191 78 95 60 hvcurveto
          -7 -46 -48 -4 -41 hhcurveto
          -313 -157 144 224 182 100 202 169 114 hvcurveto
          -730 9 rmoveto
          -451 -264 -268 -322 -269 205 -160 301 33 54 50 18 hvcurveto
          -79 55 -41 191 139 vvcurveto
          225 77 219 165 122 vhcurveto
          892 -25 -44 callsubr
        </CharString>
        <CharString name="aeacute">
          652 630 0 241 26 callsubr
        </CharString>
        <CharString name="agrave">
          86 227 0 97 193 endchar
        </CharString>
        <CharString name="amacron">
          86 290 0 97 197 endchar
        </CharString>
        <CharString name="ampersand">
          84 -14 1388 hstem
          67 1391 vstem
          502 -14 rmoveto
          33 54 50 18 hvcurveto
          -152 62 -44 103 111 vvcurveto
          74 24 82 43 89 vhcurveto
          -158 -23 -235 -97 -212 vvcurveto
          -170 166 -87 269 vhcurveto
          956 83 rmoveto
          -210 230 -483 591 360 vvcurveto
          45 7 42 18 37 vhcurveto
          -267 -29 -171 -175 -198 vvcurveto
          -247 237 -195 224 -526 vhcurveto
          558 hlineto
          33 54 50 15 hvcurveto
          -356 703 rmoveto
          34 76 22 18 6 hvcurveto
          28 85 21 169 121 vvcurveto
          34 -1 29 -4 26 vhcurveto
          24 -53 -161 59 -110 hhcurveto
          -32 -53 -43 -24 -4 hvcurveto
          231 -176 22 -247 -97 vvcurveto
          endchar
        </CharString>
        <CharString name="aogonek">
          86 4 callgsubr
          320 1021 -9 callsubr
          -732 0 callgsubr
          1264 -67 callsubr
          hintmask 01100000
          37 494 -102 callsubr
          endchar
        </CharString>
        <CharString name="approxequal">
          286 133 -80 133 216 133 -80 133 hstemhm
          115 1095 -1037 1095 hintmask 00000000
          hintmask 00100100
          681 711 -54 callgsubr
          hintmask 00010100
          -44 callgsubr
          hintmask 00100100
          19 callgsubr
          hintmask 00000000
          -58 -402 -54 callgsubr
          hintmask 10001000
          -44 callgsubr
          hintmask 01001000
          19 callgsubr
          endchar
        </CharString>
        <CharString name="aring">
          23 callsubr
          81 -23 callsubr
          -9 callsubr
          -806 -23 callgsubr
          hintmask 10010000
          1301 40 -102 callsubr
          hintmask 01101100
          -58 308 -89 callgsubr
        </CharString>
        <CharString name="asciicircum">
          344 938 hstem
          212 854 vstem
          319 344 rmoveto
          -26 callgsubr
          113 259 86 186 110 228 73 -243 57 -206 77 -290 rrcurveto
          55 -28 callsubr
          -111 336 -40 128 -106 385 rrcurveto
          16 -13 -29 7 -32 hhcurveto
          -35 -38 -9 -16 -20 hvcurveto
          -165 -362 -91 -191 -174 -360 rrcurveto
          endchar
        </CharString>
        <CharString name="asciitilde">
          386 133 -80 133 hstemhm
          119 1095 -18 callsubr
          627 409 -54 callgsubr
          hintmask 01100000
          -44 callgsubr
          hintmask 10100000
          19 callgsubr
          endchar
        </CharString>
        <CharString name="asterisk">
          -362 473 877 hstem
          155 856 vstem
          617 983 rmoveto
          74 110 49 66 71 67 rrcurveto
          16 -38 67 -36 10 vhcurveto
          -113 30 rlineto
          1 -4 -4 0 -4 hhcurveto
          -37 -59 -30 -14 -3 hvcurveto
          27 -94 11 -81 10 -133 rrcurveto
          -51 -19 rmoveto
          -81 103 -48 69 -42 88 rrcurveto
          -2 -2 1 -3 hhcurveto
          -23 -1 -63 -14 -18 -29 -63 -98 rcurveline
          -7 -10 -3 -22 -19 vvcurveto
          -31 7 -31 9 -6 vhcurveto
          98 -3 80 -14 130 -32 rrcurveto
          2 -54 rmoveto
          -124 -46 -80 -24 -96 -12 rrcurveto
          -6 -4 -3 -25 -23 vvcurveto
          -26 4 -28 11 -13 vhcurveto
          74 -91 rlineto
          -21 17 46 -13 31 hhcurveto
          10 7 1 3 4 hvcurveto
          33 91 38 72 71 114 rrcurveto
          54 -14 rmoveto
          1 -36 1 -32 -30 vvcurveto
          -80 -5 -63 -13 -68 vhcurveto
          -15 5 53 -20 36 hhcurveto
          8 7 1 2 6 hvcurveto
          110 42 rlineto
          29 11 36 61 22 2 -1 2 2 vvcurveto
          -77 60 -57 59 -87 101 rrcurveto
          30 46 rmoveto
          127 -36 79 -27 86 -47 rrcurveto
          16 49 65 34 hvcurveto
          -7 118 -3 40 -57 47 -16 5 rlinecurve
          -80 -55 -73 -36 -125 -50 rrcurveto
          endchar
        </CharString>
        <CharString name="at">
          760 -308 108 200 162 1060 113 hstem
          153 117 1681 119 vstem
          1855 -49 rmoveto
          -73 -163 -279 -78 -250 hhcurveto
          -407 -486 90 524 530 447 278 449 534 251 -212 -379 -348 -137 -121 -133 -52 -13 37 44 169 74 302 42 234 hvcurveto
          29 callsubr
          -188 9 -57 hhcurveto
          -32 -56 -50 -15 hvcurveto
          -1 -195 -90 -456 -150 vvcurveto
          -109 117 -30 155 298 350 91 522 513 -333 209 -564 -555 -465 -350 -570 -545 443 -178 516 243 239 33 75 209 vhcurveto
          23 33 22 68 7 50 rrcurveto
          -698 1068 rmoveto
          -451 -264 -268 -322 -269 205 -160 301 33 54 50 18 hvcurveto
          -79 55 -41 191 139 vvcurveto
          225 77 219 165 122 vhcurveto
          endchar
        </CharString>
        <CharString name="atilde">
          86 285 0 97 196 endchar
        </CharString>
        <CharString name="b">
          84 -22 callsubr
          hstem
          125 1287 vstem
          625 -66 callgsubr
          94 -60 rmoveto
          454 239 228 -46 callsubr
          -259 -159 -100 vhcurveto
          endchar
        </CharString>
        <CharString name="backslash">
          -715 -219 1688 hstem
          -11 864 vstem
          765 -219 rmoveto
          35 53 42 16 hvcurveto
          -240 504 -318 699 -188 427 rrcurveto
          -30 -47 callgsubr
          240 -504 318 -699 188 -427 rrcurveto
          endchar
        </CharString>
        <CharString name="bar">
          13 callsubr
          342 -361 rmoveto
          48 437 121 889 80 504 rrcurveto
          -72 -47 callgsubr
          -48 -437 -121 -889 -80 25 callgsubr
          72 -52 callgsubr
          endchar
        </CharString>
        <CharString name="braceleft">
          -912 -183 78 733 104 668 83 hstemhm
          89 242 -196 240 hintmask 11101000
          217 976 rmoveto
          -194 -25 -21 -50 -114 hhcurveto
          -16 -104 rlineto
          70 24 -37 -63 -40 -10 -94 -7 -58 hvcurveto
          -16 -140 rlineto
          hintmask 11110000
          -7 -65 -6 -90 -41 vvcurveto
          -146 111 -37 209 vhcurveto
          11 78 rlineto
          -69 4 -20 72 73 vvcurveto
          36 3 78 5 36 vhcurveto
          16 117 rlineto
          hintmask 11101000
          7 52 13 98 39 vvcurveto
          95 -76 42 -91 29 vhcurveto
          143 28 93 82 18 166 21 192 rcurveline
          230 25 14 36 95 hhcurveto
          10 83 rlineto
          -253 -96 -26 -276 -35 hvcurveto
          endchar
        </CharString>
        <CharString name="braceright">
          -912 -168 83 668 104 733 78 hstemhm
          186 240 -196 242 hintmask 11110000
          344 339 rmoveto
          194 25 21 50 114 hhcurveto
          16 104 rlineto
          -70 -24 37 63 40 10 94 7 58 hvcurveto
          16 140 rlineto
          hintmask 11101000
          7 65 6 90 41 vvcurveto
          146 -111 37 -209 vhcurveto
          -11 -78 rlineto
          69 -4 20 -72 -73 vvcurveto
          -36 -3 -78 -5 -36 vhcurveto
          -16 -117 rlineto
          hintmask 11110000
          -7 -52 -13 -98 -39 vvcurveto
          -95 76 -42 91 -29 vhcurveto
          -143 -28 -93 -82 -18 -166 -21 -192 rcurveline
          -230 -25 -14 -36 -95 hhcurveto
          -10 -83 rlineto
          253 96 26 276 35 hvcurveto
          endchar
        </CharString>
        <CharString name="bracketleft">
          -912 -175 99 1495 74 hstem
          2 683 vstem
          2 -175 rmoveto
          426 hlineto
          15 99 -190 -22 162 832 72 681 183 -21 15 99 rlineto
          -425 hlineto
          endchar
        </CharString>
        <CharString name="bracketright">
          -912 -178 74 1495 99 hstem
          -132 683 vstem
          551 1490 rmoveto
          -426 hlineto
          -15 -99 190 22 -162 -832 -72 -681 -183 21 -15 -99 rlineto
          425 hlineto
          endchar
        </CharString>
        <CharString name="breve">
          -329 1124 481 hstem
          272 769 vstem
          1001 1580 -80 callgsubr
          -55 callsubr
        </CharString>
        <CharString name="breve.case">
          -767 1450 429 hstem
          -42 809 vstem
          727 1854 -84 callsubr
          -55 callsubr
        </CharString>
        <CharString name="brokenbar">
          13 callsubr
          309 435 rmoveto
          -46 -339 -41 -264 -40 -251 rrcurveto
          72 -52 callgsubr
          24 213 34 258 45 331 rrcurveto
          38 279 rmoveto
          40 290 34 244 34 215 rrcurveto
          -72 -47 callgsubr
          -20 -186 -26 -229 -38 -286 rrcurveto
          endchar
        </CharString>
        <CharString name="bullet">
          -607 369 445 hstem
          104 651 vstem
          104 567 rmoveto
          -112 108 -86 185 193 165 108 137 110 -108 90 -185 -152 -206 -86 -161 vhcurveto
          endchar
        </CharString>
        <CharString name="c">
          -79 -18 150 hstem
          15 callsubr
          vstem
          -85 callsubr
          endchar
        </CharString>
        <CharString name="cacute">
          -79 147 0 99 26 callsubr
        </CharString>
        <CharString name="caron">
          -19 callgsubr
          214 754 vstem
          910 1605 -61 callsubr
          -10 38 -19 36 -29 31 rrcurveto
          endchar
        </CharString>
        <CharString name="caron.case">
          6 callsubr
          761 1822 rmoveto
          -160 -22 -100 -16 -155 -27 -120 24 -112 19 -179 22 -23 -26 -25 -45 -12 -34 169 -119 64 -42 160 -94 rrcurveto
          102 hlineto
          174 89 114 65 151 101 -10 38 -13 31 -25 36 rrcurveto
          endchar
        </CharString>
        <CharString name="ccaron">
          -79 222 0 99 207 endchar
        </CharString>
        <CharString name="ccedilla">
          -79 -35 0 99 203 endchar
        </CharString>
        <CharString name="ccircumflex">
          -79 -18 150 1002 7 callsubr
          15 callsubr
          -895 754 hintmask 10100000
          -85 callsubr
          -414 118 -86 callsubr
          -33 callsubr
          29 callgsubr
        </CharString>
        <CharString name="cdotaccent">
          -79 -18 150 1003 -20 callgsubr
          15 callsubr
          -725 2 callgsubr
          -85 callsubr
          hintmask 01010000
          -302 275 -101 callgsubr
        </CharString>
        <CharString name="cedilla">
          -329 -34 callgsubr
          hstemhm
          449 -1 callsubr
          hintmask 10110000
          535 -132 rmoveto
          5 -23 14 -35 14 -18 rrcurveto
          1 15 20 2 21 hhcurveto
          hintmask 10101000
          56 65 -11 -58 -49 -46 -22 -64 -55 -68 16 30 -62 hvcurveto
          hintmask 01110000
          -1 -12 0 -13 -12 vvcurveto
          -24 1 -22 3 -18 vhcurveto
          hintmask 10101000
          -21 42 103 -46 149 hhcurveto
          193 83 81 127 124 -113 55 -119 hvcurveto
          hintmask 10110000
          -125 -50 -12 -40 -81 hvcurveto
          endchar
        </CharString>
        <CharString name="cedilla.case">
          -329 -34 callgsubr
          hstemhm
          449 -10 callsubr
          hintmask 10101000
          733 104 rmoveto
          -75 32 -44 -83 -44 -92 -35 -93 rlinecurve
          5 -23 14 -35 14 -18 rrcurveto
          1 15 20 2 21 hhcurveto
          56 65 -11 -58 -49 -46 -22 -64 -55 -68 16 30 -62 hvcurveto
          hintmask 01110000
          -1 -12 0 -13 -12 vvcurveto
          -24 1 -22 3 -18 vhcurveto
          hintmask 10110000
          -21 42 103 -46 149 hhcurveto
          193 83 81 127 124 -113 55 -119 -45 -46 -7 -15 -41 hvcurveto
          endchar
        </CharString>
        <CharString name="cent">
          -249 -21 252 150 hstem
          15 callsubr
          vstem
          713 -212 rmoveto
          4 50 6 67 9 77 223 3 148 37 112 133 rrcurveto
          -15 -65 -63 -8 -60 hhcurveto
          -225 -173 111 270 205 107 195 134 103 hvcurveto
          19 109 20 103 -13 callsubr
          -4 -49 -7 -74 -10 -89 rrcurveto
          1 -14 -13 1 -14 hhcurveto
          -330 -273 -232 -338 -293 219 -162 288 -20 hvcurveto
          -17 -107 -16 -89 -14 -59 rrcurveto
          32 -52 callgsubr
          326 1201 rmoveto
          -36 -67 -35 -30 -4 hvcurveto
          10 -62 3 -56 -56 vvcurveto
          -51 -3 -51 -4 -54 vhcurveto
          -13 34 41 -14 45 hhcurveto
          110 125 44 107 109 -93 129 -161 33 hvcurveto
          endchar
        </CharString>
        <CharString name="circumflex">
          -19 callgsubr
          214 754 vstem
          272 1145 -86 callsubr
          29 callgsubr
        </CharString>
        <CharString name="circumflex.case">
          6 callsubr
          -77 1462 rmoveto
          160 22 99 16 156 27 120 -25 112 -18 179 -22 23 26 25 45 12 34 -169 119 -64 42 -160 94 rrcurveto
          -102 hlineto
          -174 -89 -114 -65 -151 -101 10 -38 13 -31 25 -36 rrcurveto
          endchar
        </CharString>
        <CharString name="colon">
          -769 110 720 46 46 endchar
        </CharString>
        <CharString name="comma">
          -769 -278 -21 hstem
          21 505 vstem
          33 118 -45 callgsubr
        </CharString>
        <CharString name="commaaccent">
          -57 callsubr
        </CharString>
        <CharString name="commaaccent.case">
          -57 callsubr
        </CharString>
        <CharString name="copyright">
          8 callsubr
          208 312 730 -58 callsubr
          884 43 rmoveto
          20 43 28 12 3 hvcurveto
          19 80 21 160 2 42 -59 21 -64 14 -72 8 rrcurveto
          -18 -33 -26 -14 -2 hvcurveto
          80 -91 32 -97 28 -137 rrcurveto
          56 -151 rmoveto
          -19 -41 -16 -19 -19 hvcurveto
          -64 -111 -57 -81 -126 -90 rrcurveto
          135 109 28 39 44 hvcurveto
          16 73 15 103 7 74 rrcurveto
          -232 531 rmoveto
          1 -9 -6 0 -8 hhcurveto
          -323 -154 -244 -236 -205 149 -134 167 -30 hvcurveto
          20 33 30 11 hvcurveto
          -39 78 -18 111 99 vvcurveto
          202 67 213 121 104 vhcurveto
          endchar
        </CharString>
        <CharString name="currency">
          59 136 784 137 hstem
          165 137 794 138 vstem
          165 508 rmoveto
          -107 33 -96 58 -75 vhcurveto
          -59 -70 -60 -70 -68 -77 115 -53 rcurveline
          36 2 47 46 12 16 27 38 27 36 26 36 rrcurveto
          -48 72 89 -27 99 hhcurveto
          103 100 29 51 89 hvcurveto
          40 -63 37 -61 35 -57 rrcurveto
          72 -52 callgsubr
          -51 65 -52 70 -52 73 rrcurveto
          124 112 82 159 172 vvcurveto
          112 -37 100 -63 77 vhcurveto
          60 72 62 72 71 81 -115 53 rcurveline
          -36 -2 -47 -46 -12 -16 -89 -121 rcurveline
          43 -70 -84 24 -94 hhcurveto
          -112 -107 -35 -58 -92 hvcurveto
          -38 62 -31 59 -36 61 rrcurveto
          -72 -47 callgsubr
          48 -67 49 -71 54 -77 rrcurveto
          -116 -115 -74 -155 -154 vvcurveto
          594 471 rmoveto
          196 141 -143 -188 -244 -221 -209 -236 -197 -140 143 189 242 223 210 234 hvcurveto
          endchar
        </CharString>
        <CharString name="d">
          86 -22 callsubr
          hstem
          16 callsubr
          vstem
          834 1019 -88 callgsubr
          endchar
        </CharString>
        <CharString name="dagger">
          -378 -398 -21 1261 132 hstem
          109 950 -56 callgsubr
          -56 -427 -71 -498 -52 -332 rrcurveto
          72 -52 callgsubr
          31 286 62 477 62 438 14 callgsubr
        </CharString>
        <CharString name="daggerdbl">
          -378 -398 -21 613 132 516 132 hstem
          20 1039 -56 callgsubr
          -22 -164 -23 -175 -24 -172 rrcurveto
          -1 -98 -108 0 -147 24 callsubr
          -42 -52 -35 vvcurveto
          -59 vlineto
          170 5 115 4 106 2 -32 -225 -31 -214 -27 -170 rrcurveto
          72 -52 callgsubr
          16 145 23 195 28 213 rrcurveto
          1 100 108 1 156 hhcurveto
          -57 callgsubr
          59 vlineto
          -173 -6 -119 -4 -112 -2 23 168 23 174 24 169 14 callgsubr
        </CharString>
        <CharString name="dcaron">
          167 -22 callsubr
          -452 449 hstemhm
          16 callsubr
          -10 288 hintmask 01010000
          1472 932 -45 callsubr
          hintmask 10100000
          -638 87 -88 callgsubr
          endchar
        </CharString>
        <CharString name="dcroat">
          86 -22 callsubr
          -227 90 hstemhm
          16 callsubr
          -709 842 hintmask 01010000
          1279 1148 -79 callsubr
          hintmask 10100000
          -359 -140 -88 callgsubr
          endchar
        </CharString>
        <CharString name="degree">
          -715 912 120 349 120 hstem
          112 132 312 132 vstem
          112 1161 rmoveto
          -142 95 -107 148 187 146 129 210 142 -95 108 -147 -196 -138 -142 -198 vhcurveto
          132 20 rmoveto
          120 78 80 104 82 48 -61 -89 -127 -82 -72 -99 -83 -48 60 89 vhcurveto
          endchar
        </CharString>
        <CharString name="dieresis">
          -329 1135 350 hstem
          115 981 vstem
          115 1291 -89 callsubr
        </CharString>
        <CharString name="dieresis.case">
          -767 1439 330 hstem
          -148 981 vstem
          -148 1585 -95 callgsubr
        </CharString>
        <CharString name="divide">
          25 228 187 137 154 228 hstemhm
          207 950 -692 333 -223 333 hintmask 00100100
          575 833 -14 callsubr
          hintmask 01010000
          524 -393 -94 callgsubr
          hintmask 10001000
          -634 -313 -14 callsubr
          endchar
        </CharString>
        <CharString name="dollar">
          -317 -21 27 -21 1675 56 -40 28 hstemhm
          698 71 hintmask 01011000
          227 953 rmoveto
          1 -163 127 -142 123 -135 rrcurveto
          133 -145 132 -152 -133 vvcurveto
          -37 -11 -32 -21 -30 vhcurveto
          -26 -159 -15 -70 -21 -87 rrcurveto
          32 -52 callgsubr
          7 82 5 44 17 141 rrcurveto
          262 43 147 177 174 vvcurveto
          159 -170 173 -158 152 vhcurveto
          -98 94 -90 132 145 vvcurveto
          hintmask 10101000
          55 26 57 53 45 vhcurveto
          19 109 20 103 -13 callsubr
          -5 -53 -8 -81 -11 -97 rrcurveto
          -254 -38 -193 -178 -223 vvcurveto
          37 -379 rmoveto
          -35 -48 -47 -18 -5 hvcurveto
          -30 -114 -16 -125 -131 vvcurveto
          -19 0 -22 1 -22 vhcurveto
          74 -49 167 -32 127 -11 2 -2 rcurveline
          -26 -159 -15 -74 -21 -87 rrcurveto
          32 -52 callgsubr
          7 83 4 29 17 148 17 16 16 50 4 25 -137 37 -176 240 -47 226 rrcurveto
          839 221 rmoveto
          30 66 19 21 8 hvcurveto
          26 86 22 171 121 vvcurveto
          34 -1 31 -4 24 vhcurveto
          -43 20 -113 43 -100 16 19 109 27 137 -13 callsubr
          -5 -57 -9 -91 -13 -110 -28 -13 -34 -31 -2 -18 rrcurveto
          230 -178 35 -248 -98 vvcurveto
          endchar
        </CharString>
        <CharString name="dotaccent">
          -329 1135 350 hstem
          402 447 vstem
          402 1291 -101 callgsubr
        </CharString>
        <CharString name="dotaccent.case">
          -767 1479 350 hstem
          149 447 vstem
          149 1635 -101 callgsubr
        </CharString>
        <CharString name="dotlessi">
          16 callgsubr
          hstem
          97 640 vstem
          -64 callgsubr
          endchar
        </CharString>
        <CharString name="dotlessj">
          -599 -400 -21 hstem
          27 709 vstem
          -41 callsubr
          endchar
        </CharString>
        <CharString name="e">
          -18 162 hstem
          -17 callgsubr
          vstem
          1013 994 -103 callsubr
          endchar
        </CharString>
        <CharString name="eacute">
          7 callgsubr
          -820 615 hintmask 10100000
          1013 994 -103 callsubr
          hintmask 01010000
          -332 135 -81 callsubr
        </CharString>
        <CharString name="ebreve">
          145 0 101 198 endchar
        </CharString>
        <CharString name="ecaron">
          7 callgsubr
          -861 754 hintmask 10100000
          1013 994 -103 callsubr
          274 595 -61 callsubr
          -33 callsubr
          -10 38 -19 36 -29 31 rrcurveto
          endchar
        </CharString>
        <CharString name="ecircumflex">
          177 -11 101 195 endchar
        </CharString>
        <CharString name="edieresis">
          6 callgsubr
          -990 981 hintmask 10100000
          1013 994 -103 callsubr
          hintmask 01010000
          -551 281 -89 callsubr
        </CharString>
        <CharString name="edotaccent">
          6 callgsubr
          -729 2 callgsubr
          1013 994 -103 callsubr
          hintmask 01010000
          -290 281 -101 callgsubr
        </CharString>
        <CharString name="egrave">
          134 0 101 193 endchar
        </CharString>
        <CharString name="eight">
          -20 1393 hstem
          75 1183 vstem
          799 1368 rmoveto
          3 -28 -21 2 -32 hhcurveto
          -262 -260 -159 -277 -145 86 -96 97 -75 hvcurveto
          -196 -34 -108 -135 -139 vvcurveto
          -212 197 -84 177 -13 vhcurveto
          28 57 40 27 2 hvcurveto
          -83 57 -22 85 95 vvcurveto
          75 11 82 54 81 vhcurveto
          155 -91 160 -69 -132 vvcurveto
          -117 -99 -94 -136 -57 vhcurveto
          -5 30 21 -1 31 hhcurveto
          276 324 120 314 189 -140 97 -144 77 hvcurveto
          172 37 108 129 125 vvcurveto
          178 -176 93 -154 11 vhcurveto
          -34 -54 -50 -17 hvcurveto
          83 -57 22 -86 -94 vvcurveto
          -81 -12 -61 -65 -70 vhcurveto
          -136 67 -119 69 128 vvcurveto
          122 102 86 88 62 vhcurveto
          endchar
        </CharString>
        <CharString name="ellipsis">
          595 -31 334 hstemhm
          33 489 193 489 193 489 hintmask 11000000
          33 118 rmoveto
          -67 callgsubr
          hintmask 10100000
          682 hmoveto
          -67 callgsubr
          hintmask 10010000
          682 hmoveto
          -67 callgsubr
          endchar
        </CharString>
        <CharString name="emacron">
          -18 162 1073 292 hstemhm
          -17 callgsubr
          -835 680 hintmask 10100000
          1013 994 -103 callsubr
          hintmask 01010000
          196 207 -92 callsubr
        </CharString>
        <CharString name="emdash">
          618 442 142 hstem
          117 1801 vstem
          1860 442 -55 callgsubr
          69 vlineto
          -14 -390 -964 -1 -389 24 callsubr
          -42 -52 -35 vvcurveto
          -69 -28 callgsubr
          945 2 393 hhcurveto
          endchar
        </CharString>
        <CharString name="endash">
          -210 442 142 hstem
          142 901 vstem
          1014 442 rmoveto
          8 21 53 35 hvcurveto
          69 vlineto
          -14 -195 -482 -1 -195 hhcurveto
          -8 -1 -21 -52 -35 vvcurveto
          -69 vlineto
          13 203 472 2 197 hhcurveto
          endchar
        </CharString>
        <CharString name="eng">
          84 -400 -21 hstem
          95 1277 vstem
          -68 callsubr
          1169 1 rmoveto
          16 123 92 500 144 vvcurveto
          180 -92 74 -174 -93 -123 -24 -24 -48 vhcurveto
          -18 -22 -11 -36 -5 -32 rrcurveto
          52 47 -28 -65 -297 -121 -682 -69 -233 hvcurveto
          352 161 119 303 34 hvcurveto
          endchar
        </CharString>
        <CharString name="eogonek">
          4 callgsubr
          304 162 hstemhm
          -17 callgsubr
          -774 0 callgsubr
          1099 -60 callgsubr
          -78 -69 21 91 70 125 135 133 49 hvcurveto
          -194 -10 rlineto
          -165 -73 -162 -151 -15 callgsubr
          -86 1448 -103 callsubr
          endchar
        </CharString>
        <CharString name="equal">
          247 137 323 137 hstemhm
          187 950 -909 950 hintmask 10100000
          1079 247 -94 callgsubr
          hintmask 01010000
          41 460 -94 callgsubr
          endchar
        </CharString>
        <CharString name="eth">
          -39 -25 1525 hstem
          828 12 vstem
          620 -25 rmoveto
          461 212 263 364 267 -132 252 -177 169 hvcurveto
          38 14 37 13 50 16 rrcurveto
          -57 callgsubr
          -20 62 -82 -47 -76 -41 -78 -41 rlinecurve
          -96 76 -105 51 -101 19 rrcurveto
          -33 -27 -50 -17 -1 hvcurveto
          59 -47 49 -57 41 -64 -42 -17 -41 -13 -55 -18 rrcurveto
          -16 -42 -53 -35 hvcurveto
          20 -62 76 43 71 39 72 38 rlinecurve
          71 -148 34 -180 -203 vvcurveto
          -252 -67 -254 -158 -175 vhcurveto
          113 948 rmoveto
          9 -32 -60 3 -43 hhcurveto
          -263 -253 -181 -320 -189 117 -217 317 -28 hvcurveto
          33 54 50 18 hvcurveto
          -72 87 -47 119 121 vvcurveto
          269 80 164 169 95 vhcurveto
          endchar
        </CharString>
        <CharString name="exclam">
          -595 -20 1383 hstem
          129 668 vstem
          486 417 rmoveto
          33 1 54 47 18 vvcurveto
          62 289 76 284 86 307 -409 -15 rcurveline
          -31 -1 -56 -48 -16 vvcurveto
          -4 -41 -1 -40 -41 vvcurveto
          -374 -11 -217 -22 -164 vhcurveto
          -134 -277 rmoveto
          -84 82 -65 139 145 124 80 103 84 -81 66 -138 -115 -156 -63 -121 vhcurveto
          endchar
        </CharString>
        <CharString name="exclamdown">
          -595 -360 1383 hstem
          29 668 vstem
          340 586 rmoveto
          -33 -1 -54 -47 -18 vvcurveto
          -62 -289 -76 -284 -86 -307 409 15 rcurveline
          31 1 56 48 16 vvcurveto
          4 41 1 40 41 vvcurveto
          374 11 217 22 164 vhcurveto
          134 277 rmoveto
          84 -82 65 -139 -145 -124 -80 -103 -84 81 -66 138 115 156 63 121 vhcurveto
          endchar
        </CharString>
        <CharString name="f">
          -426 1230 164 hstem
          95 1037 vstem
          785 661 -100 callgsubr
          endchar
        </CharString>
        <CharString name="ff">
          599 1230 19 callsubr
          -12 1037 hintmask 11000000
          785 661 -100 callgsubr
          hintmask 10100000
          1069 -371 -100 callgsubr
          endchar
        </CharString>
        <CharString name="fi">
          426 1128 218 -116 19 callsubr
          -10 698 hintmask 01100000
          785 661 -100 callgsubr
          hintmask 10010000
          801 -1032 rmoveto
          -87 callgsubr
          584 1128 -73 callsubr
          endchar
        </CharString>
        <CharString name="five">
          1268 80 hstem
          102 1144 vstem
          226 488 rmoveto
          -26 -12 -29 -17 -17 -16 -23 -130 -18 -135 -11 -92 99 -42 100 -28 120 -14 rrcurveto
          30 54 44 23 4 hvcurveto
          -113 75 -100 164 -70 180 rrcurveto
          239 860 rmoveto
          -28 -49 -56 -21 -9 hvcurveto
          -60 -138 -67 -232 -58 -221 rrcurveto
          2 30 30 1 28 hhcurveto
          331 158 -130 -172 -121 -77 -141 -146 -133 hvcurveto
          -5 29 31 -1 32 hhcurveto
          276 316 149 294 281 -271 71 -260 -30 -30 -1 -3 -33 hvcurveto
          11 197 45 215 84 165 rrcurveto
          343 -452 rmoveto
          33 47 45 21 7 hvcurveto
          37 122 26 151 5 113 rrcurveto
          -396 hlineto
          -13 -21 -12 -29 -5 -30 161 -85 58 -85 52 -202 rrcurveto
          endchar
        </CharString>
        <CharString name="fl">
          426 -22 callsubr
          -154 19 callsubr
          -5 689 hintmask 01100000
          785 661 -100 callgsubr
          hintmask 10010000
          886 -964 -83 callsubr
        </CharString>
        <CharString name="florin">
          -400 -21 1651 164 hstem
          140 1115 vstem
          1168 1230 rmoveto
          28 29 -1 -2 30 hvcurveto
          -2 37 -5 37 -7 27 rrcurveto
          23 -48 -123 43 -169 hhcurveto
          -347 -157 -167 -297 -42 hvcurveto
          -56 -388 -54 -605 -105 -358 rrcurveto
          352 141 122 300 54 hvcurveto
          59 326 24 327 71 302 rrcurveto
          188 44 85 86 198 hhcurveto
          -260 -569 rmoveto
          98 46 71 22 96 28 rrcurveto
          23 -9 60 -13 20 vhcurveto
          -66 12 -72 20 -60 27 -22 -69 -18 -30 callsubr
          endchar
        </CharString>
        <CharString name="four">
          -87 224 165 hstem
          57 1236 vstem
          1293 389 rmoveto
          -193 hlineto
          38 313 53 334 75 312 rrcurveto
          -443 hlineto
          -31 -56 -58 callgsubr
          -33 -401 -64 -458 -99 -420 rrcurveto
          443 hlineto
          33 54 50 15 hvcurveto
          4 51 4 51 6 53 rrcurveto
          171 hlineto
          11 26 26 106 1 33 rrcurveto
          -801 -165 rmoveto
          10 26 50 106 33 vvcurveto
          -291 hlineto
          124 183 156 290 112 340 -125 -212 -347 -476 -124 -130 8 -40 21 -81 17 -39 rrcurveto
          endchar
        </CharString>
        <CharString name="fraction">
          -469 -53 1453 hstem
          -180 1356 vstem
          30 5 -72 callgsubr
          endchar
        </CharString>
        <CharString name="g">
          0 callsubr
          22 callsubr
          hintmask 00000000
          hintmask 10110000
          -68 callgsubr
          hintmask 01010000
          -20 callsubr
          hintmask 10110000
          -81 callgsubr
          endchar
        </CharString>
        <CharString name="gbreve">
          0 callsubr
          1559 481 22 callsubr
          -931 769 hintmask 00000000
          hintmask 10101000
          -68 callgsubr
          hintmask 01001000
          -20 callsubr
          hintmask 10101000
          -81 callgsubr
          793 2015 -80 callgsubr
          hintmask 00010100
          -55 callsubr
        </CharString>
        <CharString name="gcircumflex">
          85 240 -11 103 195 endchar
        </CharString>
        <CharString name="gcommaaccent">
          0 callsubr
          1923 21 -18 21 22 callsubr
          -706 472 hintmask 00000000
          hintmask 10100100
          -68 callgsubr
          hintmask 01000100
          -20 callsubr
          hintmask 10100100
          -81 callgsubr
          hintmask 00000000
          761 1699 rmoveto
          87 -154 -9 63 vvcurveto
          25 7 28 21 51 vhcurveto
          hintmask 00010010
          2 -26 -32 1 -30 hhcurveto
          -39 -36 -1 -6 -15 hvcurveto
          -23 -9 -145 -115 -137 vvcurveto
          -80 69 -58 146 vhcurveto
          hintmask 00001010
          118 139 64 94 hvcurveto
          endchar
        </CharString>
        <CharString name="gdotaccent">
          85 222 0 103 199 endchar
        </CharString>
        <CharString name="germandbls">
          266 -6 237 941 222 hstemhm
          45 1608 -866 282 hintmask 01100000
          1315 1169 rmoveto
          -2 37 -5 37 -7 27 rrcurveto
          62 -129 -163 62 -198 hhcurveto
          -348 -156 -168 -300 -42 hvcurveto
          -4 -24 -3 -27 -4 -30 -72 -30 -60 -19 -77 -22 rrcurveto
          -23 9 -60 13 -20 vhcurveto
          52 -10 56 -14 51 -19 -29 -221 -35 -262 -34 -145 rrcurveto
          420 hlineto
          -46 callgsubr
          601 61 -186 505 686 hhcurveto
          61 29 -1 -2 29 hvcurveto
          -115 vmoveto
          -324 -5 -182 -106 -215 -271 389 -129 -230 -3 callsubr
          hvcurveto
          238 -395 144 279 vvcurveto
          42 22 39 35 33 vhcurveto
          hintmask 10010000
          -528 -954 -35 callsubr
          endchar
        </CharString>
        <CharString name="grave">
          -19 callgsubr
          360 615 vstem
          926 1145 -43 callgsubr
          -21 callsubr
        </CharString>
        <CharString name="grave.case">
          -182 12 callsubr
          1045 1460 rmoveto
          16 33 6 19 9 38 -225 141 -126 68 -156 73 -46 -77 -53 -139 -7 -83 156 -33 168 -22 258 -18 rrcurveto
          endchar
        </CharString>
        <CharString name="greater">
          27 callsubr
          224 86 -54 callsubr
          endchar
        </CharString>
        <CharString name="greaterequal">
          11 137 79 954 hstemhm
          150 950 -867 917 hintmask 01010000
          233 227 -54 callsubr
          hintmask 10100000
          809 -323 -94 callgsubr
          endchar
        </CharString>
        <CharString name="guillemotleft">
          -107 -24 994 hstemhm
          94 677 -147 677 hintmask 11000000
          771 970 -69 callsubr
          hintmask 10100000
          530 127 -69 callsubr
          endchar
        </CharString>
        <CharString name="guillemotright">
          -107 -24 994 hstemhm
          54 677 -177 677 hintmask 11000000
          54 -24 -69 callgsubr
          hintmask 10100000
          500 -127 -69 callgsubr
          endchar
        </CharString>
        <CharString name="guilsinglleft">
          -607 -24 994 hstem
          94 677 vstem
          771 970 -69 callsubr
          endchar
        </CharString>
        <CharString name="guilsinglright">
          -607 -24 994 hstem
          54 677 vstem
          54 -24 -69 callgsubr
          endchar
        </CharString>
        <CharString name="h">
          84 -10 1394 hstem
          101 1278 vstem
          812 135 -94 callsubr
          -211 -67 -83 callsubr
        </CharString>
        <CharString name="hbar">
          84 -10 1394 -259 90 hstemhm
          53 914 -866 1278 hintmask 01100000
          631 1116 -70 callgsubr
          -196 5 -74 callgsubr
          hintmask 10010000
          339 -999 -94 callsubr
          -211 -67 -83 callsubr
        </CharString>
        <CharString name="hcircumflex">
          84 -10 1394 78 -5 callgsubr
          101 1278 -1225 934 hintmask 10100000
          812 135 -94 callsubr
          -211 -67 -98 callsubr
          -399 1394 -104 callgsubr
        </CharString>
        <CharString name="hungarumlaut">
          -329 1144 505 hstem
          104 1044 vstem
          198 1144 rmoveto
          -61 callgsubr
          544 hmoveto
          -61 callgsubr
          endchar
        </CharString>
        <CharString name="hungarumlaut.case">
          -767 1418 471 hstem
          -140 1033 vstem
          -46 1418 rmoveto
          -75 callsubr
          544 hmoveto
          -75 callsubr
          endchar
        </CharString>
        <CharString name="hyphen">
          447 137 1 callsubr
          1099 447 -94 callgsubr
          endchar
        </CharString>
        <CharString name="i">
          -599 1128 218 hstem
          97 698 vstem
          -64 callgsubr
          584 1128 -73 callsubr
          endchar
        </CharString>
        <CharString name="iacute">
          -599 -130 0 245 26 callsubr
        </CharString>
        <CharString name="ibreve">
          16 callgsubr
          131 481 hstemhm
          97 640 -590 769 hintmask 10100000
          -64 callgsubr
          779 1580 -80 callgsubr
          hintmask 01010000
          -55 callsubr
        </CharString>
        <CharString name="icircumflex">
          16 callgsubr
          141 7 callsubr
          97 640 -616 754 hintmask 10100000
          -64 callgsubr
          82 1134 -86 callsubr
          -33 callsubr
          29 callgsubr
        </CharString>
        <CharString name="idieresis">
          -599 -85 0 245 200 endchar
        </CharString>
        <CharString name="igrave">
          16 callgsubr
          152 7 callsubr
          97 640 -513 615 hintmask 10100000
          -64 callgsubr
          693 1145 -43 callgsubr
          -33 callsubr
          -21 callsubr
        </CharString>
        <CharString name="ij">
          253 -400 -21 1549 218 hstemhm
          97 698 84 776 hintmask 01100000
          -64 callgsubr
          584 1128 -73 callsubr
          hintmask 11010000
          906 -135 -65 callsubr
          -47 135 -73 callsubr
          endchar
        </CharString>
        <CharString name="imacron">
          -599 -73 0 245 197 endchar
        </CharString>
        <CharString name="infinity">
          79 773 hstem
          50 1209 vstem
          1004 852 rmoveto
          -171 -99 -130 -152 -80 hvcurveto
          172 -97 -55 48 -128 hhcurveto
          -163 -161 -156 -225 -156 74 -128 164 129 109 105 123 84 hvcurveto
          -196 115 59 -78 140 hhcurveto
          198 137 189 266 174 -82 144 -173 hvcurveto
          -69 -626 rmoveto
          -68 -53 58 207 -116 hvcurveto
          125 81 74 96 120 hhcurveto
          124 39 -117 -98 -163 -95 -108 -106 hvcurveto
          -585 427 rmoveto
          82 36 -56 -168 98 hvcurveto
          -91 -79 -80 -64 -89 hhcurveto
          -112 -39 67 91 102 59 119 124 hvcurveto
          endchar
        </CharString>
        <CharString name="integral">
          -229 -21 hstem
          216 872 vstem
          802 1168 rmoveto
          87 13 34 26 39 hhcurveto
          27 36 -18 -31 49 hvcurveto
          35 53 42 16 hvcurveto
          74 -56 -89 46 -76 hhcurveto
          -97 -75 -47 -151 -17 hvcurveto
          -49 -437 -52 -434 -75 -478 rrcurveto
          -87 -14 -33 -26 -39 hhcurveto
          -27 -36 18 31 -49 hvcurveto
          -35 -53 -42 -16 hvcurveto
          -74 56 89 -46 76 hhcurveto
          97 72 42 150 18 hvcurveto
          61 512 53 410 64 433 rrcurveto
          endchar
        </CharString>
        <CharString name="iogonek">
          -599 4 callgsubr
          1450 218 hstemhm
          -14 607 -496 698 -18 callsubr
          569 -67 callsubr
          hintmask 01010000
          -52 454 rmoveto
          -87 callgsubr
          584 1128 -73 callsubr
          endchar
        </CharString>
        <CharString name="itilde">
          -599 -78 0 245 196 endchar
        </CharString>
        <CharString name="j">
          -599 -400 -21 1549 218 hstem
          27 776 vstem
          -41 callsubr
          -47 135 -73 callsubr
          endchar
        </CharString>
        <CharString name="jcircumflex">
          -599 -400 -21 1555 7 callsubr
          27 709 -614 754 hintmask 10100000
          -41 callsubr
          -556 141 -86 callsubr
          -33 callsubr
          29 callgsubr
        </CharString>
        <CharString name="k">
          84 -15 1399 hstem
          138 1283 vstem
          -85 callgsubr
          -412 83 -83 callsubr
        </CharString>
        <CharString name="kcommaaccent">
          84 -43 callsubr
          452 1399 hstemhm
          138 1283 -947 -8 callgsubr
          -85 callgsubr
          -412 83 -98 callsubr
          hintmask 00000000
          -164 -290 -101 callsubr
        </CharString>
        <CharString name="kgreenlandic">
          84 -15 1042 hstem
          134 1287 vstem
          -85 callgsubr
          -496 15 rmoveto
          -46 callgsubr
          25 303 28 329 62 -7 callsubr
          -107 -235 -19 -10 -59 hvcurveto
          -32 -6 -55 -44 -15 vvcurveto
          -25 -302 -33 -302 -76 -321 rrcurveto
          endchar
        </CharString>
        <CharString name="l">
          -599 -22 callsubr
          hstem
          102 689 vstem
          -59 callgsubr
          endchar
        </CharString>
        <CharString name="lacute">
          -599 -22 callsubr
          112 -7 callgsubr
          102 689 -523 613 hintmask 10100000
          -59 callgsubr
          -303 1428 -100 callsubr
        </CharString>
        <CharString name="lcaron">
          -524 -22 callsubr
          hstem
          102 967 vstem
          781 932 -45 callsubr
          -179 -864 -83 callsubr
        </CharString>
        <CharString name="lcommaaccent">
          -599 10 callgsubr
          1384 hstemhm
          67 472 -437 689 hintmask 00101000
          -59 callgsubr
          hintmask 00000000
          -535 -290 -47 callsubr
        </CharString>
        <CharString name="ldot">
          -225 -22 callsubr
          -1029 -20 callgsubr
          102 689 -16 2 callgsubr
          -59 callgsubr
          hintmask 01010000
          173 443 -101 callgsubr
        </CharString>
        <CharString name="less">
          27 callsubr
          1141 1040 -53 callgsubr
          endchar
        </CharString>
        <CharString name="lessequal">
          11 137 79 954 hstemhm
          162 950 -870 917 hintmask 01010000
          1159 1181 -53 callgsubr
          hintmask 10100000
          -105 -1063 -94 callgsubr
          endchar
        </CharString>
        <CharString name="logicalnot">
          442 142 1 callsubr
          1112 268 rmoveto
          10 99 18 140 17 92 rrcurveto
          -14 -390 -113 -1 -389 24 callsubr
          -42 -52 -35 vvcurveto
          -69 vlineto
          369 12 100 2 311 1 -7 -74 -13 -86 -15 -72 rrcurveto
          72 -52 callgsubr
          endchar
        </CharString>
        <CharString name="lozenge">
          656 51 hstem
          227 971 vstem
          227 691 rmoveto
          122 -241 94 -218 119 -285 rrcurveto
          93 hlineto
          35 44 44 15 10 hvcurveto
          157 239 179 255 118 156 -135 292 -75 191 -109 283 rrcurveto
          -93 hlineto
          -35 -42 -41 -18 -12 hvcurveto
          -148 -222 -111 -163 -211 -287 rrcurveto
          557 598 rmoveto
          117 -257 57 -139 82 -213 -102 -168 -111 -178 -174 -255 -120 243 -62 145 -88 221 131 210 96 145 174 246 rrcurveto
          endchar
        </CharString>
        <CharString name="lslash">
          -599 -22 callsubr
          -848 298 hstemhm
          -4 880 -774 689 hintmask 01100000
          540 647 rmoveto
          120 29 86 17 74 13 rrcurveto
          16 3 40 51 33 vvcurveto
          41 vlineto
          -91 -37 -100 -27 -109 -24 rrcurveto
          -162 -22 rmoveto
          -154 -36 -97 -17 -109 -15 rrcurveto
          -16 -2 -42 -51 -35 vvcurveto
          -32 vlineto
          130 44 134 30 156 28 rrcurveto
          hintmask 10010000
          186 -570 -83 callsubr
        </CharString>
        <CharString name="m">
          764 -2 1021 hstem
          115 1922 vstem
          -82 callsubr
          endchar
        </CharString>
        <CharString name="macron">
          -329 1217 292 hstem
          258 680 vstem
          850 1217 -92 callsubr
        </CharString>
        <CharString name="macron.case">
          -767 1511 292 hstem
          12 680 vstem
          604 1511 -92 callsubr
        </CharString>
        <CharString name="minus">
          447 137 1 callsubr
          1099 447 -94 callgsubr
          endchar
        </CharString>
        <CharString name="mu">
          -398 -21 411 132 hstem
          337 158 443 141 vstem
          938 157 rmoveto
          -73 53 -56 37 -26 vhcurveto
          34 4 rlineto
          33 14 49 58 17 vvcurveto
          -48 38 -17 52 90 vvcurveto
          107 45 296 75 322 vhcurveto
          -86 hlineto
          -33 -55 -50 -16 hvcurveto
          -18 -212 -35 -214 -20 -166 rrcurveto
          -138 -92 -123 -80 -123 hhcurveto
          -112 -91 58 105 hvcurveto
          137 84 395 92 vvcurveto
          37 -22 40 -23 12 vhcurveto
          -31 hlineto
          -32 -51 -57 -16 hvcurveto
          1 -28 0 -53 -42 vvcurveto
          -126 -159 -790 -12 -307 vhcurveto
          62 hlineto
          35 53 42 16 105 25 230 22 142 hvcurveto
          -64 46 82 -60 103 hhcurveto
          121 130 79 148 95 hvcurveto
          -2 -23 0 -20 -19 vvcurveto
          endchar
        </CharString>
        <CharString name="multiply">
          -18 1048 hstem
          150 1064 vstem
          1024 -18 rmoveto
          35 53 42 16 hvcurveto
          -147 208 -97 140 -89 132 117 133 128 144 190 213 rrcurveto
          -142 hlineto
          -35 -41 -43 -15 -12 hvcurveto
          -100 -122 -86 -103 -89 -103 -77 116 -78 121 -108 169 rrcurveto
          -50 -47 callgsubr
          131 -190 94 -135 86 -127 -127 -146 -143 -157 -199 -217 rrcurveto
          142 hlineto
          35 42 46 12 11 hvcurveto
          122 143 94 110 93 106 84 -126 85 -130 116 -179 rrcurveto
          endchar
        </CharString>
        <CharString name="n">
          84 -10 1032 hstem
          95 1290 vstem
          -68 callsubr
          723 135 -94 callsubr
          endchar
        </CharString>
        <CharString name="nacute">
          84 208 0 110 26 callsubr
        </CharString>
        <CharString name="ncaron">
          84 283 0 110 207 endchar
        </CharString>
        <CharString name="ncommaaccent">
          84 -43 callsubr
          457 1032 hstemhm
          95 1290 -946 -8 callgsubr
          -68 callsubr
          723 135 -94 callsubr
          hintmask 00000000
          -379 -357 -101 callsubr
        </CharString>
        <CharString name="nine">
          -36 1393 -843 133 hstemhm
          78 1173 -18 callsubr
          232 -25 rmoveto
          -8 40 40 -3 41 hhcurveto
          460 438 332 501 272 -149 214 -254 50 hvcurveto
          -33 -57 -50 -17 -1 hvcurveto
          37 -104 17 -112 -112 vvcurveto
          -398 -215 -412 -364 -153 vhcurveto
          hintmask 01100000
          466 677 rmoveto
          -3 -20 -19 -2 -18 hhcurveto
          -124 -53 77 129 196 134 267 140 41 hvcurveto
          -333 -327 -170 -357 -213 156 -103 168 111 114 46 92 71 hvcurveto
          endchar
        </CharString>
        <CharString name="notequal">
          19 1031 -803 137 323 137 hstemhm
          168 950 -880 950 -838 619 hintmask 10000100
          520 77 rmoveto
          145 343 85 185 219 445 rrcurveto
          -82 -47 callgsubr
          -161 -368 -85 -182 -203 -423 rrcurveto
          82 -52 callgsubr
          hintmask 01010000
          540 170 -94 callgsubr
          hintmask 00101000
          70 460 -94 callgsubr
          endchar
        </CharString>
        <CharString name="ntilde">
          84 -10 1032 132 403 hstemhm
          95 1290 -890 752 hintmask 10100000
          -68 callsubr
          723 135 -94 callsubr
          hintmask 01010000
          -9 1074 -77 callgsubr
        </CharString>
        <CharString name="numbersign">
          1 1288 -887 137 258 137 hstemhm
          178 950 -900 885 -876 950 hintmask 10001000
          391 59 rmoveto
          -40 callsubr
          373 hmoveto
          -40 callsubr
          hintmask 01010000
          306 343 -94 callgsubr
          hintmask 00100100
          59 395 -94 callgsubr
          endchar
        </CharString>
        <CharString name="o">
          84 -9 1036 hstem
          15 callgsubr
          vstem
          835 1027 -96 callsubr
          endchar
        </CharString>
        <CharString name="oacute">
          84 -9 1036 118 7 callsubr
          15 callgsubr
          -872 615 hintmask 10100000
          835 1027 -96 callsubr
          hintmask 01010000
          -121 1154 -81 callsubr
        </CharString>
        <CharString name="obreve">
          84 -9 1036 97 481 hstemhm
          15 callgsubr
          -925 769 hintmask 10100000
          835 1027 -96 callsubr
          506 1589 -80 callgsubr
          hintmask 01010000
          -55 callsubr
        </CharString>
        <CharString name="ocircumflex">
          84 237 -11 111 195 endchar
        </CharString>
        <CharString name="odieresis">
          84 245 0 111 200 endchar
        </CharString>
        <CharString name="oe">
          707 -18 162 hstem
          133 1950 vstem
          1623 1010 rmoveto
          7 -33 -30 2 -31 hhcurveto
          -130 -118 -30 -57 -97 hvcurveto
          -57 43 -69 27 -76 11 rrcurveto
          -31 -54 -49 -18 -1 hvcurveto
          28 -107 16 -114 -113 vvcurveto
          -228 -67 -227 -173 -166 vhcurveto
          159 135 34 63 105 hvcurveto
          -72 94 128 -34 150 hhcurveto
          237 191 78 95 60 hvcurveto
          -7 -46 -48 -4 -41 hhcurveto
          -313 -157 144 224 182 100 202 169 114 hvcurveto
          -788 17 rmoveto
          -402 -300 -219 -347 -267 205 -159 215 -30 hvcurveto
          31 54 49 18 1 hvcurveto
          -28 107 -16 114 113 vvcurveto
          228 67 227 173 166 vhcurveto
          950 -33 -44 callsubr
        </CharString>
        <CharString name="ogonek">
          -329 4 callgsubr
          hstemhm
          351 607 hintmask 00000000
          hintmask 11000000
          934 -60 callgsubr
          -113 -48 68 91 70 24 88 54 94 hvcurveto
          -110 -23 rlineto
          -107 -118 -110 -52 callsubr
          endchar
        </CharString>
        <CharString name="ograve">
          84 194 0 111 193 endchar
        </CharString>
        <CharString name="ohungarumlaut">
          84 250 0 111 205 endchar
        </CharString>
        <CharString name="omacron">
          84 257 0 111 197 endchar
        </CharString>
        <CharString name="one">
          -426 4 1344 hstem
          120 798 vstem
          154 1158 rmoveto
          -17 -39 -10 -48 -7 -51 rrcurveto
          189 hlineto
          14 46 26 122 4 49 -85 -43 -34 -11 -80 -25 rrcurveto
          481 -1154 rmoveto
          33 54 50 15 hvcurveto
          32 402 65 459 99 418 rrcurveto
          -360 hlineto
          -31 -56 -58 callgsubr
          -71 -418 -106 -441 -102 -420 rrcurveto
          endchar
        </CharString>
        <CharString name="onehalf">
          21 callgsubr
          -1300 764 -153 13 callgsubr
          -574 817 hintmask 10001000
          468 5 -72 callgsubr
          hintmask 00110000
          -367 1348 -71 callsubr
          hintmask 01000100
          791 -598 -71 callgsubr
        </CharString>
        <CharString name="onequarter">
          21 callgsubr
          -1277 101 487 13 callgsubr
          -749 956 hintmask 01000100
          1821 -78 callsubr
          -367 1348 -71 callsubr
          endchar
        </CharString>
        <CharString name="onesuperior">
          -426 711 747 hstem
          148 671 vstem
          172 1353 -71 callsubr
          endchar
        </CharString>
        <CharString name="ordfeminine">
          -426 707 718 hstem
          63 964 vstem
          944 737 rmoveto
          26 11 35 39 13 vvcurveto
          -40 37 -13 53 69 vvcurveto
          137 59 168 16 111 vhcurveto
          34 -116 -147 6 -42 hhcurveto
          -24 -40 -35 -11 hvcurveto
          -1 -136 -66 -315 -105 vvcurveto
          -41 19 -41 18 -24 vhcurveto
          105 116 10 20 95 hvcurveto
          -348 688 rmoveto
          -330 -203 -188 -227 -189 160 -113 221 23 40 36 13 hvcurveto
          -58 38 -30 134 98 vvcurveto
          158 56 154 121 86 vhcurveto
          endchar
        </CharString>
        <CharString name="ordmasculine">
          -426 697 729 hstem
          74 978 vstem
          596 1426 rmoveto
          -316 -206 -154 -244 -188 151 -112 169 -21 hvcurveto
          25 42 34 13 1 hvcurveto
          -22 75 -13 81 79 vvcurveto
          160 34 160 135 117 vhcurveto
          -67 -729 rmoveto
          317 206 154 244 188 -151 112 -169 21 hvcurveto
          -24 -44 -34 -13 hvcurveto
          23 -75 12 -81 -80 vvcurveto
          -160 -33 -160 -137 -116 vhcurveto
          endchar
        </CharString>
        <CharString name="oslash">
          84 -14 1096 -1091 1036 hstemhm
          41 1380 -1288 1269 hintmask 10100000
          1398 929 rmoveto
          16 10 7 16 8 callgsubr
          -104 -84 -125 -93 rlinecurve
          90 -82 119 98 38 27 117 75 rlinecurve
          -1334 -790 rmoveto
          -16 -10 -7 -16 -15 vvcurveto
          -20 11 -21 13 -15 vhcurveto
          48 -56 86 94 104 84 125 93 rlinecurve
          -90 82 -119 -98 -38 -27 -117 -75 rlinecurve
          hintmask 01010000
          771 888 -96 callsubr
          endchar
        </CharString>
        <CharString name="otilde">
          84 -9 1036 127 403 hstemhm
          15 callgsubr
          -915 752 hintmask 10100000
          835 1027 -96 callsubr
          hintmask 01010000
          101 1218 -77 callgsubr
        </CharString>
        <CharString name="p">
          84 -398 -21 hstem
          52 1360 vstem
          343 991 rmoveto
          -34 -2 -54 -47 -15 vvcurveto
          -31 -402 -83 -527 -89 -417 27 callgsubr
          38 408 56 534 99 427 rrcurveto
          -82 -249 -14 -10 -79 hvcurveto
          376 -991 rmoveto
          434 259 236 -46 callsubr
          -267 -159 -100 vhcurveto
          endchar
        </CharString>
        <CharString name="paragraph">
          -20 -236 -21 hstem
          166 1235 vstem
          810 1401 rmoveto
          7 -28 -39 5 -53 hhcurveto
          -295 -229 -182 -327 -245 180 -159 241 -16 hvcurveto
          33 55 51 17 hvcurveto
          -8 67 -4 72 72 vvcurveto
          225 41 236 106 177 vhcurveto
          239 -21 rmoveto
          3 -33 -39 1 -20 hhcurveto
          -32 -56 -50 -14 hvcurveto
          -24 -302 -126 -956 -76 -319 rrcurveto
          161 hlineto
          59 458 99 732 87 447 rrcurveto
          -56 -1637 rmoveto
          33 54 49 16 hvcurveto
          19 221 99 806 60 347 46 16 45 14 52 15 rrcurveto
          23 -9 60 -13 20 vhcurveto
          -52 7 -107 13 -79 18 -44 -523 -112 -733 -70 -369 rrcurveto
          endchar
        </CharString>
        <CharString name="parenleft">
          -912 -217 1745 hstem
          109 488 vstem
          548 1528 rmoveto
          -283 -258 -156 -316 -421 vvcurveto
          -267 115 -284 187 -199 vhcurveto
          54 21 rlineto
          -52 193 -23 204 210 vvcurveto
          368 65 367 142 366 vhcurveto
          endchar
        </CharString>
        <CharString name="parenright">
          -912 -219 1745 hstem
          -28 488 vstem
          21 -219 rmoveto
          283 258 156 316 421 vvcurveto
          267 -115 284 -187 199 vhcurveto
          -54 -21 rlineto
          52 -193 23 -204 -210 vvcurveto
          -368 -65 -367 -142 -366 vhcurveto
          endchar
        </CharString>
        <CharString name="partialdiff">
          -35 101 673 96 456 111 hstem
          243 134 613 19 vstem
          725 835 rmoveto
          -306 -176 -250 -270 -192 100 -158 246 461 71 561 377 319 -131 180 -236 -84 -67 -16 -26 -49 hvcurveto
          -21 -13 -47 -97 -2 -17 rrcurveto
          35 77 84 23 76 hhcurveto
          180 89 -129 -272 -33 -1 -34 -2 -34 hvcurveto
          31 -102 -63 15 -97 hhcurveto
          -127 -769 rmoveto
          -163 -58 115 135 204 91 219 316 57 65 -11 -23 74 hvcurveto
          -316 -33 -119 -323 -230 hhcurveto
          endchar
        </CharString>
        <CharString name="percent">
          -3 callgsubr
          hstem
          172 -9 callgsubr
          47 -9 callgsubr
          vstem
          288 41 rmoveto
          326 443 278 375 385 503 rrcurveto
          -112 hlineto
          -35 -40 -40 -18 -13 hvcurveto
          -311 -432 -288 -385 -390 25 callgsubr
          112 hlineto
          35 41 42 16 12 hvcurveto
          -116 982 -84 callgsubr
          408 -826 -84 callgsubr
          endchar
        </CharString>
        <CharString name="period">
          -769 -31 334 hstem
          33 489 vstem
          33 118 rmoveto
          -67 callgsubr
          endchar
        </CharString>
        <CharString name="periodcentered">
          -769 369 334 hstem
          83 489 vstem
          83 518 rmoveto
          -67 callgsubr
          endchar
        </CharString>
        <CharString name="perthousand">
          312 -3 callgsubr
          hstemhm
          112 -9 callgsubr
          47 -9 callgsubr
          97 -9 callgsubr
          hintmask 1100000011000000
          1222 223 -84 callgsubr
          hintmask 1111111100000000
          -1116 -208 rmoveto
          326 443 278 375 385 503 rrcurveto
          -112 hlineto
          -35 -40 -40 -18 -13 hvcurveto
          -311 -432 -288 -385 -390 25 callgsubr
          112 hlineto
          35 41 42 16 12 hvcurveto
          -116 982 -84 callgsubr
          408 -826 -84 callgsubr
          endchar
        </CharString>
        <CharString name="pi">
          -20 129 791 126 hstem
          848 135 vstem
          1189 890 -55 callgsubr
          72 vlineto
          -19 -214 -193 -5 -131 hhcurveto
          -114 -189 2 7 -191 hvcurveto
          -16 -1 -42 -52 -35 vvcurveto
          -72 vlineto
          66 6 63 5 61 3 -42 -386 -6 -41 -76 -482 rrcurveto
          72 -52 callgsubr
          44 404 5 50 64 404 rrcurveto
          3 73 66 1 54 hhcurveto
          63 78 0 -1 88 hvcurveto
          -39 -275 -31 -271 -173 vvcurveto
          -131 34 -69 74 vhcurveto
          92 hlineto
          35 50 42 16 3 hvcurveto
          15 97 rlineto
          -21 -58 -24 -5 -41 hhcurveto
          -26 -19 44 69 173 31 311 36 190 hvcurveto
          endchar
        </CharString>
        <CharString name="plus">
          456 117 1 callsubr
          1099 442 -53 callsubr
          -16 -119 -22 -133 -35 -223 rrcurveto
          72 -52 callgsubr
          -15 callsubr
        </CharString>
        <CharString name="plusminus">
          85 46 430 117 hstem
          177 1010 vstem
          1129 547 -53 callsubr
          -15 -110 -20 -123 -31 -196 rrcurveto
          -1 -92 -102 1 -135 24 callsubr
          -42 -52 -35 vvcurveto
          -69 -28 callgsubr
          94 2 393 hhcurveto
          -57 callgsubr
          69 vlineto
          -179 -7 -120 -4 -115 -2 rrcurveto
          2 4 2 3 3 vvcurveto
          -15 callsubr
        </CharString>
        <CharString name="product">
          1265 116 hstem
          174 1190 vstem
          1032 38 rmoveto
          28 callgsubr
          47 -1 47 -2 45 -2 rrcurveto
          -57 callgsubr
          62 vlineto
          -19 -214 -243 -5 -131 hhcurveto
          -114 -239 2 7 -191 hvcurveto
          -16 -1 -42 -52 -35 vvcurveto
          -62 vlineto
          62 6 66 4 64 4 -40 -432 -38 -345 -66 -497 rrcurveto
          72 -52 callgsubr
          28 callgsubr
          rrcurveto
          3 94 85 2 60 hhcurveto
          64 94 0 -1 103 hvcurveto
          -40 -436 -39 -347 -66 -501 rrcurveto
          72 -52 callgsubr
          endchar
        </CharString>
        <CharString name="q">
          84 -398 -21 hstem
          123 1301 vstem
          1245 -354 rmoveto
          23 263 90 772 66 282 rrcurveto
          29 callsubr
          -186 8 -57 hhcurveto
          -32 -56 -50 -14 hvcurveto
          -24 -302 -97 -753 -76 -319 rrcurveto
          420 hlineto
          33 54 49 16 hvcurveto
          -410 1373 rmoveto
          -435 -277 -278 -285 -291 201 -165 306 33 54 50 18 hvcurveto
          -68 73 -53 163 129 vvcurveto
          201 65 256 174 129 vhcurveto
          endchar
        </CharString>
        <CharString name="question">
          -254 -20 1393 hstem
          131 1071 vstem
          731 460 rmoveto
          143 257 328 110 211 vvcurveto
          168 -144 114 -237 30 vhcurveto
          -32 -3 -54 -46 -1 -17 rrcurveto
          13 -28 5 -30 -28 vvcurveto
          -296 -382 -106 -52 -412 vhcurveto
          325 12 23 1 45 34 20 29 rlinecurve
          -600 378 rmoveto
          32 69 62 14 22 callgsubr
          153 164 200 101 -148 -1 -185 -22 -114 -34 -34 -10 -37 -46 -11 -18 -39 -115 -18 -147 -15 -142 rrcurveto
          87 -709 rmoveto
          -84 81 -65 139 145 125 81 102 84 -82 66 -138 -114 -156 -63 -121 vhcurveto
          endchar
        </CharString>
        <CharString name="questiondown">
          -254 -370 1393 hstem
          -9 1071 vstem
          462 543 rmoveto
          -143 -257 -328 -110 -211 vvcurveto
          -168 144 -114 237 -30 vhcurveto
          32 3 54 46 1 17 rrcurveto
          -13 28 -5 30 28 vvcurveto
          296 382 106 52 412 vhcurveto
          -325 -12 -23 -1 -45 -34 -20 -29 rlinecurve
          600 -378 rmoveto
          -32 -69 -62 -14 -10 hvcurveto
          -137 -194 -153 -164 -200 -101 148 1 185 22 114 34 34 10 37 46 11 18 39 115 18 147 15 142 rrcurveto
          -87 709 rmoveto
          84 -81 65 -139 -145 -125 -81 -102 -84 82 -66 138 114 156 63 121 vhcurveto
          endchar
        </CharString>
        <CharString name="quotedbl">
          10 callsubr
          174 328 42 328 hintmask 11000000
          324 932 rmoveto
          -51 callgsubr
          hintmask 10100000
          520 hmoveto
          -51 callgsubr
          endchar
        </CharString>
        <CharString name="quotedblbase">
          -598 -232 449 hstemhm
          -30 9 callsubr
          26 -232 -56 callsubr
        </CharString>
        <CharString name="quotedblleft">
          10 callsubr
          106 9 callsubr
          424 1381 rmoveto
          -51 callsubr
          hintmask 10100000
          400 hmoveto
          -51 callsubr
          endchar
        </CharString>
        <CharString name="quotedblright">
          10 callsubr
          136 9 callsubr
          192 932 -56 callsubr
        </CharString>
        <CharString name="quoteleft">
          11 callgsubr
          116 374 vstem
          434 1381 rmoveto
          -51 callsubr
          endchar
        </CharString>
        <CharString name="quoteright">
          11 callgsubr
          136 374 vstem
          192 932 rmoveto
          -35 callgsubr
        </CharString>
        <CharString name="quotesinglbase">
          -998 -232 449 hstem
          -45 374 vstem
          11 -232 rmoveto
          -35 callgsubr
        </CharString>
        <CharString name="quotesingle">
          11 callgsubr
          163 328 vstem
          313 932 rmoveto
          -51 callgsubr
          endchar
        </CharString>
        <CharString name="r">
          -256 0 1019 hstem
          69 1132 vstem
          -60 callsubr
          endchar
        </CharString>
        <CharString name="racute">
          -256 159 0 114 26 callsubr
        </CharString>
        <CharString name="radical">
          -256 -21 hstem
          185 1055 vstem
          691 -219 rmoveto
          167 509 148 446 234 675 rrcurveto
          -82 -47 callgsubr
          -161 -550 -125 -395 -167 -488 -40 254 -16 136 -38 369 -117 -44 -33 -12 -130 -27 rrcurveto
          -16 -3 -42 -50 -35 vvcurveto
          -72 vlineto
          109 34 70 19 54 11 44 -307 17 -121 42 -349 rrcurveto
          82 hlineto
          35 46 36 22 7 hvcurveto
          endchar
        </CharString>
        <CharString name="rcaron">
          -256 4 0 114 207 endchar
        </CharString>
        <CharString name="rcommaaccent">
          -256 10 callgsubr
          1019 hstemhm
          46 472 -449 1132 hintmask 00101000
          -60 callsubr
          hintmask 00000000
          -23 -222 -47 callsubr
        </CharString>
        <CharString name="registered">
          8 callsubr
          755 268 227 -58 callsubr
          530 -360 rmoveto
          19 244 41 289 59 256 rrcurveto
          -84 -120 -9 -6 -72 hvcurveto
          -19 -2 -33 -28 -9 vvcurveto
          -20 -245 -38 -290 -60 -240 rrcurveto
          274 hlineto
          20 33 31 9 hvcurveto
          466 -30 rmoveto
          10 17 6 23 4 22 rrcurveto
          -47 8 -10 31 39 39 9 41 41 vvcurveto
          93 -79 42 -97 7 vhcurveto
          -55 4 rlineto
          177 12 109 90 112 vvcurveto
          144 -139 55 -135 -19 -33 -31 -11 vhcurveto
          39 -41 19 -59 -58 vvcurveto
          -85 -38 -83 -69 -36 vhcurveto
          -11 -13 -7 -16 -2 -19 rrcurveto
          33 -4 20 -31 -46 -62 -27 -86 -71 vvcurveto
          -72 63 -21 100 67 59 12 13 53 vhcurveto
          endchar
        </CharString>
        <CharString name="ring">
          -329 1100 -23 callsubr
          hstem
          322 -23 callgsubr
          vstem
          495 1327 -89 callgsubr
        </CharString>
        <CharString name="ring.case">
          -767 1273 -23 callsubr
          hstem
          66 -23 callgsubr
          vstem
          239 1500 -89 callgsubr
        </CharString>
        <CharString name="s">
          -256 -8 1036 hstem
          23 callgsubr
          vstem
          662 1028 -102 callgsubr
          endchar
        </CharString>
        <CharString name="sacute">
          -256 93 0 115 26 callsubr
        </CharString>
        <CharString name="scaron">
          -256 168 0 115 207 endchar
        </CharString>
        <CharString name="scedilla">
          -256 -34 callgsubr
          72 1036 hstemhm
          23 callgsubr
          -927 -13 callgsubr
          319 -74 callsubr
          -105 -83 -19 -33 -68 hvcurveto
          hintmask 00011000
          343 1160 -102 callgsubr
          endchar
        </CharString>
        <CharString name="scircumflex">
          -256 -8 1036 106 7 callsubr
          23 callgsubr
          -816 754 hintmask 10100000
          662 1028 -102 callgsubr
          -31 1138 -86 callsubr
          -33 callsubr
          29 callgsubr
        </CharString>
        <CharString name="scommaaccent">
          -256 -43 callsubr
          459 1036 hstemhm
          23 callgsubr
          -914 -8 callgsubr
          662 1028 -102 callgsubr
          hintmask 00000000
          -187 -218 -101 callsubr
        </CharString>
        <CharString name="section">
          -132 -170 1672 -1668 237 1193 237 hstemhm
          114 1111 -1082 282 479 282 hintmask 10010000
          797 1502 rmoveto
          -195 -2 -311 -78 -246 -277 478 -97 -230 vvcurveto
          -6 51 47 -3 43 hhcurveto
          202 113 64 147 120 -106 87 -166 117 hvcurveto
          -91 64 -122 101 125 vvcurveto
          42 22 39 35 33 vhcurveto
          -683 -1000 rmoveto
          -244 482 -103 -219 -3 callsubr
          132 -95 89 -176 124 hvcurveto
          -91 64 -122 101 125 vvcurveto
          -177 -3 -276 -34 -213 vvcurveto
          hintmask 01001000
          29 -562 -35 callsubr
          hintmask 00100100
          761 1430 -35 callsubr
          endchar
        </CharString>
        <CharString name="semicolon">
          -769 -278 -21 988 334 hstemhm
          21 505 -383 489 hintmask 01010000
          143 838 rmoveto
          -67 callgsubr
          hintmask 10100000
          -110 -720 -45 callgsubr
        </CharString>
        <CharString name="seven">
          4 1344 hstem
          157 1109 vstem
          947 1283 rmoveto
          -193 -402 -505 -418 -383 vvcurveto
          -24 3 -28 5 -24 vhcurveto
          469 hlineto
          33 55 50 15 hvcurveto
          -2 19 -2 20 17 358 456 366 499 vvcurveto
          -230 hlineto
          -34 -48 -50 -15 -7 hvcurveto
          -669 -415 rmoveto
          192 271 142 138 331 71 rrcurveto
          -632 hlineto
          -25 -45 -47 -24 -11 hvcurveto
          -16 -62 -36 -209 -21 -171 rrcurveto
          44 50 10 23 27 hvcurveto
          endchar
        </CharString>
        <CharString name="six">
          -20 1393 -683 133 hstemhm
          114 1173 -18 callsubr
          1133 1362 rmoveto
          8 -40 -40 3 -41 hhcurveto
          -460 -438 -332 -501 -272 149 -214 254 -50 hvcurveto
          33 57 50 17 1 hvcurveto
          -37 104 -17 112 112 vvcurveto
          398 215 412 364 153 vhcurveto
          hintmask 01100000
          -466 -677 rmoveto
          3 20 19 2 18 hhcurveto
          124 53 -77 -129 -196 -134 -267 -140 -41 hvcurveto
          333 327 170 357 213 -156 103 -168 -111 -114 -46 -92 -71 hvcurveto
          endchar
        </CharString>
        <CharString name="slash">
          -715 -219 1688 hstem
          -80 919 vstem
          90 -161 rmoveto
          188 427 321 699 240 504 rrcurveto
          -82 -47 callgsubr
          -188 -427 -321 -699 -240 25 callgsubr
          82 -52 callgsubr
          endchar
        </CharString>
        <CharString name="space">
          -767 endchar
        </CharString>
        <CharString name="sterling">
          -22 245 hstem
          326 133 vstem
          231 278 rmoveto
          316 49 145 -34 41 247 84 8 75 7 44 3 -19 callsubr
          -54 -14 -99 -17 -94 -15 21 211 21 265 97 265 -529 -38 19 -362 -64 -393 -84 -9 -74 -8 -53 -4 rrcurveto
          -48 callgsubr
          58 14 88 16 105 16 -15 -72 -19 -72 -27 -71 rrcurveto
          -68 -138 rmoveto
          -57 -35 -47 -75 -13 -60 rrcurveto
          5 73 155 3 92 204 225 -15 173 hhcurveto
          229 45 114 321 43 hvcurveto
          -270 -249 -649 115 -203 -124 rrcurveto
          1017 615 rmoveto
          33 72 47 20 5 hvcurveto
          31 133 36 -27 callsubr
          -119 13 rrcurveto
          -30 -55 -43 -23 -3 hvcurveto
          133 -151 53 -162 46 -227 rrcurveto
          endchar
        </CharString>
        <CharString name="summation">
          2 112 1163 112 hstem
          147 1018 vstem
          1107 1277 -55 callgsubr
          39 vlineto
          -14 -363 -140 -1 -286 24 callsubr
          -42 -52 -35 vvcurveto
          -39 vlineto
          184 -227 131 -142 152 -191 -192 -204 -105 -108 -283 -276 rrcurveto
          -13 -12 -45 -41 -35 vvcurveto
          -39 vlineto
          15 316 218 0 355 hhcurveto
          -57 callgsubr
          39 vlineto
          -12 -275 -190 -3 -240 hhcurveto
          226 238 89 90 259 243 rrcurveto
          -1 hlineto
          -170 207 -132 151 -167 225 rrcurveto
          7 203 131 2 280 hhcurveto
          endchar
        </CharString>
        <CharString name="t">
          18 callsubr
          hstem
          102 913 vstem
          904 61 -87 callsubr
        </CharString>
        <CharString name="tbar">
          18 callsubr
          -865 90 hstemhm
          -64 842 -676 913 hintmask 01100000
          442 447 -79 callsubr
          hintmask 10010000
          548 -397 -87 callsubr
        </CharString>
        <CharString name="tcaron">
          18 callsubr
          -208 449 hstemhm
          102 913 -226 288 hintmask 01010000
          789 1113 -45 callsubr
          hintmask 10100000
          115 -1052 -87 callsubr
        </CharString>
        <CharString name="tcommaaccent">
          -426 -43 callsubr
          462 1326 hstemhm
          102 913 -801 -8 callgsubr
          904 61 -86 callgsubr
          hintmask 00000000
          -515 -978 -101 callsubr
        </CharString>
        <CharString name="thorn">
          84 -398 -21 hstem
          306 254 vstem
          719 hmoveto
          434 259 236 -46 callsubr
          -267 -159 -100 vhcurveto
          -159 -354 rmoveto
          62 675 45 333 147 730 rrcurveto
          -421 -29 callsubr
          -50 -16 hvcurveto
          -62 -670 -52 -308 -140 -759 27 callgsubr
          endchar
        </CharString>
        <CharString name="three">
          -20 1393 hstem
          92 1154 vstem
          493 -4 rmoveto
          -12 56 48 -4 59 hhcurveto
          284 286 110 286 278 -329 47 -218 1 hvcurveto
          249 16 318 94 247 vvcurveto
          208 -243 95 -184 -34 -58 -50 -18 vhcurveto
          57 -48 20 -65 -67 vvcurveto
          -181 -137 -182 -215 vhcurveto
          -10 -17 -6 -33 -22 vvcurveto
          -9 1 -8 1 -6 vhcurveto
          241 -10 53 -157 -101 vvcurveto
          -196 -112 -124 -127 -72 vhcurveto
          -256 521 rmoveto
          -30 -7 -41 -22 -22 -18 -23 -130 -18 -164 -11 -92 41 -24 126 -45 104 -10 rrcurveto
          30 84 58 22 2 hvcurveto
          -141 84 -57 165 -44 183 rrcurveto
          -41 331 rmoveto
          33 45 52 14 22 callgsubr
          119 154 156 111 -104 -2 -113 -18 -118 -26 -32 -8 -38 -46 -10 -19 -40 -116 -30 -147 -15 -143 rrcurveto
          endchar
        </CharString>
        <CharString name="threequarters">
          21 callgsubr
          -1277 101 846 54 hstemhm
          26 848 -513 1356 -749 956 hintmask 01000100
          1924 -78 callsubr
          -247 693 -76 callsubr
        </CharString>
        <CharString name="threesuperior">
          -426 1070 54 hstem
          102 848 vstem
          400 698 -76 callsubr
        </CharString>
        <CharString name="tilde">
          -329 1154 403 hstem
          235 752 vstem
          549 1209 -77 callgsubr
        </CharString>
        <CharString name="tilde.case">
          -767 1438 313 hstem
          -74 812 vstem
          472 1438 -93 callgsubr
        </CharString>
        <CharString name="trademark">
          726 1317 44 hstem
          907 77 202 56 482 296 vstem
          603 610 rmoveto
          22 35 28 8 hvcurveto
          21 224 36 258 65 233 rrcurveto
          -290 hlineto
          -20 -36 -27 -9 hvcurveto
          -21 -223 -43 -270 -72 -222 rrcurveto
          607 406 rmoveto
          22 52 25 11 3 hvcurveto
          22 92 21 119 12 98 rrcurveto
          -202 hlineto
          -9 -11 -8 -17 -2 -16 rrcurveto
          41 -53 48 -144 -104 vvcurveto
          -791 hmoveto
          21 57 22 8 5 hvcurveto
          71 111 56 110 93 94 rrcurveto
          -197 hlineto
          -17 -29 -26 -13 -6 hvcurveto
          -11 -35 -35 -177 -8 -94 rrcurveto
          1891 -406 rmoveto
          23 34 28 8 hvcurveto
          -27 173 -17 194 186 vvcurveto
          56 2 54 3 52 vhcurveto
          -199 hlineto
          -21 -31 -27 -9 -4 hvcurveto
          -18 -35 -24 -49 -20 -35 rrcurveto
          12 -129 4 -130 -129 vvcurveto
          -68 -1 -72 -2 -68 vhcurveto
          -159 29 rmoveto
          40 130 21 56 45 114 -69 130 -32 153 -28 139 rrcurveto
          -188 hlineto
          -21 -34 -27 -9 -2 hvcurveto
          -10 -58 -16 -62 -12 -56 60 -137 63 -228 35 -174 rrcurveto
          103 hlineto
          13 26 18 11 6 hvcurveto
          -320 370 rmoveto
          -21 -35 -28 -8 hvcurveto
          -32 -104 -55 -113 -72 -146 rrcurveto
          207 hlineto
          22 36 28 8 hvcurveto
          -42 115 -4 87 -4 161 rrcurveto
          endchar
        </CharString>
        <CharString name="two">
          4 1369 hstem
          86 1161 vstem
          604 70 rmoveto
          -1 6 0 8 8 274 644 329 304 vvcurveto
          182 -192 124 -185 32 vhcurveto
          -32 -2 -54 -46 -1 -17 rrcurveto
          12 -28 6 -30 -29 -356 -715 -305 -406 vvcurveto
          -39 6 -37 12 -38 vhcurveto
          413 hlineto
          -46 callgsubr
          -404 779 rmoveto
          31 46 52 13 22 callgsubr
          143 164 200 101 -104 -2 -181 -18 -118 -26 -32 -8 -38 -42 -11 -23 -38 -116 -31 -147 -14 -142 rrcurveto
          892 -453 rmoveto
          -109 -145 -144 -132 -172 -115 rrcurveto
          368 hlineto
          25 45 47 25 11 hvcurveto
          25 90 24 174 15 121 rrcurveto
          -34 -45 -51 -14 -9 hvcurveto
          endchar
        </CharString>
        <CharString name="twosuperior">
          -426 709 764 hstem
          112 817 vstem
          493 758 -71 callgsubr
        </CharString>
        <CharString name="u">
          11 callsubr
          hstem
          -17 callsubr
          vstem
          156 258 -105 callgsubr
          endchar
        </CharString>
        <CharString name="uacute">
          11 callsubr
          145 460 -11 callsubr
          -876 615 hintmask 10100000
          156 258 -105 callgsubr
          hintmask 01010000
          -236 998 -81 callsubr
        </CharString>
        <CharString name="ubreve">
          81 222 0 117 198 endchar
        </CharString>
        <CharString name="ucircumflex">
          81 254 -11 117 195 endchar
        </CharString>
        <CharString name="udieresis">
          11 callsubr
          135 350 -11 callsubr
          -1046 981 hintmask 10100000
          156 258 -105 callgsubr
          hintmask 01010000
          -455 1144 -89 callsubr
        </CharString>
        <CharString name="ugrave">
          81 211 0 117 193 endchar
        </CharString>
        <CharString name="uhungarumlaut">
          11 callsubr
          144 505 -11 callsubr
          -1052 1044 hintmask 10100000
          156 258 -105 callgsubr
          hintmask 01010000
          -367 997 rmoveto
          -61 callgsubr
          544 hmoveto
          -61 callgsubr
          endchar
        </CharString>
        <CharString name="umacron">
          11 callsubr
          217 292 -11 callsubr
          -891 680 hintmask 10100000
          156 258 -105 callgsubr
          hintmask 01010000
          292 1070 -92 callsubr
        </CharString>
        <CharString name="underscore">
          -427 -308 93 hstem
          -103 1171 vstem
          -103 -308 rmoveto
          1171 93 -1171 hlineto
          endchar
        </CharString>
        <CharString name="uni00AD">
          256 447 137 hstem
          378 950 vstem
          1270 447 -94 callgsubr
          endchar
        </CharString>
        <CharString name="uni1E02">
          84 -20 1396 103 -20 callgsubr
          103 1349 -790 2 callgsubr
          -76 callgsubr
          hintmask 01010000
          -39 1637 -101 callgsubr
        </CharString>
        <CharString name="uni1E03">
          84 565 0 98 199 endchar
        </CharString>
        <CharString name="uni1E0A">
          -11 callgsubr
          103 -20 callgsubr
          143 1439 -883 2 callgsubr
          746 -20 -96 callgsubr
          hintmask 01010000
          102 1643 -101 callgsubr
        </CharString>
        <CharString name="uni1E0B">
          86 -22 callsubr
          -249 -20 callgsubr
          16 callsubr
          -1102 2 callgsubr
          834 1019 -88 callgsubr
          hintmask 01010000
          -913 1223 -101 callgsubr
        </CharString>
        <CharString name="uni1E1E">
          -30 callgsubr
          118 350 -29 callgsubr
          -662 2 callgsubr
          -66 callsubr
          hintmask 01010000
          -496 880 -101 callgsubr
        </CharString>
        <CharString name="uni1E1F">
          -426 1230 164 129 -20 callgsubr
          95 1037 -758 2 callgsubr
          785 661 -100 callgsubr
          hintmask 01010000
          -367 647 -101 callgsubr
        </CharString>
        <CharString name="uni1E40">
          254 -5 callsubr
          229 87 427 2 callgsubr
          -80 callsubr
          hintmask 01010000
          427 912 -101 callgsubr
        </CharString>
        <CharString name="uni1E41">
          764 -2 1021 116 -20 callgsubr
          115 1922 -1084 2 callgsubr
          -82 callsubr
          hintmask 01010000
          -543 1148 -101 callgsubr
        </CharString>
        <CharString name="uni1E56">
          84 0 1376 103 -20 callgsubr
          133 1366 -790 2 callgsubr
          -64 callsubr
          hintmask 01010000
          34 1568 -101 callgsubr
        </CharString>
        <CharString name="uni1E57">
          84 196 0 112 199 endchar
        </CharString>
        <CharString name="uni1E60">
          -20 1419 80 -20 callgsubr
          4 callsubr
          -646 2 callgsubr
          237 953 -107 callsubr
          hintmask 01010000
          345 1061 -101 callgsubr
        </CharString>
        <CharString name="uni1E61">
          -256 -8 1036 107 -20 callgsubr
          23 callgsubr
          -646 2 callgsubr
          662 1028 -102 callgsubr
          hintmask 01010000
          81 1295 -101 callgsubr
        </CharString>
        <CharString name="uni1E6A">
          84 -30 callgsubr
          118 350 -10 callgsubr
          -846 447 195 119 -18 callsubr
          866 hmoveto
          -72 callsubr
          hintmask 10001000
          -93 callsubr
          hintmask 01010000
          576 899 -101 callgsubr
        </CharString>
        <CharString name="uni1E6B">
          -426 20 334 116 199 endchar
        </CharString>
        <CharString name="uogonek">
          81 4 callgsubr
          313 1009 -11 callsubr
          -738 0 callgsubr
          1268 -60 callgsubr
          -78 -69 36 91 97 80 93 84 94 hvcurveto
          -160 -23 rlineto
          -132 -118 -135 -138 -15 callgsubr
          -1112 712 -105 callgsubr
          endchar
        </CharString>
        <CharString name="uring">
          11 callsubr
          100 -23 callsubr
          -11 callsubr
          -832 -23 callgsubr
          hintmask 10010000
          156 258 -105 callgsubr
          hintmask 01101100
          -68 1180 -89 callgsubr
        </CharString>
        <CharString name="utilde">
          81 269 0 117 196 endchar
        </CharString>
        <CharString name="v">
          -256 0 1002 hstem
          85 1157 vstem
          887 934 rmoveto
          13 -44 6 -52 -53 vvcurveto
          -81 -13 -84 -18 -64 vhcurveto
          33 69 26 16 10 hvcurveto
          28 46 127 208 100 148 rrcurveto
          -262 hlineto
          -35 -58 -50 -16 hvcurveto
          -710 68 rmoveto
          -35 -57 -2 callsubr
          74 -224 140 -459 47 -253 rrcurveto
          304 hlineto
          34 47 50 16 7 hvcurveto
          27 62 106 253 32 58 rrcurveto
          -3 -15 -22 -15 -46 hhcurveto
          -114 -79 401 180 -21 hvcurveto
          endchar
        </CharString>
        <CharString name="w">
          421 0 1002 hstem
          89 1827 vstem
          -99 callsubr
          endchar
        </CharString>
        <CharString name="wacute">
          -1 callgsubr
          -1162 -79 callgsubr
          hintmask 01010000
          -535 143 -81 callsubr
        </CharString>
        <CharString name="wcircumflex">
          421 461 -11 119 195 endchar
        </CharString>
        <CharString name="wdieresis">
          421 0 1002 133 -20 callgsubr
          89 1827 -1332 981 -77 callsubr
          hintmask 01010000
          -754 289 -89 callsubr
        </CharString>
        <CharString name="wgrave">
          -1 callgsubr
          -1138 -79 callgsubr
          6 143 -43 callgsubr
          -33 callsubr
          -21 callsubr
        </CharString>
        <CharString name="x">
          0 1000 hstem
          -30 1426 vstem
          1096 hmoveto
          35 53 50 16 hvcurveto
          -152 318 -157 247 -118 369 rrcurveto
          -456 hlineto
          -32 -55 -50 -16 hvcurveto
          144 -303 161 -270 122 -361 rrcurveto
          334 614 rmoveto
          33 69 51 15 10 hvcurveto
          84 136 94 63 131 121 rrcurveto
          -320 hlineto
          -34 -56 -50 -16 -1 hvcurveto
          15 -25 5 -42 -47 vvcurveto
          -76 -15 -88 -15 -42 vhcurveto
          -576 -167 rmoveto
          -33 -74 -49 -16 -9 hvcurveto
          -91 -154 -107 -112 -115 -116 rrcurveto
          318 hlineto
          33 59 50 16 1 hvcurveto
          -19 44 -8 52 53 vvcurveto
          83 19 87 26 62 vhcurveto
          endchar
        </CharString>
        <CharString name="y">
          1 callgsubr
          hstemhm
          125 1288 hintmask 00000000
          hintmask 00110000
          178 314 rmoveto
          -173 105 -79 171 95 101 25 43 68 vhcurveto
          17 21 12 32 5 37 rrcurveto
          -64 -64 41 90 hvcurveto
          229 80 201 132 vvcurveto
          44 -25 33 -30 10 vhcurveto
          -389 hlineto
          -32 -47 -85 -16 hvcurveto
          42 -17 14 -48 -64 -140 -59 -157 -159 vvcurveto
          754 628 rmoveto
          1 -15 1 -18 -22 vvcurveto
          -2 -115 -56 -438 -38 -195 -33 callsubr
          -50 -256 -46 -200 -125 -146 rrcurveto
          hintmask 10110000
          -2 34 29 -2 36 hhcurveto
          318 199 94 462 47 hvcurveto
          33 325 29 245 71 337 rrcurveto
          -393 hlineto
          hintmask 00110000
          -36 -52 -40 -14 hvcurveto
          -516 -1380 rmoveto
          53 85 49 18 hvcurveto
          -6 23 -3 23 23 vvcurveto
          83 54 94 74 72 vhcurveto
          7 -42 -49 5 -51 hhcurveto
          -188 -218 -76 -132 -105 117 -70 174 -14 hvcurveto
          endchar
        </CharString>
        <CharString name="yacute">
          84 209 0 121 26 callsubr
        </CharString>
        <CharString name="ycircumflex">
          1 callgsubr
          1572 7 callsubr
          125 1288 -953 754 -83 callgsubr
          102 1572 -86 callsubr
          rrcurveto
          hintmask 00010100
          29 callgsubr
        </CharString>
        <CharString name="ydieresis">
          1 callgsubr
          1573 -20 callgsubr
          125 1288 -1044 981 -83 callgsubr
          hintmask 00010100
          -47 1729 -89 callsubr
        </CharString>
        <CharString name="yen">
          342 93 hstem
          55 1365 vstem
          113 400 rmoveto
          -48 callgsubr
          71 17 118 20 139 21 -16 -135 -12 -69 -26 -134 rrcurveto
          442 hlineto
          34 -36 callgsubr
          11 107 10 79 17 88 104 10 112 7 49 4 -19 callsubr
          -65 -16 -151 -19 -109 -18 -93 282 -61 282 -35 361 12 callgsubr
          -34 -53 -58 callgsubr
          75 -257 53 -199 48 -221 -78 -8 -68 -7 -50 -4 rrcurveto
          -48 callgsubr
          62 15 96 17 115 18 21 -104 rcurveline
          -104 -12 -89 -9 -63 -5 rrcurveto
          1307 961 rmoveto
          -31 callsubr
          2 -27 0 -27 -27 vvcurveto
          -235 -33 -220 -59 -219 vhcurveto
          6 hlineto
          117 14 97 10 60 5 -19 callsubr
          -53 -14 -87 -16 -87 -16 119 235 156 297 113 177 rrcurveto
          endchar
        </CharString>
        <CharString name="ygrave">
          84 203 0 121 193 endchar
        </CharString>
        <CharString name="z">
          0 1000 hstem
          65 1245 vstem
          -73 callgsubr
          endchar
        </CharString>
        <CharString name="zacute">
          168 0 122 26 callsubr
        </CharString>
        <CharString name="zcaron">
          0 1000 145 7 callsubr
          65 1245 -853 754 hintmask 10100000
          -73 callgsubr
          1088 1518 -61 callsubr
          -33 callsubr
          -10 38 -19 36 -29 31 rrcurveto
          endchar
        </CharString>
        <CharString name="zdotaccent">
          187 0 122 199 endchar
        </CharString>
        <CharString name="zero">
          12 -21 1394 hstem
          114 1235 vstem
          642 -20 rmoveto
          9 8 -1 9 hhcurveto
          445 236 391 368 273 -130 260 -271 79 hvcurveto
          -34 -55 -50 -17 hvcurveto
          18 -127 13 -155 -160 vvcurveto
          -332 -57 -355 -191 -174 vhcurveto
          179 1393 rmoveto
          -26 hlineto
          -446 -235 -389 -368 -273 130 -260 271 -79 hvcurveto
          34 54 30 callgsubr
          -19 126 -14 153 160 vvcurveto
          332 59 357 192 174 vhcurveto
          endchar
        </CharString>
      <CharString index="0">
        -38 callsubr
        11 138 15 149 19 147 113 25 144 21 95 6 rrcurveto
        18 20 5 37 24 vvcurveto
        -61 19 -185 29 -102 11 33 224 43 228 50 217 -92 callgsubr
        1055 755 rmoveto
        33 49 47 20 5 hvcurveto
        38 166 33 260 8 113 rrcurveto
        -363 hlineto
        -15 -20 -11 -30 -3 -30 86 -95 106 -221 34 -210 rrcurveto
        -46 -344 rmoveto
        -98 -157 -130 -139 -172 -115 rrcurveto
        367 hlineto
        25 44 48 24 11 hvcurveto
        25 91 25 193 14 121 rrcurveto
        -33 -68 -53 -13 -10 hvcurveto
        return
      </CharString>
      <CharString index="1">
        rmoveto
        521 244 400 371 288 -141 266 -300 58 hvcurveto
        -33 -55 -50 -17 hvcurveto
        33 -130 20 -159 -164 vvcurveto
        -335 -82 -355 -207 -173 vhcurveto
        199 1407 rmoveto
        -522 -244 -399 -373 -287 142 -265 299 -59 hvcurveto
        34 55 51 17 hvcurveto
        -35 131 -20 160 164 vvcurveto
        334 83 352 208 174 vhcurveto
        return
      </CharString>
      <CharString index="2">
        rmoveto
        -183 100 -84 176 95 121 25 43 68 vhcurveto
        17 21 -8 32 5 37 rrcurveto
        -64 -52 41 90 hvcurveto
        229 87 267 135 vvcurveto
        37 -32 40 -23 12 vhcurveto
        -391 hlineto
        -32 -47 -85 -16 hvcurveto
        35 -22 12 -42 -55 -129 -67 -203 -190 vvcurveto
        676 -111 rmoveto
        -73 42 -46 37 -26 -4 callsubr
        114 0 19 129 hvcurveto
        33 14 49 58 17 vvcurveto
        -48 38 -29 37 90 vvcurveto
        107 45 296 75 322 vhcurveto
        -406 hlineto
        -33 -55 -50 -16 hvcurveto
        -25 -304 -72 -338 -145 vvcurveto
        return
      </CharString>
      <CharString index="3">
        rmoveto
        160 22 99 16 156 27 120 -25 112 -18 179 -22 23 26 25 45 12 34 -169 119 -64 42 -160 94 rrcurveto
        -102 hlineto
        -174 -89 -114 -65 -151 -101 -33 callsubr
        10 -38 13 -31 25 -36 rrcurveto
        endchar
      </CharString>
      <CharString index="4">
        951 1361 rmoveto
        -34 -32 callsubr
        92 -353 91 -551 29 -392 rrcurveto
        293 -28 callsubr
        53 125 48 -24 callgsubr
        -15 -12 -4 -11 hhcurveto
        -131 -35 696 253 -26 hvcurveto
        301 -793 rmoveto
        121 252 184 376 98 165 rrcurveto
        -31 callsubr
        -40 3 -36 -38 vvcurveto
        -231 -26 -228 -61 -220 vhcurveto
        34 47 49 16 7 hvcurveto
        -1457 793 rmoveto
        -33 -32 callsubr
        92 -353 102 -563 52 -380 rrcurveto
        294 hlineto
        32 -38 callgsubr
        54 125 47 -24 callgsubr
        -14 -13 -4 -12 hhcurveto
        -130 -69 696 253 -26 hvcurveto
        return
      </CharString>
      <CharString index="5">
        rmoveto
        -195 -2 -311 -78 -246 -277 478 -97 -230 -3 callsubr
        132 -95 89 -176 124 hvcurveto
        -91 64 -122 101 125 vvcurveto
        42 22 39 35 33 vhcurveto
        155 -3 rmoveto
        -36 -8 -33 -51 -18 vvcurveto
        115 -52 67 -91 -101 vvcurveto
        -7 0 -8 -2 -7 vhcurveto
        176 21 56 64 67 vvcurveto
        107 -157 84 -186 vhcurveto
        -384 -1029 rmoveto
        28 13 29 52 18 vvcurveto
        -121 45 -116 59 -8 102 rrcurveto
        21 3 23 5 27 vhcurveto
        -158 -28 -73 -69 -87 vvcurveto
        -118 152 -62 185 24 25 2 2 25 vhcurveto
        return
      </CharString>
      <CharString index="6">
        rmoveto
        -87 75 -69 126 133 113 85 108 87 -74 70 -127 -104 -142 -66 -128 vhcurveto
        endchar
      </CharString>
      <CharString index="7">
        rmoveto
        98 46 71 22 96 28 rrcurveto
        23 -9 60 -13 20 vhcurveto
        -66 12 -72 20 -60 27 -22 -69 -18 -30 callsubr
        -44 371 rmoveto
        166 60 110 32 134 hhcurveto
        28 29 -1 -2 30 hvcurveto
        -2 37 -5 37 -7 27 rrcurveto
        23 -48 -123 43 -169 hhcurveto
        -348 -156 -168 -300 -42 hvcurveto
        -29 -204 -55 -498 -53 -224 rrcurveto
        420 hlineto
        -46 callgsubr
        26 302 39 462 74 202 rrcurveto
        return
      </CharString>
      <CharString index="8">
        645 66 rmoveto
        32 405 68 479 98 424 rrcurveto
        -139 5 callsubr
        -32 -406 -64 -481 -99 -398 rrcurveto
        454 -24 callsubr
        773 -49 rmoveto
        16 28 11 38 6 37 rrcurveto
        -77 12 -17 52 65 64 14 68 69 vvcurveto
        153 -131 65 -161 16 vhcurveto
        -90 8 rlineto
        293 20 181 149 185 vvcurveto
        239 -230 91 -224 -32 -55 -51 -18 vhcurveto
        65 -68 32 -98 -97 vvcurveto
        -140 -63 -138 -115 -60 vhcurveto
        -18 -22 -12 -25 -4 -33 rrcurveto
        55 -6 34 -51 -76 -103 -45 -143 -118 vvcurveto
        -119 105 -35 165 116 100 23 19 81 vhcurveto
        return
      </CharString>
      <CharString index="9">
        rmoveto
        -160 -22 -100 -16 -155 -27 -120 24 -112 19 -179 22 -23 -26 -25 -45 -12 -34 169 -119 64 -42 160 -94 rrcurveto
        102 hlineto
        174 89 114 65 151 101 -33 callsubr
        -10 38 -13 31 -25 36 rrcurveto
        endchar
      </CharString>
      <CharString index="10">
        165 838 rmoveto
        32 46 53 14 9 hvcurveto
        122 170 148 157 174 129 rrcurveto
        -378 hlineto
        -25 -46 -47 -24 -10 hvcurveto
        -16 -63 -37 -216 -19 -173 rrcurveto
        1081 -311 rmoveto
        -31 -46 -52 -13 -10 hvcurveto
        -122 -171 -148 -162 -174 -129 rrcurveto
        378 hlineto
        26 45 48 24 11 hvcurveto
        15 62 37 221 19 172 rrcurveto
        -1189 -461 rmoveto
        -15 54 -51 34 vhcurveto
        484 hlineto
        237 481 167 266 334 549 rrcurveto
        16 -3 -52 49 -33 hhcurveto
        -489 hlineto
        -220 -494 -247 -411 -266 -390 rrcurveto
        return
      </CharString>
      <CharString index="11">
        rmoveto
        571 265 388 391 373 -242 244 -290 -32 -55 -51 -18 hvcurveto
        76 -114 32 -157 -168 vvcurveto
        -356 -146 -403 -179 -129 vhcurveto
        -149 12 rmoveto
        35 53 30 callgsubr
        34 427 60 443 103 445 -25 callsubr
        -119 hvcurveto
        -33 -3 -55 -46 -15 vvcurveto
        -33 -406 -63 -477 -99 -398 rrcurveto
        -6 141 204 -6 109 hhcurveto
        return
      </CharString>
      <CharString index="12">
        rmoveto
        -87 71 -59 120 127 107 75 108 87 -70 60 -121 -100 -134 -4 callgsubr
        556 hmoveto
        -87 71 -59 120 127 107 75 108 87 -68 60 -123 -98 -136 -4 callgsubr
        endchar
      </CharString>
      <CharString index="13">
        -55 callgsubr
        64 vlineto
        -14 -390 -113 -1 -389 24 callsubr
        -42 -52 -35 vvcurveto
        -64 -28 callgsubr
        94 2 393 hhcurveto
        return
      </CharString>
      <CharString index="14">
        rmoveto
        85 94 12 132 84 hvcurveto
        2 16 1 15 14 vvcurveto
        20 -2 19 -4 20 vhcurveto
        -5 -56 -36 -1 -26 -141 -152 71 -129 hhcurveto
        -85 -94 -12 -132 -83 hvcurveto
        -3 -17 -1 -16 -15 vvcurveto
        -20 2 -18 4 -18 vhcurveto
        5 56 36 1 26 136 154 -71 132 hhcurveto
        endchar
      </CharString>
      <CharString index="15">
        rrcurveto
        -464 hlineto
        -33 -56 -58 callgsubr
        -32 -405 -55 -489 -111 -402 rrcurveto
        return
      </CharString>
      <CharString index="16">
        599 hmoveto
        -91 callsubr
        return
      </CharString>
      <CharString index="17">
        1117 hmoveto
        34 58 51 15 2 hvcurveto
        -8 110 -3 122 128 vvcurveto
        42 0 42 1 43 vhcurveto
        106 21 126 17 83 5 rrcurveto
        18 20 5 37 24 vvcurveto
        -57 17 -172 23 -106 12 7 224 12 222 8 186 rrcurveto
        -328 hlineto
        -32 -53 -49 -16 -8 hvcurveto
        -29 -55 -58 -102 -35 -59 rrcurveto
        12 -118 4 -129 -130 vvcurveto
        -267 -20 -267 -22 -169 vhcurveto
        -419 hmoveto
        32 60 51 15 2 hvcurveto
        3 35 0 40 5 36 4 32 rcurveline
        76 13 75 9 57 5 19 23 8 42 3 24 -36 15 -66 21 -82 13 47 200 146 221 13 121 rrcurveto
        1 9 0 9 8 vvcurveto
        16 -1 13 -2 11 vhcurveto
        -149 -191 -399 -584 -165 -207 rrcurveto
        1777 755 rmoveto
        33 49 47 20 5 hvcurveto
        38 166 33 260 8 113 rrcurveto
        -513 hlineto
        -15 -20 -11 -30 -3 -30 131 -12 72 -43 60 -112 46 -85 34 -134 33 -140 rrcurveto
        -56 -344 rmoveto
        -88 -157 -100 -139 -172 -115 rrcurveto
        327 hlineto
        25 44 48 24 11 hvcurveto
        25 91 25 193 14 121 rrcurveto
        -33 -68 -53 -13 -10 hvcurveto
        return
      </CharString>
      <CharString index="18">
        rmoveto
        58 58 31 41 52 31 -33 -40 -49 -47 -40 -52 -53 -30 32 41 vhcurveto
        -173 -17 rmoveto
        -117 88 -93 151 155 134 115 144 117 -88 94 -149 -123 -168 -89 -171 vhcurveto
        endchar
      </CharString>
      <CharString index="19">
        rmoveto
        -448 -263 -262 -317 -272 207 -168 299 33 54 50 18 hvcurveto
        -79 55 -41 191 139 vvcurveto
        225 73 219 165 122 vhcurveto
        459 -951 rmoveto
        25 301 86 694 78 -7 callsubr
        -421 -29 callsubr
        -50 -16 hvcurveto
        -23 -263 -82 -775 -66 -280 rrcurveto
        402 hlineto
        35 53 52 16 hvcurveto
        return
      </CharString>
      <CharString index="20">
        -46 callgsubr
        25 303 33 303 75 321 24 callgsubr
        hlineto
        -32 -56 -50 -15 hvcurveto
        -25 -302 -32 -305 -76 -321 rrcurveto
        return
      </CharString>
      <CharString index="21">
        rmoveto
        17 28 12 43 5 36 rrcurveto
        -2 -26 -25 -1 -23 hhcurveto
        -188 -96 48 218 200 54 364 92 326 hvcurveto
        -52 -31 -1 -14 -47 hvcurveto
        -130 -149 -130 -96 -183 -82 rrcurveto
        5 -29 2 -32 -32 -195 -58 -235 -148 vvcurveto
        -237 173 -76 220 149 148 30 36 112 vhcurveto
        -175 695 rmoveto
        103 41 83 28 100 27 rrcurveto
        24 -10 59 -12 21 vhcurveto
        -73 10 -82 21 -64 27 -21 -69 -19 -30 callsubr
        return
      </CharString>
      <CharString index="22">
        1050 -15 rmoveto
        133 134 21 21 71 hvcurveto
        16 28 11 37 6 37 rrcurveto
        -66 -24 29 61 hvcurveto
        43 7 37 68 vvcurveto
        115 -117 71 -230 vhcurveto
        177 17 206 87 180 vvcurveto
        120 -90 70 -160 -83 -80 -29 -28 -58 vhcurveto
        -18 -22 -11 -36 -5 -32 rrcurveto
        6 18 18 3 16 hhcurveto
        42 29 -44 -56 -73 -50 -92 -138 -42 hvcurveto
        -18 -21 -10 -25 -6 -32 rrcurveto
        56 -10 48 -26 -75 -100 -27 -85 -87 vvcurveto
        -86 44 -50 159 vhcurveto
        return
      </CharString>
      <CharString index="23">
        rmoveto
        -133 82 -100 116 171 114 166 172 133 -82 100 -116 -171 -114 -167 -171 vhcurveto
        122 26 rmoveto
        88 57 97 84 57 41 -50 -83 -88 -57 -96 -84 -57 -41 50 82 vhcurveto
        return
      </CharString>
      <CharString index="24">
        hintmask 00000000
        hintmask 00101000
        178 314 rmoveto
        -173 105 -79 171 95 101 25 43 68 vhcurveto
        17 21 12 32 5 37 rrcurveto
        -64 -64 41 90 hvcurveto
        229 80 201 132 vvcurveto
        44 -25 33 -30 10 vhcurveto
        -389 hlineto
        -32 -47 -85 -16 hvcurveto
        42 -17 14 -48 -64 -140 -59 -157 -159 vvcurveto
        754 628 rmoveto
        1 -15 1 -18 -22 vvcurveto
        -2 -115 -56 -438 -38 -195 rrcurveto
        hintmask 01001000
        -50 -256 -46 -200 -125 -146 rrcurveto
        hintmask 10101000
        -2 34 29 -2 36 hhcurveto
        318 199 94 462 47 hvcurveto
        33 325 29 245 71 337 rrcurveto
        -393 hlineto
        hintmask 00101000
        -36 -52 -40 -14 hvcurveto
        -516 -1380 rmoveto
        53 85 49 18 hvcurveto
        -6 23 -3 23 23 vvcurveto
        83 54 94 74 72 vhcurveto
        7 -42 -49 5 -51 hhcurveto
        -188 -218 -76 -132 -105 117 -70 174 -14 hvcurveto
        return
      </CharString>
      <CharString index="25">
        -11 callgsubr
        -826 90 hstemhm
        75 842 -774 1439 hintmask 01100000
        581 541 -79 callsubr
        hintmask 10010000
        251 -572 -63 callsubr
      </CharString>
      <CharString index="26">
        -6 46 44 -2 45 hhcurveto
        309 195 150 345 43 hvcurveto
        41 326 42 320 56 274 rrcurveto
        48 -160 -176 15 -57 hhcurveto
        -35 -53 -55 -14 hvcurveto
        -514 -1377 rmoveto
        33 55 49 18 hvcurveto
        -6 23 -2 25 24 vvcurveto
        106 47 110 70 70 vhcurveto
        8 -35 -42 5 -45 hhcurveto
        -166 -202 -72 -147 -109 133 -94 160 -16 hvcurveto
        return
      </CharString>
      <CharString index="27">
        rmoveto
        -122 -106 -114 -67 -142 hhcurveto
        -133 -105 61 153 -66 hvcurveto
        -25 -28 -23 -29 -15 -28 rrcurveto
        -249 146 -147 204 186 168 81 291 65 vhcurveto
        return
      </CharString>
      <CharString index="28">
        615 -77 callsubr
        return
      </CharString>
      <CharString index="29">
        209 17 33 416 92 hvcurveto
        -267 hlineto
        -32 -55 -50 -17 hvcurveto
        -2 -17 -7 -54 -11 -64 95 -29 rcurveline
        -13 -76 -15 -86 -11 -56 rrcurveto
        return
      </CharString>
      <CharString index="30">
        rmoveto
        -30 51 60 -25 61 hhcurveto
        85 94 52 132 84 hvcurveto
        2 16 1 15 14 vvcurveto
        20 -2 19 -4 20 vhcurveto
        -5 -56 -36 -1 -26 hhcurveto
        -73 -56 28 31 -55 hvcurveto
        32 -57 -55 30 -66 hhcurveto
        -85 -94 -52 -132 -83 hvcurveto
        -3 -17 -1 -16 -15 vvcurveto
        -20 2 -18 4 -18 vhcurveto
        5 56 36 1 26 hhcurveto
        67 73 -36 -30 50 hvcurveto
        endchar
      </CharString>
      <CharString index="31">
        557 -8 rmoveto
        34 54 30 callgsubr
        33 426 61 445 103 444 rrcurveto
        -138 5 callsubr
        -33 -386 -68 -516 -94 -379 rrcurveto
        -6 140 205 -6 109 hhcurveto
        144 6 rmoveto
        -11 43 56 -7 47 hhcurveto
        258 327 112 294 199 -156 107 -250 -33 -20 -1 -3 -45 hvcurveto
        213 23 311 99 244 vvcurveto
        235 -250 74 -188 13 vhcurveto
        -34 -58 -51 -18 hvcurveto
        61 -45 23 -78 -86 vvcurveto
        -150 -74 -174 -97 -26 vhcurveto
        -19 -6 -13 -29 -23 vvcurveto
        -17 6 -15 10 -6 vhcurveto
        114 -47 44 -91 -99 vvcurveto
        -169 -130 -196 -146 -52 vhcurveto
        return
      </CharString>
      <CharString index="32">
        -20 rmoveto
        672 63 -272 324 237 994 rrcurveto
        -466 hlineto
        -31 -56 -2 callsubr
        -78 -494 53 -391 -59 -430 rrcurveto
        -406 371 rmoveto
        -16 -69 -23 -128 -2 -98 rrcurveto
        -34 80 134 -42 144 hhcurveto
        11 29 5 30 2 33 -126 84 -68 112 -54 149 rrcurveto
        -31 -52 -49 -17 -4 hvcurveto
        return
      </CharString>
      <CharString index="33">
        rmoveto
        -13 -149 -122 -5 -89 hhcurveto
        -48 callgsubr
        110 19 137 16 173 17 rrcurveto
        return
      </CharString>
      <CharString index="34">
        136 604 rmoveto
        33 52 10 13 8 hvcurveto
        96 112 79 81 118 75 34 22 34 60 10 23 rrcurveto
        -324 hlineto
        -25 -45 -47 -25 -10 hvcurveto
        -18 -62 -23 -90 -19 -172 rrcurveto
        1117 -173 rmoveto
        -31 -67 -21 -14 -9 hvcurveto
        -92 -142 -76 -52 -134 -95 -33 -24 -29 -40 -19 -43 rrcurveto
        344 hlineto
        26 45 47 25 9 hvcurveto
        17 61 30 126 19 172 rrcurveto
        -1188 -344 rmoveto
        -16 54 -71 34 vhcurveto
        482 hlineto
        241 390 273 369 161 175 rrcurveto
        16 -3 -52 50 -34 hhcurveto
        -487 hlineto
        -233 -393 -219 -287 -217 -233 rrcurveto
        return
      </CharString>
      <CharString index="35">
        rmoveto
        356 443 365 449 425 503 rrcurveto
        -122 hlineto
        -35 -39 -40 -18 -14 hvcurveto
        -341 -432 -375 -459 -430 25 callgsubr
        122 hlineto
        35 40 42 16 13 hvcurveto
        return
      </CharString>
      <CharString index="36">
        rmoveto
        153 436 143 210 vvcurveto
        127 -123 52 -162 10 vhcurveto
        -22 -1 -37 -26 -9 vvcurveto
        8 -16 4 -17 -16 -178 -485 -191 -226 vvcurveto
        -22 4 -21 8 -21 vhcurveto
        310 hlineto
        23 36 28 9 hvcurveto
        -314 435 rmoveto
        21 42 29 7 6 hvcurveto
        93 108 77 92 136 56 -71 -1 -112 -10 -80 -15 -22 -4 -26 -24 -7 -12 -26 -65 -21 -82 -10 -79 rrcurveto
        645 -253 rmoveto
        -74 -81 -77 -74 -117 -64 rrcurveto
        240 hlineto
        17 30 26 14 8 hvcurveto
        16 50 17 97 10 68 rrcurveto
        -23 -41 -29 -7 -6 hvcurveto
        endchar
      </CharString>
      <CharString index="37">
        rmoveto
        9 124 86 0 70 hhcurveto
        -42 callsubr
        -130 -15 -102 -6 rrcurveto
        return
      </CharString>
      <CharString index="38">
        rmoveto
        258 172 165 103 230 140 12 46 7 49 5 57 -187 150 -142 118 -182 159 rrcurveto
        -15 -7 -51 -104 -27 vvcurveto
        130 -143 60 -67 122 -141 -165 -142 -62 -52 -119 -96 rrcurveto
        -13 -11 -53 -44 -33 vvcurveto
        return
      </CharString>
      <CharString index="39">
        868 1019 rmoveto
        1 -36 -36 1 -34 hhcurveto
        -414 -196 -240 -239 -206 132 -193 361 33 54 50 18 hvcurveto
        -90 73 -36 105 111 vvcurveto
        200 126 220 136 99 vhcurveto
        62 -77 rmoveto
        -170 -41 -349 -38 -211 vhcurveto
        return
      </CharString>
      <CharString index="40">
        -84 81 -65 139 145 124 81 103 83 -81 67 -139 -114 -155 -64 -121 vhcurveto
        return
      </CharString>
      <CharString index="41">
        68 -98 callsubr
        return
      </CharString>
      <CharString index="42">
        -164 vvcurveto
        -116 77 -76 203 127 111 40 52 65 vhcurveto
        return
      </CharString>
      <CharString index="43">
        517 hmoveto
        -87 callgsubr
        return
      </CharString>
      <CharString index="44">
        0 1361 return
      </CharString>
      <CharString index="45">
        -2 -74 callgsubr
        return
      </CharString>
      <CharString index="46">
        184 85 105 61 117 82 -99 112 -76 76 -120 89 -94 -123 -45 -103 -66 -196 24 -32 37 -31 33 -20 rrcurveto
        return
      </CharString>
      <CharString index="47">
        -454 rmoveto
        12 55 7 47 5 72 rrcurveto
        -28 -73 -67 -14 -57 hhcurveto
        return
      </CharString>
      <CharString index="48">
        602 -66 callgsubr
        return
      </CharString>
      <CharString index="49">
        -49 -16 hvcurveto
        return
      </CharString>
      <CharString index="50">
        16 42 53 35 hvcurveto
        return
      </CharString>
      <CharString index="51">
        vstem
        1001 842 -55 callgsubr
        59 vlineto
        -173 -6 -118 -4 -112 -2 26 182 25 170 23 140 rrcurveto
        -72 -47 callgsubr
        -13 -118 -18 -152 -22 -166 rrcurveto
        -1 -97 -107 0 -146 24 callsubr
        -42 -52 -35 vvcurveto
        -59 vlineto
        170 5 115 4 106 2 return
      </CharString>
      <CharString index="52">
        rmoveto
        -57 callgsubr
        return
      </CharString>
      <CharString index="53">
        rmoveto
        -18 113 63 -5 82 hhcurveto
        102 95 16 49 124 hvcurveto
        6 23 2 50 21 vvcurveto
        -19 -69 -68 -7 -68 hhcurveto
        -118 -99 11 22 -129 hvcurveto
        return
      </CharString>
      <CharString index="54">
        rmoveto
        -389 -189 -164 -71 -350 -140 rrcurveto
        -9 -42 -5 -71 -49 vvcurveto
        286 -134 163 -82 312 -176 rrcurveto
        15 7 51 48 33 vvcurveto
        55 vlineto
        -267 119 -155 79 -229 132 234 105 155 66 286 115 rrcurveto
        15 6 51 49 33 vvcurveto
        return
      </CharString>
      <CharString index="55">
        hlineto
        35 53 42 16 hvcurveto
        return
      </CharString>
      <CharString index="56">
        34 47 38 28 6 hvcurveto
        15 69 37 164 39 150 rrcurveto
        -217 hlineto
        -32 -55 -50 -17 hvcurveto
        -3 -150 -4 -97 -17 -135 rrcurveto
        return
      </CharString>
      <CharString index="57">
        -63 callgsubr
        99 -7 callgsubr
        return
      </CharString>
      <CharString index="58">
        54 -59 callsubr
        return
      </CharString>
      <CharString index="59">
        -16 -42 -53 -35 hvcurveto
        -32 vlineto
        return
      </CharString>
      <CharString index="60">
        hlineto
        -35 -53 -42 -16 hvcurveto
        return
      </CharString>
      <CharString index="61">
        33 -40 callgsubr
        return
      </CharString>
      <CharString index="62">
        rmoveto
        -84 81 -65 139 14 13 1 2 14 vhcurveto
        -48 -80 -100 -65 -125 -16 rrcurveto
        -39 42 109 -71 64 hhcurveto
        123 167 185 215 104 -65 98 -174 -114 -140 -64 -121 hvcurveto
        endchar
      </CharString>
      <CharString index="63">
        15 -86 -60 5 -66 hhcurveto
        -104 -97 -17 -48 -123 hvcurveto
        -6 -23 -2 -50 -21 vvcurveto
        19 69 68 7 68 hhcurveto
        return
      </CharString>
      <CharString index="64">
        rmoveto
        22 28 18 40 9 37 -191 169 -124 91 -146 95 -54 -71 -84 -191 -16 -82 return
      </CharString>
      <CharString index="65">
        -29 callsubr
        -49 return
      </CharString>
      <CharString index="66">
        84 -20 1407 return
      </CharString>
      <CharString index="67">
        54 50 16 hvcurveto
        return
      </CharString>
      <CharString index="68">
        -63 callgsubr
        -22 callgsubr
        return
      </CharString>
      <CharString index="69">
        48 51 15 7 hvcurveto
        return
      </CharString>
      <CharString index="70">
        -120 hvcurveto
        -32 -2 -55 -47 return
      </CharString>
      <CharString index="71">
        55 -59 callsubr
        return
      </CharString>
      <CharString index="72">
        -78 callgsubr
        endchar
      </CharString>
      <CharString index="73">
        -467 122 -34 -21 195 125 return
      </CharString>
      <CharString index="74">
        hstemhm
        122 1332 return
      </CharString>
      <CharString index="75">
        99 -25 callgsubr
        return
      </CharString>
      <CharString index="76">
        rmoveto
        -78 callgsubr
        return
      </CharString>
      <CharString index="77">
        1281 80 return
      </CharString>
      <CharString index="78">
        hstemhm
        93 1221 return
      </CharString>
      <CharString index="79">
        vlineto
        13 405 return
      </CharString>
      <CharString index="80">
        -318 hlineto
        return
      </CharString>
      <CharString index="81">
        33 -38 callgsubr
        return
      </CharString>
      <CharString index="82">
        422 rrcurveto
        return
      </CharString>
      <CharString index="83">
        109 65 127 rrcurveto
        -11 return
      </CharString>
      <CharString index="84">
        173 182 173 return
      </CharString>
      <CharString index="85">
        101 -5 callgsubr
        return
      </CharString>
      <CharString index="86">
        -199 -15 -10 return
      </CharString>
      <CharString index="87">
        350 hstemhm
        return
      </CharString>
      <CharString index="88">
        -329 1145 460 hstem
        return
      </CharString>
      <CharString index="89">
        -63 callgsubr
        78 330 hstemhm
        return
      </CharString>
      <CharString index="90">
        113 1177 return
      </CharString>
      <CharString index="91">
        rrcurveto
        -27 callgsubr
        return
      </CharString>
      <CharString index="92">
        -65 callgsubr
        hintmask 01100000
        return
      </CharString>
      <CharString index="93">
        33 -36 callgsubr
        return
      </CharString>
      <CharString index="94">
        -1 callsubr
        hintmask 10100100
        return
      </CharString>
      <CharString index="95">
        hstemhm
        143 1301 return
      </CharString>
      <CharString index="96">
        254 -20 1396 return
      </CharString>
      <CharString index="97">
        hstemhm
        116 1422 return
      </CharString>
      <CharString index="98">
        122 239 122 return
      </CharString>
      <CharString index="99">
        472 hintmask 00110000
        return
      </CharString>
      <CharString index="100">
        372 hstemhm
        return
      </CharString>
      <CharString index="101">
        117 1342 return
      </CharString>
      <CharString index="102">
        360 hstemhm
        return
      </CharString>
      <CharString index="103">
        -56 -128 vhcurveto
        return
      </CharString>
      <CharString index="104">
        -10 127 317 127 229 127 317 127 return
      </CharString>
      <CharString index="105">
        -222 rmoveto
        -87 154 9 -63 vvcurveto
        -25 -7 -28 -21 -51 vhcurveto
        return
      </CharString>
      <CharString index="106">
        421 0 1002 143 7 callsubr
        89 1827 return
      </CharString>
      <CharString index="107">
        607 hintmask 00000000
        hintmask 10010000
        return
      </CharString>
      <CharString index="108">
        84 -446 -21 25 -21 46 -21 return
      </CharString>
      <CharString index="109">
        447 hintmask 10100000
        return
      </CharString>
      <CharString index="110">
        149 1947 return
      </CharString>
      <CharString index="111">
        -546 224 return
      </CharString>
      <CharString index="112">
        123 rrcurveto
        return
      </CharString>
      <CharString index="113">
        -18 162 991 -20 callgsubr
        -17 callgsubr
        return
      </CharString>
      <CharString index="114">
        -18 162 1001 7 callsubr
        -17 callgsubr
        return
      </CharString>
      <CharString index="115">
        15 vvcurveto
        20 -11 21 -13 15 vhcurveto
        -48 56 -86 -94 return
      </CharString>
      <CharString index="116">
        -20 1419 63 -5 callgsubr
        4 callsubr
        return
      </CharString>
      <CharString index="117">
        -43 callsubr
        467 return
      </CharString>
      <CharString index="118">
        -998 932 449 hstem
        return
      </CharString>
      <CharString index="119">
        rrcurveto
        -465 hlineto
        return
      </CharString>
      <CharString index="120">
        747 hstemhm
        77 671 -490 1356 return
      </CharString>
      <CharString index="121">
        rrcurveto
        1 100 109 1 156 hhcurveto
        endchar
      </CharString>
      <CharString index="122">
        133 1269 return
      </CharString>
      <CharString index="123">
        -599 0 993 return
      </CharString>
      <CharString index="124">
        72 748 return
      </CharString>
      <CharString index="125">
        hstemhm
        -6 callgsubr
        return
      </CharString>
      <CharString index="126">
        107 89 -13 -17 107 hvcurveto
        return
      </CharString>
      <CharString index="127">
        -599 -63 callgsubr
        return
      </CharString>
      <CharString index="128">
        497 -53 1453 return
      </CharString>
      <CharString index="129">
        10 hvcurveto
        137 194 return
      </CharString>
      <CharString index="130">
        22 1138 return
      </CharString>
      <CharString index="131">
        rrcurveto
        -419 return
      </CharString>
      <CharString index="132">
        -504 rrcurveto
        return
      </CharString>
      <CharString index="133">
        5 rrcurveto
        16 return
      </CharString>
      <CharString index="134">
        rrcurveto
        421 hlineto
        31 56 49 16 hvcurveto
        return
      </CharString>
      <CharString index="135">
        35 421 36 330 64 471 return
      </CharString>
      <CharString index="136">
        10 -38 19 -36 29 -31 rrcurveto
        endchar
      </CharString>
      <CharString index="137">
        50 17 hvcurveto
        return
      </CharString>
</ttFont>
